#N canvas 538 159 1118 607 10;
#X declare -lib mrpeach;
#X text 26 13 Synthos;
#X text 26 63 Midi Notes In;
#X obj 30 95 notein;
#X obj 96 210 symbol s;
#X obj 44 355 bng 15 250 50 0 empty empty empty 17 7 0 10 -262144 -1
-1;
#X obj 90 355 bng 15 250 50 0 empty empty empty 17 7 0 10 -262144 -1
-1;
#X obj 142 356 bng 15 250 50 0 empty empty empty 17 7 0 10 -262144
-1 -1;
#X text 149 17 Synth / Drum Selector;
#X text 122 299 Note Router;
#X obj 136 467 dannyDrumEngine;
#X obj 32 116 pack;
#X obj 32 136 stripnote;
#X obj 38 286 route list;
#N canvas 1310 268 450 300 knobsInput 0;
#X obj 168 45 ctlin 1;
#X obj 226 46 ctlin 2;
#X obj 287 45 ctlin 3;
#X obj 354 48 ctlin 4;
#X floatatom 161 91 5 0 0 0 - - -;
#X obj 69 18 ctlin;
#X floatatom 54 48 5 0 0 0 - - -;
#X floatatom 82 48 5 0 0 0 - - -;
#X floatatom 106 48 5 0 0 0 - - -;
#X floatatom 242 114 5 0 0 0 - - -;
#X floatatom 298 113 5 0 0 0 - - -;
#X floatatom 356 118 5 0 0 0 - - -;
#X obj 40 229 pack f f f f;
#X obj 73 149 select 1 127;
#X obj 116 181 bng 15 250 50 0 empty empty empty 17 7 0 10 -262144
-1 -1;
#X obj 72 180 bng 15 250 50 0 empty empty empty 17 7 0 10 -262144 -1
-1;
#X connect 0 0 4 0;
#X connect 1 0 9 0;
#X connect 2 0 10 0;
#X connect 3 0 11 0;
#X connect 4 0 13 0;
#X connect 5 0 6 0;
#X connect 5 1 7 0;
#X connect 5 2 8 0;
#X connect 13 0 15 0;
#X connect 13 1 14 0;
#X restore 731 50 pd knobsInput;
#X obj 752 253 symbol s;
#X obj 141 184 r synthMessage;
#X obj 850 224 r synthMessage;
#N canvas 586 458 760 300 synthDrumSelector 0;
#X msg 70 98 symbol synth1;
#X msg 274 102 symbol drum1;
#X obj 70 49 ctlin 50;
#X obj 70 73 select 127;
#X obj 167 73 select 127;
#X obj 274 74 select 127;
#X obj 167 49 ctlin 51;
#X obj 274 50 ctlin 52;
#X obj 14 48 loadbang;
#X obj 272 132 s synthMessage;
#X text 277 156 send Message;
#X text 71 31 1;
#X text 168 29 2;
#X text 273 30 3;
#X text 70 15 Buttons 1-8;
#X obj 431 75 select 127;
#X obj 432 53 ctlin 8 1;
#X text 430 33 Drum Button;
#X obj 542 74 select 127;
#X obj 542 51 ctlin 5 1;
#X text 540 30 Help Button;
#X msg 430 100 symbol shutdown;
#X msg 542 98 symbol closeSynth;
#X msg 167 100 symbol sequen;
#X connect 0 0 9 0;
#X connect 1 0 9 0;
#X connect 2 0 3 0;
#X connect 3 0 0 0;
#X connect 4 0 23 0;
#X connect 5 0 1 0;
#X connect 6 0 4 0;
#X connect 7 0 5 0;
#X connect 8 0 0 0;
#X connect 15 0 21 0;
#X connect 16 0 15 0;
#X connect 18 0 22 0;
#X connect 19 0 18 0;
#X connect 21 0 9 0;
#X connect 22 0 9 0;
#X connect 23 0 9 0;
#X restore 152 63 pd synthDrumSelector;
#X obj 767 292 pack s f f;
#X obj 839 34 ctlin;
#X floatatom 926 66 5 0 0 0 - - -;
#X floatatom 883 66 5 0 0 0 - - -;
#X floatatom 840 65 5 0 0 0 - - -;
#X obj 766 346 route list;
#X obj 765 375 route synth1 synth2 drum1;
#X obj 771 397 bng 15 250 50 0 empty empty empty 17 7 0 10 -262144
-1 -1;
#X obj 867 397 bng 15 250 50 0 empty empty empty 17 7 0 10 -262144
-1 -1;
#X obj 819 397 bng 15 250 50 0 empty empty empty 17 7 0 10 -262144
-1 -1;
#X obj 852 114 expr $f1 \; if ($f1 > 0 && $f1 < 5 \, $f1 \, 0) \;;
#X floatatom 851 154 5 0 0 0 - - -;
#X floatatom 1016 151 5 0 0 0 - - -;
#X obj 685 356 print;
#X obj 785 189 &&;
#X obj 764 222 select 1;
#X text 848 339 CC Knob Router;
#X text 950 89 CC Knob Filterer;
#X text 904 17 Knobs;
#X obj 680 330 spigot;
#X obj 713 304 tgl 15 0 empty empty empty 17 7 0 10 -262144 -1 -1 0
1;
#X obj 49 469 route 1 2 3 4;
#X obj 763 470 s synth1cc;
#X obj 49 445 r synth1cc;
#X text 678 285 Debug CC;
#N canvas 967 347 450 468 displayOut 0;
#X obj 28 182 packOSC;
#X obj 28 212 o.io.slipserial;
#X msg 93 183 devicename /dev/ttyUSB0 \, baud 9600;
#X obj 28 57 inlet;
#X msg 157 114 /disp 2;
#X obj 275 93 loadbang;
#X text 28 32 in: synthMessage;
#X obj 176 54 print;
#X msg 29 113 /disp 1;
#X msg 89 114 /disp 0;
#X obj 28 84 select synth1 drum1 shutdown;
#X connect 0 0 1 0;
#X connect 2 0 1 1;
#X connect 3 0 10 0;
#X connect 4 0 0 0;
#X connect 5 0 2 0;
#X connect 8 0 0 0;
#X connect 9 0 0 0;
#X connect 10 0 8 0;
#X connect 10 1 9 0;
#X connect 10 2 4 0;
#X connect 10 3 7 0;
#X restore 263 209 pd displayOut;
#X text 736 28 knob tester;
#N canvas 178 247 743 607 shutdowner 0;
#X obj 123 281 bng 15 250 50 0 empty empty empty 17 7 0 10 -262144
-1 -1;
#X msg 123 311 connect localhost 44555;
#X msg 184 342 send 115 104 117 116 100 111 119 110;
#X obj 117 391 tcpsend;
#X obj 223 425 route 1;
#X obj 93 462 print connected;
#X msg 226 374 disconnect;
#X obj 57 385 print;
#X obj 122 243 spigot;
#X obj 159 221 tgl 15 0 empty empty empty 17 7 0 10 -262144 -1 -1 1
1;
#X obj 160 193 loadbang;
#X text 155 280 Sudo Halt;
#X msg 521 341 connect localhost 44555;
#X obj 515 421 tcpsend;
#X obj 621 455 route 1;
#X obj 491 492 print connected;
#X msg 624 404 disconnect;
#X obj 455 415 print;
#X msg 582 372 send 115 116 111 112;
#X obj 89 46 inlet;
#X obj 93 79 select shutdown closeSynth;
#X obj 521 309 bng 15 250 50 0 empty empty empty 17 7 0 10 -262144
-1 -1;
#X obj 520 271 spigot;
#X obj 557 249 tgl 15 0 empty empty empty 17 7 0 10 -262144 -1 -1 1
1;
#X obj 558 221 loadbang;
#X obj 118 211 bng 15 250 50 0 empty empty empty 17 7 0 10 -262144
-1 -1;
#X obj 517 246 bng 15 250 50 0 empty empty empty 17 7 0 10 -262144
-1 -1;
#X obj 13 244 s shutDownSound;
#X connect 0 0 1 0;
#X connect 1 0 3 0;
#X connect 1 0 7 0;
#X connect 2 0 3 0;
#X connect 3 0 5 0;
#X connect 3 0 4 0;
#X connect 4 0 2 0;
#X connect 6 0 3 0;
#X connect 8 0 0 0;
#X connect 9 0 8 1;
#X connect 10 0 9 0;
#X connect 12 0 13 0;
#X connect 12 0 17 0;
#X connect 13 0 15 0;
#X connect 13 0 14 0;
#X connect 14 0 18 0;
#X connect 16 0 13 0;
#X connect 18 0 13 0;
#X connect 19 0 20 0;
#X connect 20 0 25 0;
#X connect 20 1 26 0;
#X connect 21 0 12 0;
#X connect 22 0 21 0;
#X connect 23 0 22 1;
#X connect 24 0 23 0;
#X connect 25 0 8 0;
#X connect 25 0 27 0;
#X connect 26 0 22 0;
#X restore 371 211 pd shutdowner;
#X obj 261 180 r synthMessage;
#X obj 369 178 r synthMessage;
#N canvas 117 303 450 300 systemStartUp 0;
#X obj 105 -162 loadbang;
#X obj 115 -124 delay 200;
#X obj 103 -95 bng 15 250 50 0 empty empty empty 17 7 0 10 -262144
-1 -1;
#X obj 109 -28 bng 15 250 50 0 empty empty empty 17 7 0 10 -262144
-1 -1;
#X msg 27 -53 \; pd dsp 1;
#X obj 114 6 s startUpSound;
#X obj 245 4 s synthMessage;
#X msg 248 -26 symbol synth1;
#X obj 105 -62 delay 2000;
#X connect 0 0 1 0;
#X connect 1 0 2 0;
#X connect 2 0 4 0;
#X connect 2 0 8 0;
#X connect 3 0 5 0;
#X connect 7 0 6 0;
#X connect 8 0 3 0;
#X connect 8 0 7 0;
#X restore 476 127 pd systemStartUp;
#X obj 38 499 sineEngine;
#X obj 147 109 basicSequencer;
#X obj 34 183 t b list;
#X obj 31 158 pack f f;
#X obj 41 260 list prepend synth1;
#X obj 246 89 bng 15 250 50 0 empty empty empty 17 7 0 10 -262144 -1
-1;
#X obj 39 335 route synth1 synth2 drum1 sequen;
#X obj 192 376 s sequenIn;
#X obj 138 87 r sequenIn;
#X connect 2 0 10 0;
#X connect 2 1 10 1;
#X connect 3 0 53 1;
#X connect 10 0 11 0;
#X connect 11 0 52 0;
#X connect 11 1 52 1;
#X connect 12 0 55 0;
#X connect 14 0 18 0;
#X connect 15 0 3 1;
#X connect 16 0 14 1;
#X connect 18 0 23 0;
#X connect 18 0 37 0;
#X connect 19 0 22 0;
#X connect 19 1 21 0;
#X connect 19 1 28 0;
#X connect 19 2 20 0;
#X connect 22 0 18 2;
#X connect 22 0 32 0;
#X connect 23 0 24 0;
#X connect 24 0 25 0;
#X connect 24 0 40 0;
#X connect 24 1 27 0;
#X connect 24 2 26 0;
#X connect 28 0 29 0;
#X connect 28 1 30 0;
#X connect 29 0 18 1;
#X connect 30 0 32 1;
#X connect 32 0 33 0;
#X connect 33 0 14 0;
#X connect 37 0 31 0;
#X connect 38 0 37 1;
#X connect 39 0 49 1;
#X connect 39 1 49 2;
#X connect 39 2 49 3;
#X connect 41 0 39 0;
#X connect 46 0 43 0;
#X connect 47 0 45 0;
#X connect 50 0 51 0;
#X connect 51 0 3 0;
#X connect 51 1 53 0;
#X connect 52 0 51 0;
#X connect 53 0 12 0;
#X connect 54 0 50 2;
#X connect 55 0 4 0;
#X connect 55 0 49 0;
#X connect 55 1 5 0;
#X connect 55 2 6 0;
#X connect 55 2 9 0;
#X connect 55 3 56 0;
