#N canvas 544 128 1118 607 10;
#X text 26 13 Synthos;
#X text 26 63 Midi Notes In;
#X obj 30 95 notein;
#X obj 96 210 symbol s;
#X obj 44 355 bng 15 250 50 0 empty empty empty 17 7 0 10 -262144 -1
-1;
#X obj 90 355 bng 15 250 50 0 empty empty empty 17 7 0 10 -262144 -1
-1;
#X obj 142 356 bng 15 250 50 0 empty empty empty 17 7 0 10 -262144
-1 -1;
#X obj 36 235 pack s f;
#X obj 38 335 route synth1 synth2 drum1;
#X text 191 66 Synth / Drum Selector;
#X text 122 299 Note Router;
#X obj 136 467 dannyDrumEngine;
#X obj 32 116 pack;
#X obj 32 136 stripnote;
#X obj 29 161 unpack;
#X obj 38 286 route list;
#X obj 34 183 t b f;
#X obj 38 499 sineEngine;
#N canvas 1311 269 450 300 knobsInput 0;
#X obj 168 45 ctlin 1;
#X obj 226 46 ctlin 2;
#X obj 287 45 ctlin 3;
#X obj 354 48 ctlin 4;
#X floatatom 161 91 5 0 0 0 - - -;
#X obj 69 18 ctlin;
#X floatatom 54 48 5 0 0 0 - - -;
#X floatatom 82 48 5 0 0 0 - - -;
#X floatatom 106 48 5 0 0 0 - - -;
#X floatatom 242 114 5 0 0 0 - - -;
#X floatatom 298 113 5 0 0 0 - - -;
#X floatatom 356 118 5 0 0 0 - - -;
#X obj 40 229 pack f f f f;
#X obj 73 149 select 1 127;
#X obj 116 181 bng 15 250 50 0 empty empty empty 17 7 0 10 -262144
-1 -1;
#X obj 72 180 bng 15 250 50 0 empty empty empty 17 7 0 10 -262144 -1
-1;
#X connect 0 0 4 0;
#X connect 1 0 9 0;
#X connect 2 0 10 0;
#X connect 3 0 11 0;
#X connect 4 0 13 0;
#X connect 5 0 6 0;
#X connect 5 1 7 0;
#X connect 5 2 8 0;
#X connect 13 0 15 0;
#X connect 13 1 14 0;
#X restore 489 117 pd knobsInput;
#X obj 606 247 symbol s;
#X obj 141 184 r synthMessage;
#X obj 704 218 r synthMessage;
#N canvas 648 513 450 300 synthDrumSelector 0;
#X msg 70 98 symbol synth1;
#X msg 167 100 symbol synth2;
#X msg 274 102 symbol drum1;
#X obj 70 49 ctlin 50;
#X obj 70 73 select 127;
#X obj 167 73 select 127;
#X obj 274 74 select 127;
#X obj 167 49 ctlin 51;
#X obj 274 50 ctlin 52;
#X obj 14 48 loadbang;
#X obj 272 132 s synthMessage;
#X text 277 156 send Message;
#X text 71 31 1;
#X text 168 29 2;
#X text 273 30 3;
#X text 70 15 Buttons 1-8;
#X connect 0 0 10 0;
#X connect 1 0 10 0;
#X connect 2 0 10 0;
#X connect 3 0 4 0;
#X connect 4 0 0 0;
#X connect 5 0 1 0;
#X connect 6 0 2 0;
#X connect 7 0 5 0;
#X connect 8 0 6 0;
#X connect 9 0 0 0;
#X restore 192 89 pd synthDrumSelector;
#X obj 621 286 pack s f f;
#X obj 693 28 ctlin;
#X floatatom 780 60 5 0 0 0 - - -;
#X floatatom 737 60 5 0 0 0 - - -;
#X floatatom 694 59 5 0 0 0 - - -;
#X obj 620 340 route list;
#X obj 619 369 route synth1 synth2 drum1;
#X obj 625 391 bng 15 250 50 0 empty empty empty 17 7 0 10 -262144
-1 -1;
#X obj 721 391 bng 15 250 50 0 empty empty empty 17 7 0 10 -262144
-1 -1;
#X obj 673 391 bng 15 250 50 0 empty empty empty 17 7 0 10 -262144
-1 -1;
#X obj 706 108 expr $f1 \; if ($f1 > 0 && $f1 < 5 \, $f1 \, 0) \;;
#X floatatom 705 148 5 0 0 0 - - -;
#X floatatom 870 145 5 0 0 0 - - -;
#X obj 539 350 print;
#X obj 639 183 &&;
#X obj 618 216 select 1;
#X text 702 333 CC Knob Router;
#X text 804 83 CC Knob Filterer;
#X text 758 11 Knobs;
#X obj 534 324 spigot;
#X obj 567 298 tgl 15 0 empty empty empty 17 7 0 10 -262144 -1 -1 0
1;
#X obj 49 469 route 1 2 3 4;
#X obj 617 464 s synth1cc;
#X obj 49 445 r synth1cc;
#X text 532 279 Debug CC;
#X connect 2 0 12 0;
#X connect 2 1 12 1;
#X connect 3 0 7 0;
#X connect 7 0 15 0;
#X connect 8 0 4 0;
#X connect 8 0 17 0;
#X connect 8 1 5 0;
#X connect 8 2 6 0;
#X connect 8 2 11 0;
#X connect 12 0 13 0;
#X connect 13 0 14 0;
#X connect 14 0 16 0;
#X connect 15 0 8 0;
#X connect 16 0 3 0;
#X connect 16 1 7 1;
#X connect 19 0 23 0;
#X connect 20 0 3 1;
#X connect 21 0 19 1;
#X connect 23 0 28 0;
#X connect 23 0 42 0;
#X connect 24 0 27 0;
#X connect 24 1 26 0;
#X connect 24 1 33 0;
#X connect 24 2 25 0;
#X connect 27 0 23 2;
#X connect 27 0 37 0;
#X connect 28 0 29 0;
#X connect 29 0 30 0;
#X connect 29 0 45 0;
#X connect 29 1 32 0;
#X connect 29 2 31 0;
#X connect 33 0 34 0;
#X connect 33 1 35 0;
#X connect 34 0 23 1;
#X connect 35 0 37 1;
#X connect 37 0 38 0;
#X connect 38 0 19 0;
#X connect 42 0 36 0;
#X connect 43 0 42 1;
#X connect 44 0 17 1;
#X connect 44 1 17 2;
#X connect 44 2 17 3;
#X connect 46 0 44 0;
