#N canvas 168 110 1546 607 10;
#X declare -lib mrpeach;
#X text 26 63 Midi Notes In;
#X obj 30 95 notein;
#X obj 96 219 symbol s;
#X obj 44 355 bng 15 250 50 0 empty empty empty 17 7 0 10 -262144 -1
-1;
#X obj 90 355 bng 15 250 50 0 empty empty empty 17 7 0 10 -262144 -1
-1;
#X obj 142 356 bng 15 250 50 0 empty empty empty 17 7 0 10 -262144
-1 -1;
#X text 149 13 Synth / Drum Selector;
#X text 122 299 Note Router;
#X obj 140 501 dannyDrumEngine;
#X obj 32 116 pack;
#X obj 32 136 stripnote;
#X obj 38 286 route list;
#N canvas 1309 267 450 300 knobsInput 0;
#X obj 168 45 ctlin 1;
#X obj 226 46 ctlin 2;
#X obj 287 45 ctlin 3;
#X obj 354 48 ctlin 4;
#X floatatom 161 91 5 0 0 0 - - -;
#X obj 69 18 ctlin;
#X floatatom 54 48 5 0 0 0 - - -;
#X floatatom 82 48 5 0 0 0 - - -;
#X floatatom 106 48 5 0 0 0 - - -;
#X floatatom 242 114 5 0 0 0 - - -;
#X floatatom 298 113 5 0 0 0 - - -;
#X floatatom 356 118 5 0 0 0 - - -;
#X obj 40 229 pack f f f f;
#X obj 73 149 select 1 127;
#X obj 116 181 bng 15 250 50 0 empty empty empty 17 7 0 10 -262144
-1 -1;
#X obj 72 180 bng 15 250 50 0 empty empty empty 17 7 0 10 -262144 -1
-1;
#X connect 0 0 4 0;
#X connect 1 0 9 0;
#X connect 2 0 10 0;
#X connect 3 0 11 0;
#X connect 4 0 13 0;
#X connect 5 0 6 0;
#X connect 5 1 7 0;
#X connect 5 2 8 0;
#X connect 13 0 15 0;
#X connect 13 1 14 0;
#X restore 961 61 pd knobsInput;
#X obj 982 264 symbol s;
#X obj 141 193 r synthMessage;
#X obj 1080 235 r synthMessage;
#X obj 997 303 pack s f f;
#X obj 1069 45 ctlin;
#X floatatom 1156 77 5 0 0 0 - - -;
#X floatatom 1113 77 5 0 0 0 - - -;
#X floatatom 1070 76 5 0 0 0 - - -;
#X obj 996 357 route list;
#X obj 995 386 route synth1 synth2 drum1;
#X obj 1001 408 bng 15 250 50 0 empty empty empty 17 7 0 10 -262144
-1 -1;
#X obj 1097 408 bng 15 250 50 0 empty empty empty 17 7 0 10 -262144
-1 -1;
#X obj 1049 408 bng 15 250 50 0 empty empty empty 17 7 0 10 -262144
-1 -1;
#X obj 1082 125 expr $f1 \; if ($f1 > 0 && $f1 < 5 \, $f1 \, 0) \;
;
#X floatatom 1081 165 5 0 0 0 - - -;
#X floatatom 1246 162 5 0 0 0 - - -;
#X obj 915 367 print;
#X obj 1015 200 &&;
#X obj 994 233 select 1;
#X text 1078 350 CC Knob Router;
#X text 1180 100 CC Knob Filterer;
#X text 1134 28 Knobs;
#X obj 910 341 spigot;
#X obj 943 315 tgl 15 0 empty empty empty 17 7 0 10 -262144 -1 -1 0
1;
#X obj 43 470 route 1 2 3 4;
#X obj 993 481 s synth1cc;
#X obj 43 446 r synth1cc;
#X text 908 296 Debug CC;
#X text 966 39 knob tester;
#N canvas 706 275 743 607 shutdowner 0;
#X obj 123 281 bng 15 250 50 0 empty empty empty 17 7 0 10 -262144
-1 -1;
#X msg 123 311 connect localhost 44555;
#X msg 184 342 send 115 104 117 116 100 111 119 110;
#X obj 117 391 tcpsend;
#X obj 223 425 route 1;
#X obj 93 462 print connected;
#X msg 226 374 disconnect;
#X obj 57 385 print;
#X obj 122 243 spigot;
#X obj 159 221 tgl 15 0 empty empty empty 17 7 0 10 -262144 -1 -1 1
1;
#X obj 160 193 loadbang;
#X text 155 280 Sudo Halt;
#X msg 521 341 connect localhost 44555;
#X obj 515 421 tcpsend;
#X obj 621 455 route 1;
#X obj 491 492 print connected;
#X msg 624 404 disconnect;
#X obj 455 415 print;
#X msg 582 372 send 115 116 111 112;
#X obj 89 46 inlet;
#X obj 93 79 select shutdown closeSynth;
#X obj 521 309 bng 15 250 50 0 empty empty empty 17 7 0 10 -262144
-1 -1;
#X obj 520 271 spigot;
#X obj 557 249 tgl 15 0 empty empty empty 17 7 0 10 -262144 -1 -1 1
1;
#X obj 558 221 loadbang;
#X obj 118 211 bng 15 250 50 0 empty empty empty 17 7 0 10 -262144
-1 -1;
#X obj 517 246 bng 15 250 50 0 empty empty empty 17 7 0 10 -262144
-1 -1;
#X obj 13 244 s shutDownSound;
#X connect 0 0 1 0;
#X connect 1 0 3 0;
#X connect 1 0 7 0;
#X connect 2 0 3 0;
#X connect 3 0 5 0;
#X connect 3 0 4 0;
#X connect 4 0 2 0;
#X connect 6 0 3 0;
#X connect 8 0 0 0;
#X connect 9 0 8 1;
#X connect 10 0 9 0;
#X connect 12 0 13 0;
#X connect 12 0 17 0;
#X connect 13 0 15 0;
#X connect 13 0 14 0;
#X connect 14 0 18 0;
#X connect 16 0 13 0;
#X connect 18 0 13 0;
#X connect 19 0 20 0;
#X connect 20 0 25 0;
#X connect 20 1 26 0;
#X connect 21 0 12 0;
#X connect 22 0 21 0;
#X connect 23 0 22 1;
#X connect 24 0 23 0;
#X connect 25 0 8 0;
#X connect 25 0 27 0;
#X connect 26 0 22 0;
#X restore 524 128 pd shutdowner;
#X obj 377 64 r synthMessage;
#X obj 522 95 r synthMessage;
#N canvas 116 302 450 300 systemStartUp 0;
#X obj 105 -162 loadbang;
#X obj 115 -124 delay 200;
#X obj 103 -95 bng 15 250 50 0 empty empty empty 17 7 0 10 -262144
-1 -1;
#X obj 109 -28 bng 15 250 50 0 empty empty empty 17 7 0 10 -262144
-1 -1;
#X msg 27 -53 \; pd dsp 1;
#X obj 114 6 s startUpSound;
#X obj 245 4 s synthMessage;
#X msg 248 -26 symbol synth1;
#X obj 105 -62 delay 2000;
#X connect 0 0 1 0;
#X connect 1 0 2 0;
#X connect 2 0 4 0;
#X connect 2 0 8 0;
#X connect 3 0 5 0;
#X connect 7 0 6 0;
#X connect 8 0 3 0;
#X connect 8 0 7 0;
#X restore 523 56 pd systemStartUp;
#X obj 32 500 sineEngine;
#X obj 147 109 basicSequencer;
#X obj 31 158 pack f f;
#X obj 41 260 list prepend synth1;
#X obj 244 110 bng 15 250 50 0 empty empty empty 17 7 0 10 -262144
-1 -1;
#X obj 186 390 s sequenIn;
#X obj 147 79 r sequenIn;
#X obj 190 356 bng 15 250 50 0 empty empty empty 17 7 0 10 -262144
-1 -1;
#X obj 35 184 t list b;
#X obj 228 80 r sequenCC;
#X obj 873 163 s sequenCC;
#X obj 875 132 list prepend;
#X text 392 39 System State;
#X obj 377 121 s dispOSCMsg;
#X obj 437 529 r dispOSCMsg;
#N canvas 1003 190 641 431 synthStateToGOSC 1;
#X obj 42 72 inlet;
#X obj 275 60 print unkn MSG;
#X obj 43 189 outlet;
#X text 39 42 in: synthMessage;
#X msg 537 148 /disp 2;
#X msg 409 147 /disp 1;
#X msg 469 148 /disp 0;
#X obj 408 118 select synth1 drum1 shutdown;
#X text 422 92 old msgs;
#X msg 252 127 /x -1;
#X msg 92 128 /d -1;
#X msg 204 127 /x 0;
#X msg 315 155 /x 1;
#X text 317 136 draw synth;
#X obj 42 99 select synth1 drum1 sequen loading shutdown;
#X msg 209 199 /g -1;
#X msg 210 225 /h -1;
#X msg 43 128 /s -1;
#X msg 144 128 /q -1;
#X msg 203 267 /g 1;
#X msg 201 291 /h 1;
#X msg 294 213 /s 1;
#X msg 300 246 /s 0;
#X msg 365 172 /x 3;
#X msg 392 207 /x buts;
#X msg 135 273 /q 3;
#X connect 0 0 14 0;
#X connect 7 0 5 0;
#X connect 7 1 6 0;
#X connect 7 2 4 0;
#X connect 9 0 2 0;
#X connect 10 0 2 0;
#X connect 11 0 2 0;
#X connect 12 0 2 0;
#X connect 14 0 17 0;
#X connect 14 1 10 0;
#X connect 14 2 18 0;
#X connect 14 3 11 0;
#X connect 14 4 9 0;
#X connect 15 0 2 0;
#X connect 16 0 2 0;
#X connect 17 0 2 0;
#X connect 18 0 2 0;
#X connect 19 0 2 0;
#X connect 20 0 2 0;
#X connect 21 0 2 0;
#X connect 22 0 2 0;
#X connect 23 0 2 0;
#X connect 24 0 2 0;
#X connect 25 0 2 0;
#X restore 386 92 pd synthStateToGOSC;
#N canvas 1023 576 820 468 displayOut 1;
#X obj 28 182 packOSC;
#X obj 28 212 o.io.slipserial;
#X msg 93 183 devicename /dev/ttyUSB0 \, baud 9600;
#X obj 275 93 loadbang;
#X msg 369 41 /drum 5;
#X msg 378 104 /drum \$1;
#X floatatom 384 70 5 0 0 0 - - -;
#X text 359 5 Drum GFX Tests;
#X obj 485 9 tgl 15 0 empty empty empty 17 7 0 10 -262144 -1 -1 0 1
;
#X obj 495 119 - 1;
#X floatatom 485 151 5 0 0 0 - - -;
#X obj 485 80 random 8;
#X obj 485 39 metro 100;
#X obj 601 97 counter;
#X obj 593 9 tgl 15 0 empty empty empty 17 7 0 10 -262144 -1 -1 0 1
;
#X obj 602 183 - 1;
#X obj 604 150 % 9;
#X obj 593 39 metro 100;
#X msg 642 11 100;
#X msg 685 11 75;
#X msg 724 14 250;
#X msg 727 46 50;
#X msg 766 37 25;
#X obj 26 74 inlet;
#X msg 87 87 /d 1;
#X text 13 46 Expecting Message;
#X text 83 68 example;
#X obj 28 134 route list;
#X obj 114 120 print OSCMsg;
#X connect 0 0 1 0;
#X connect 2 0 1 1;
#X connect 3 0 2 0;
#X connect 4 0 0 0;
#X connect 5 0 0 0;
#X connect 6 0 5 0;
#X connect 8 0 12 0;
#X connect 9 0 10 0;
#X connect 10 0 5 0;
#X connect 11 0 9 0;
#X connect 12 0 11 0;
#X connect 13 0 16 0;
#X connect 14 0 17 0;
#X connect 15 0 10 0;
#X connect 16 0 15 0;
#X connect 17 0 13 0;
#X connect 18 0 17 1;
#X connect 19 0 17 1;
#X connect 20 0 17 1;
#X connect 21 0 17 1;
#X connect 23 0 27 0;
#X connect 27 0 0 0;
#X connect 27 0 28 0;
#X connect 27 1 0 0;
#X connect 27 1 28 0;
#X restore 437 556 pd displayOut;
#X text 443 12 -- System --;
#X text 423 498 -- Display Out --;
#N canvas 846 302 760 300 synthMessageCreator 0;
#X msg 70 98 symbol synth1;
#X obj 70 49 ctlin 50;
#X obj 70 73 select 127;
#X obj 167 73 select 127;
#X obj 274 72 select 127;
#X obj 167 49 ctlin 51;
#X obj 274 48 ctlin 52;
#X obj 14 48 loadbang;
#X obj 272 132 s synthMessage;
#X text 277 156 send Message;
#X text 71 31 1;
#X text 168 29 2;
#X text 273 28 3;
#X text 70 15 Buttons 1-8;
#X obj 528 73 select 127;
#X obj 529 51 ctlin 8 1;
#X text 527 31 Drum Button;
#X obj 639 72 select 127;
#X obj 639 49 ctlin 5 1;
#X text 637 28 Help Button;
#X msg 527 98 symbol shutdown;
#X msg 639 96 symbol closeSynth;
#X text 665 114 closes PD;
#X text 537 116 shutsdown rPI;
#X msg 167 98 symbol drum1;
#X msg 273 98 symbol sequen;
#X obj 380 70 select 127;
#X msg 379 96 symbol sequen;
#X text 379 26 8;
#X obj 380 46 ctlin 25;
#X connect 0 0 8 0;
#X connect 1 0 2 0;
#X connect 2 0 0 0;
#X connect 3 0 24 0;
#X connect 4 0 25 0;
#X connect 5 0 3 0;
#X connect 6 0 4 0;
#X connect 7 0 0 0;
#X connect 14 0 20 0;
#X connect 15 0 14 0;
#X connect 17 0 21 0;
#X connect 18 0 17 0;
#X connect 20 0 8 0;
#X connect 21 0 8 0;
#X connect 24 0 8 0;
#X connect 25 0 8 0;
#X connect 26 0 27 0;
#X connect 27 0 8 0;
#X connect 29 0 26 0;
#X restore 151 35 pd synthMessageCreator;
#N canvas 913 369 771 300 drumToOSCMsg 1;
#X obj 35 -72 inlet;
#X obj 41 109 list prepend /d;
#X obj 46 202 outlet;
#X msg 242 66 /d 1-24;
#X msg 245 115 /d 1;
#X text 238 91 examples;
#X text 250 43 range;
#X obj 84 64 bng 15 250 50 0 empty empty empty 17 7 0 10 -262144 -1
-1;
#X obj 126 72 delay 100;
#X msg 161 102 -1;
#X obj 147 -72 inlet;
#X obj 126 32 spigot;
#X msg 154 6 0;
#X msg 190 7 1;
#X obj 146 -35 select drum1;
#X connect 0 0 11 0;
#X connect 1 0 2 0;
#X connect 7 0 8 0;
#X connect 8 0 9 0;
#X connect 9 0 1 0;
#X connect 10 0 14 0;
#X connect 11 0 7 0;
#X connect 11 0 1 0;
#X connect 12 0 11 1;
#X connect 13 0 11 1;
#X connect 14 0 13 0;
#X connect 14 1 12 0;
#X restore 140 522 pd drumToOSCMsg;
#X obj 140 543 s dispOSCMsg;
#X obj 39 335 route synth1 synth2 drum1 sequen;
#N canvas 791 303 450 312 sequenToOSCD 0;
#X obj 39 16 inlet;
#X obj 43 218 outlet;
#X obj 41 183 list prepend /q;
#X obj 88 145 spigot;
#X msg 116 119 0;
#X msg 152 120 1;
#X obj 108 78 select sequen;
#X obj 124 17 inlet;
#X connect 0 0 3 0;
#X connect 2 0 1 0;
#X connect 3 0 2 0;
#X connect 4 0 3 1;
#X connect 5 0 3 1;
#X connect 6 0 5 0;
#X connect 6 1 4 0;
#X connect 7 0 6 0;
#X restore 228 128 pd sequenToOSCD;
#X obj 228 151 s dispOSCMsg;
#X text 26 13 -- Synthos --;
#X text 27 29 :) Daniel;
#X obj 247 503 r synthMessage;
#X obj 266 107 r synthMessage;
#X connect 1 0 9 0;
#X connect 1 1 9 1;
#X connect 2 0 49 1;
#X connect 8 0 66 0;
#X connect 9 0 10 0;
#X connect 10 0 48 0;
#X connect 10 1 48 1;
#X connect 11 0 68 0;
#X connect 13 0 16 0;
#X connect 14 0 2 1;
#X connect 15 0 13 1;
#X connect 16 0 21 0;
#X connect 16 0 35 0;
#X connect 17 0 20 0;
#X connect 17 1 19 0;
#X connect 17 1 26 0;
#X connect 17 2 18 0;
#X connect 19 0 57 1;
#X connect 20 0 16 2;
#X connect 20 0 30 0;
#X connect 20 0 57 0;
#X connect 21 0 22 0;
#X connect 22 0 23 0;
#X connect 22 0 38 0;
#X connect 22 1 25 0;
#X connect 22 2 24 0;
#X connect 26 0 27 0;
#X connect 26 1 28 0;
#X connect 27 0 16 1;
#X connect 28 0 30 1;
#X connect 30 0 31 0;
#X connect 31 0 13 0;
#X connect 35 0 29 0;
#X connect 36 0 35 1;
#X connect 37 0 46 1;
#X connect 37 1 46 2;
#X connect 37 2 46 3;
#X connect 39 0 37 0;
#X connect 43 0 61 0;
#X connect 44 0 42 0;
#X connect 47 0 54 0;
#X connect 47 1 69 0;
#X connect 48 0 54 0;
#X connect 49 0 11 0;
#X connect 50 0 47 2;
#X connect 52 0 47 0;
#X connect 54 0 49 0;
#X connect 54 1 2 0;
#X connect 55 0 47 2;
#X connect 57 0 56 0;
#X connect 60 0 62 0;
#X connect 61 0 59 0;
#X connect 66 0 67 0;
#X connect 68 0 3 0;
#X connect 68 0 46 0;
#X connect 68 1 4 0;
#X connect 68 2 5 0;
#X connect 68 2 8 0;
#X connect 68 3 51 0;
#X connect 68 3 53 0;
#X connect 69 0 70 0;
#X connect 73 0 66 1;
#X connect 74 0 69 1;
