#N canvas 486 297 1136 607 10;
#X declare -lib mrpeach;
#X declare -lib mrpeach;
#X text 661 53 Synth / Drum Selector;
#N canvas 606 258 743 607 shutdowner 0;
#X obj 123 281 bng 15 250 50 0 empty empty empty 17 7 0 10 -262144
-1 -1;
#X msg 123 311 connect localhost 44555;
#X msg 184 342 send 115 104 117 116 100 111 119 110;
#X obj 117 391 tcpsend;
#X obj 223 425 route 1;
#X obj 93 462 print connected;
#X msg 226 374 disconnect;
#X obj 57 385 print;
#X obj 122 243 spigot;
#X obj 159 221 tgl 15 0 empty empty empty 17 7 0 10 -262144 -1 -1 1
1;
#X obj 160 193 loadbang;
#X text 155 280 Sudo Halt;
#X msg 521 341 connect localhost 44555;
#X obj 515 421 tcpsend;
#X obj 621 455 route 1;
#X obj 491 492 print connected;
#X msg 624 404 disconnect;
#X obj 455 415 print;
#X msg 582 372 send 115 116 111 112;
#X obj 89 46 inlet;
#X obj 93 79 select shutdown closeSynth;
#X obj 521 309 bng 15 250 50 0 empty empty empty 17 7 0 10 -262144
-1 -1;
#X obj 520 271 spigot;
#X obj 557 249 tgl 15 0 empty empty empty 17 7 0 10 -262144 -1 -1 1
1;
#X obj 558 221 loadbang;
#X obj 118 211 bng 15 250 50 0 empty empty empty 17 7 0 10 -262144
-1 -1;
#X obj 517 246 bng 15 250 50 0 empty empty empty 17 7 0 10 -262144
-1 -1;
#X obj 13 244 s shutDownSound;
#X connect 0 0 1 0;
#X connect 1 0 3 0;
#X connect 1 0 7 0;
#X connect 2 0 3 0;
#X connect 3 0 5 0;
#X connect 3 0 4 0;
#X connect 4 0 2 0;
#X connect 6 0 3 0;
#X connect 8 0 0 0;
#X connect 9 0 8 1;
#X connect 10 0 9 0;
#X connect 12 0 13 0;
#X connect 12 0 17 0;
#X connect 13 0 15 0;
#X connect 13 0 14 0;
#X connect 14 0 18 0;
#X connect 16 0 13 0;
#X connect 18 0 13 0;
#X connect 19 0 20 0;
#X connect 20 0 25 0;
#X connect 20 1 26 0;
#X connect 21 0 12 0;
#X connect 22 0 21 0;
#X connect 23 0 22 1;
#X connect 24 0 23 0;
#X connect 25 0 8 0;
#X connect 25 0 27 0;
#X connect 26 0 22 0;
#X restore 815 102 pd shutdowner;
#X obj 968 114 r synthMessage;
#X obj 815 76 r synthMessage;
#N canvas 116 302 450 300 systemStartUp 0;
#X obj 105 -162 loadbang;
#X obj 115 -124 delay 200;
#X obj 103 -95 bng 15 250 50 0 empty empty empty 17 7 0 10 -262144
-1 -1;
#X obj 109 -28 bng 15 250 50 0 empty empty empty 17 7 0 10 -262144
-1 -1;
#X msg 27 -53 \; pd dsp 1;
#X obj 114 6 s startUpSound;
#X obj 245 4 s synthMessage;
#X msg 248 -26 symbol synth1;
#X obj 105 -62 delay 2000;
#X connect 0 0 1 0;
#X connect 1 0 2 0;
#X connect 2 0 4 0;
#X connect 2 0 8 0;
#X connect 3 0 5 0;
#X connect 7 0 6 0;
#X connect 8 0 3 0;
#X connect 8 0 7 0;
#X restore 968 55 pd systemStartUp;
#X text 983 89 System State;
#X obj 968 171 s dispOSCMsg;
#X obj 751 496 r dispOSCMsg;
#N canvas 1001 188 641 431 synthStateToGOSC 0;
#X obj 42 72 inlet;
#X obj 43 189 outlet;
#X text 39 42 in: synthMessage;
#X msg 537 148 /disp 2;
#X msg 409 147 /disp 1;
#X msg 469 148 /disp 0;
#X obj 408 118 select synth1 drum1 shutdown;
#X text 422 92 old msgs;
#X msg 252 127 /x -1;
#X msg 92 128 /d -1;
#X msg 204 127 /x 0;
#X msg 315 155 /x 1;
#X text 317 136 draw synth;
#X obj 42 99 select synth1 drum1 sequen loading shutdown;
#X msg 209 199 /g -1;
#X msg 210 225 /h -1;
#X msg 43 128 /s -1;
#X msg 144 128 /q -1;
#X msg 203 267 /g 1;
#X msg 201 291 /h 1;
#X msg 294 213 /s 1;
#X msg 300 246 /s 0;
#X msg 365 172 /x 3;
#X msg 392 207 /x buts;
#X msg 135 273 /q 3;
#X connect 0 0 13 0;
#X connect 6 0 4 0;
#X connect 6 1 5 0;
#X connect 6 2 3 0;
#X connect 8 0 1 0;
#X connect 9 0 1 0;
#X connect 10 0 1 0;
#X connect 11 0 1 0;
#X connect 13 0 16 0;
#X connect 13 1 9 0;
#X connect 13 2 17 0;
#X connect 13 3 10 0;
#X connect 13 4 8 0;
#X connect 14 0 1 0;
#X connect 15 0 1 0;
#X connect 16 0 1 0;
#X connect 17 0 1 0;
#X connect 18 0 1 0;
#X connect 19 0 1 0;
#X connect 20 0 1 0;
#X connect 21 0 1 0;
#X connect 22 0 1 0;
#X connect 23 0 1 0;
#X connect 24 0 1 0;
#X restore 977 142 pd synthStateToGOSC;
#X text 764 18 -- System --;
#X text 737 459 -- Display Out --;
#N canvas 290 271 1101 300 synthMessageCreator 0;
#X msg 70 98 symbol synth1;
#X obj 70 49 ctlin 50;
#X obj 70 73 select 127;
#X obj 167 73 select 127;
#X obj 274 72 select 127;
#X obj 167 49 ctlin 51;
#X obj 274 48 ctlin 52;
#X obj 14 48 loadbang;
#X obj 470 222 s synthMessage;
#X text 475 246 send Message;
#X text 71 31 1;
#X text 168 29 2;
#X text 273 28 3;
#X text 70 15 Buttons 1-8;
#X obj 590 78 select 127;
#X obj 591 56 ctlin 8 1;
#X text 589 36 Drum Button;
#X obj 701 77 select 127;
#X obj 701 54 ctlin 5 1;
#X text 699 33 Help Button;
#X msg 589 103 symbol shutdown;
#X msg 701 101 symbol closeSynth;
#X text 727 119 closes PD;
#X text 599 121 shutsdown rPI;
#X msg 167 98 symbol drum1;
#X msg 273 98 symbol sequen;
#X obj 471 69 select 127;
#X msg 470 95 symbol sequen;
#X text 487 19 8;
#X obj 471 45 ctlin 25;
#X obj 180 220 s midiRoute;
#X obj 312 221 s actDisp;
#X obj 368 52 ctlin 26;
#X obj 368 76 select 127;
#X msg 369 98 symbol sequen;
#X text 365 25 Seq Button;
#X obj 845 83 select 127 0;
#X msg 851 109 symbol recHot;
#X msg 870 142 symbol recCold;
#X text 301 243 Active Display;
#X text 161 243 Prepend Midi Notes With symbol;
#X text 840 33 Rec Button;
#X obj 838 55 ctlin 38 1;
#X msg 952 113 symbol connectOSCDisp;
#X connect 0 0 30 0;
#X connect 0 0 31 0;
#X connect 1 0 2 0;
#X connect 2 0 0 0;
#X connect 3 0 24 0;
#X connect 4 0 25 0;
#X connect 5 0 3 0;
#X connect 6 0 4 0;
#X connect 7 0 0 0;
#X connect 14 0 20 0;
#X connect 15 0 14 0;
#X connect 17 0 21 0;
#X connect 18 0 17 0;
#X connect 20 0 8 0;
#X connect 21 0 8 0;
#X connect 24 0 30 0;
#X connect 24 0 31 0;
#X connect 26 0 27 0;
#X connect 29 0 26 0;
#X connect 32 0 33 0;
#X connect 33 0 34 0;
#X connect 34 0 8 0;
#X connect 34 0 30 0;
#X connect 34 0 31 0;
#X connect 36 0 37 0;
#X connect 36 1 38 0;
#X connect 37 0 8 0;
#X connect 38 0 8 0;
#X connect 42 0 36 0;
#X restore 663 75 pd synthMessageCreator;
#X text 36 13 -- Synthos --;
#X text 43 32 :) Daniel;
#N canvas 584 318 850 465 dispOut 0;
#X obj 24 15 inlet;
#X msg 71 179 disconnect;
#X obj 56 325 udpsend;
#X obj -27 96 loadbang;
#X obj -26 117 delay 100;
#X obj 188 292 packOSC;
#X obj 535 78 import mrpeach;
#X obj 260 180 prepend send;
#X msg 57 143 connect 127.0.0.1 57121;
#X obj 24 62 route connectOSCDisp;
#X obj 221 398 print --sendingOSC--;
#X obj 225 366 spigot;
#X obj 258 343 tgl 15 0 empty empty empty 17 7 0 10 -262144 -1 -1 0
1;
#X text 288 346 turn on debug printing for OSC Messages;
#N canvas 1154 323 450 300 testOSCSignals 0;
#X obj 20 264 outlet;
#X msg 62 139 send /r playButton;
#X msg 224 59 send /test p 1;
#X msg 224 84 send /test p 2;
#X msg 226 114 send /test p 3;
#X msg 226 138 send /test p 4;
#X connect 1 0 0 0;
#X connect 2 0 0 0;
#X connect 3 0 0 0;
#X connect 4 0 0 0;
#X connect 5 0 0 0;
#X restore 368 227 pd testOSCSignals;
#X text 385 195 send custome OSC Signals out;
#X connect 0 0 9 0;
#X connect 1 0 2 0;
#X connect 3 0 4 0;
#X connect 4 0 8 0;
#X connect 5 0 2 0;
#X connect 7 0 5 0;
#X connect 7 0 11 0;
#X connect 8 0 2 0;
#X connect 9 0 8 0;
#X connect 9 1 7 0;
#X connect 11 0 10 0;
#X connect 12 0 11 1;
#X connect 14 0 5 0;
#X restore 751 523 pd dispOut;
#N canvas 601 236 735 454 nanoKontrol 0;
#X obj -74 19 ctlin;
#X floatatom -91 47 5 0 0 0 - - -;
#X floatatom -50 46 5 0 0 0 - - -;
#X floatatom 6 44 5 0 0 0 - - -;
#X msg 8 228 60;
#X msg 48 227 62;
#X msg 84 228 64;
#X msg 118 228 65;
#X text -100 394 midi out needs to be packed and in note + velocity
pairs;
#X msg 151 266 127;
#X obj -85 319 pack f f;
#X obj 4 179 select 0 1 2 3 4 5 6 7;
#X obj 46 139 - 64;
#X text 86 142 normalize;
#X obj -55 272 float;
#X obj -70 228 t b f;
#X text 63 43 filter only the right buttons;
#X floatatom 172 176 5 0 0 0 - - -;
#X floatatom 234 179 5 0 0 0 - - -;
#X obj 180 129 moses 0;
#X obj 55 73 expr $f1 \; if( $f1 > 63 && $f1 < 72 \, $f1 \, -1) \;
;
#X obj 434 73 bendin;
#X connect 0 0 1 0;
#X connect 0 1 2 0;
#X connect 0 2 3 0;
#X connect 4 0 14 1;
#X connect 5 0 14 1;
#X connect 6 0 14 1;
#X connect 7 0 14 1;
#X connect 11 0 4 0;
#X connect 11 1 5 0;
#X connect 11 2 6 0;
#X connect 11 3 7 0;
#X connect 12 0 11 0;
#X connect 14 0 10 0;
#X connect 15 0 14 0;
#X connect 15 1 10 1;
#X connect 19 0 17 0;
#X connect 19 1 18 0;
#X connect 20 1 19 0;
#X restore 971 219 pd nanoKontrol;
#N canvas 158 349 711 463 nanoKey 0;
#X obj -49 15 ctlin;
#X floatatom -66 43 5 0 0 0 - - -;
#X floatatom -25 42 5 0 0 0 - - -;
#X floatatom 22 44 5 0 0 0 - - -;
#X text 65 20 change synths and messages;
#X obj -56 76 ctlin 64;
#X obj -56 100 select 127;
#X obj -57 144 counter;
#X obj -57 123 bng 15 250 50 0 empty empty empty 17 7 0 10 -262144
-1 -1;
#X obj -57 171 % 2;
#X floatatom -43 198 5 0 0 0 - - -;
#X obj 359 110 ctlin 1;
#X obj 386 203 bng 15 250 50 0 empty empty empty 17 7 0 10 -262144
-1 -1;
#X obj 476 208 bng 15 250 50 0 empty empty empty 17 7 0 10 -262144
-1 -1;
#X obj 376 161 select 10 127;
#X obj 177 373 s synthMessage;
#X msg -61 271 symbol synth1;
#X msg -31 300 symbol drum1;
#X obj -61 235 select 0 1;
#X msg 372 248 symbol seqToggle;
#X obj 199 113 bendin;
#X obj 193 213 bng 15 250 50 0 empty empty empty 17 7 0 10 -262144
-1 -1;
#X obj -4 374 s midiRoute;
#X text 479 229 conflict with op1 knob 1;
#X msg 75 69 symbol synth1;
#X msg 172 69 symbol drum1;
#X obj 78 373 s actDisp;
#X msg 187 237 symbol recHot;
#X obj 231 192 bng 15 250 50 0 empty empty empty 17 7 0 10 -262144
-1 -1;
#X msg 225 216 symbol recCold;
#X msg 91 204 symbol sequen;
#X obj 99 169 select 7865;
#X obj 57 193 bng 15 250 50 0 empty empty empty 17 7 0 10 -262144 -1
-1;
#X obj 185 166 select 8519 8192;
#X connect 0 0 1 0;
#X connect 0 1 2 0;
#X connect 0 2 3 0;
#X connect 5 0 6 0;
#X connect 6 0 8 0;
#X connect 7 0 9 0;
#X connect 8 0 7 0;
#X connect 9 0 10 0;
#X connect 9 0 18 0;
#X connect 11 0 14 0;
#X connect 12 0 19 0;
#X connect 14 0 12 0;
#X connect 14 1 13 0;
#X connect 16 0 22 0;
#X connect 16 0 26 0;
#X connect 17 0 22 0;
#X connect 17 0 26 0;
#X connect 18 0 16 0;
#X connect 18 1 17 0;
#X connect 19 0 15 0;
#X connect 20 0 31 0;
#X connect 20 0 33 0;
#X connect 21 0 27 0;
#X connect 27 0 15 0;
#X connect 28 0 29 0;
#X connect 29 0 15 0;
#X connect 30 0 22 0;
#X connect 30 0 26 0;
#X connect 31 0 30 0;
#X connect 31 0 32 0;
#X connect 33 0 21 0;
#X connect 33 1 28 0;
#X restore 264 50 pd nanoKey;
#N canvas 331 297 778 520 knobsCCin 0;
#X obj -4 14 symbol s;
#X obj 11 53 pack s f f;
#X obj 83 -205 ctlin;
#X floatatom 170 -173 5 0 0 0 - - -;
#X floatatom 127 -173 5 0 0 0 - - -;
#X floatatom 84 -174 5 0 0 0 - - -;
#X obj 10 107 route list;
#X obj 9 136 route synth1 synth2 drum1;
#X obj 15 158 bng 15 250 50 0 empty empty empty 17 7 0 10 -262144 -1
-1;
#X obj 111 158 bng 15 250 50 0 empty empty empty 17 7 0 10 -262144
-1 -1;
#X obj 63 158 bng 15 250 50 0 empty empty empty 17 7 0 10 -262144 -1
-1;
#X obj 96 -125 expr $f1 \; if ($f1 > 0 && $f1 < 5 \, $f1 \, 0) \;;
#X floatatom 95 -85 5 0 0 0 - - -;
#X floatatom 260 -88 5 0 0 0 - - -;
#X obj -71 117 print;
#X obj 29 -50 &&;
#X obj 8 -17 select 1;
#X text 92 100 CC Knob Router;
#X text 194 -150 CC Knob Filterer;
#X text 148 -222 Knobs;
#X obj -76 91 spigot;
#X obj -43 65 tgl 15 0 empty empty empty 17 7 0 10 -262144 -1 -1 0
1;
#X obj 7 231 s synth1cc;
#X text -78 46 Debug CC;
#X obj -113 -87 s sequenCC;
#X obj -111 -118 list prepend;
#X obj 94 -15 r midiRoute;
#X text 89 228 sends to synthBlock synth;
#X connect 0 0 1 0;
#X connect 1 0 6 0;
#X connect 1 0 20 0;
#X connect 2 0 5 0;
#X connect 2 1 4 0;
#X connect 2 1 11 0;
#X connect 2 2 3 0;
#X connect 4 0 25 1;
#X connect 5 0 1 2;
#X connect 5 0 15 0;
#X connect 5 0 25 0;
#X connect 6 0 7 0;
#X connect 7 0 8 0;
#X connect 7 0 22 0;
#X connect 7 1 10 0;
#X connect 7 2 9 0;
#X connect 11 0 12 0;
#X connect 11 1 13 0;
#X connect 12 0 1 1;
#X connect 13 0 15 1;
#X connect 15 0 16 0;
#X connect 16 0 0 0;
#X connect 20 0 14 0;
#X connect 21 0 20 1;
#X connect 25 0 24 0;
#X connect 26 0 0 1;
#X restore 423 51 pd knobsCCin;
#N canvas 417 268 450 333 midiPipeLine 0;
#X text 19 11 Midi Notes In;
#X obj 25 44 notein;
#X obj 94 187 symbol s;
#X obj 26 69 pack;
#X obj 28 100 stripnote;
#X obj 27 130 pack f f;
#X obj 27 232 list prepend synth1;
#X obj 27 156 t list b;
#X obj 133 147 r midiRoute;
#X obj 115 44 inlet;
#X obj 27 269 outlet;
#X text 119 13 Internal Midi input;
#X msg 138 72 list 60 127;
#X msg 228 72 list 80 127;
#X connect 1 0 3 0;
#X connect 1 1 3 1;
#X connect 2 0 6 1;
#X connect 3 0 4 0;
#X connect 4 0 5 0;
#X connect 4 1 5 1;
#X connect 5 0 7 0;
#X connect 6 0 10 0;
#X connect 7 0 6 0;
#X connect 7 1 2 0;
#X connect 8 0 2 1;
#X connect 9 0 4 0;
#X connect 12 0 4 0;
#X connect 13 0 4 0;
#X restore 39 154 pd midiPipeLine;
#X obj 39 116 r interMidi;
#N canvas 571 73 526 512 SoundBlocks 0;
#X obj 34 101 bng 15 250 50 0 empty empty empty 17 7 0 10 -262144 -1
-1;
#X obj 80 101 bng 15 250 50 0 empty empty empty 17 7 0 10 -262144 -1
-1;
#X obj 132 102 bng 15 250 50 0 empty empty empty 17 7 0 10 -262144
-1 -1;
#X text 98 20 Note Router;
#X obj 170 126 s sequenIn;
#X obj 180 102 bng 15 250 50 0 empty empty empty 17 7 0 10 -262144
-1 -1;
#X obj 29 81 route synth1 synth2 drum1 sequen;
#X obj 30 10 inlet;
#X obj 30 50 list trim;
#N canvas 366 342 450 300 drumBlock 0;
#X obj 22 13 inlet;
#X obj 313 167 r actDisp;
#N canvas 436 170 771 424 drumToOSCMsg 0;
#X obj 35 -72 inlet;
#X obj 41 109 list prepend /d;
#X obj 46 202 outlet;
#X msg 295 16 /d 1-24;
#X msg 298 65 /d 1;
#X text 291 41 examples;
#X text 303 -7 range;
#X obj 153 58 bng 15 250 50 0 empty empty empty 17 7 0 10 -262144 -1
-1;
#X obj 147 -72 inlet;
#X obj 126 32 spigot;
#X msg 154 6 0;
#X msg 190 7 1;
#X obj 146 -35 select drum1;
#X msg 182 142 /d -1;
#X text 224 141 Init Drum Disp;
#X connect 0 0 9 0;
#X connect 1 0 2 0;
#X connect 8 0 12 0;
#X connect 9 0 7 0;
#X connect 9 0 1 0;
#X connect 10 0 9 1;
#X connect 11 0 9 1;
#X connect 11 0 13 0;
#X connect 12 0 11 0;
#X connect 12 1 10 0;
#X connect 13 0 2 0;
#X restore 226 191 pd drumToOSCMsg;
#X obj 22 98 ezDrums;
#X obj 226 231 s dispOSCMsg;
#X obj 22 232 outlet~;
#X text 30 209 Audio;
#X text 250 167 Visual;
#X connect 0 0 3 0;
#X connect 1 0 2 1;
#X connect 2 0 4 0;
#X connect 3 0 5 0;
#X connect 3 1 2 0;
#X restore 123 240 pd drumBlock;
#X obj 28 401 outlet~;
#N canvas 954 342 450 300 synthBlock 0;
#X obj 42 31 inlet;
#X obj 53 101 route 1 2 3 4;
#X obj 53 77 r synth1cc;
#X obj 42 131 sineEngine;
#N canvas 511 311 450 300 synthToOSCMsg 0;
#X obj -4 11 inlet;
#X obj 26 186 list prepend /s;
#X obj 29 247 outlet;
#X obj 126 43 select synth1;
#X obj 29 153 spigot;
#X msg 168 66 0;
#X msg 126 66 1;
#X obj 127 13 r actDisp;
#X msg 135 189 /s -1;
#X text 177 188 Inititialize Synth Disp;
#X connect 0 0 4 0;
#X connect 1 0 2 0;
#X connect 3 0 6 0;
#X connect 3 1 5 0;
#X connect 4 0 1 0;
#X connect 5 0 4 1;
#X connect 6 0 4 1;
#X connect 6 0 8 0;
#X connect 7 0 3 0;
#X connect 8 0 2 0;
#X restore 269 225 pd synthToOSCMsg;
#X obj 269 248 s dispOSCMsg;
#X obj 43 257 outlet~;
#X text 58 233 Audio;
#X text 84 31 midiroute;
#X text 289 167 Visual;
#X obj 160 103 r toSynth1Param;
#N canvas 641 258 641 397 synthParamToOSCMsg 0;
#X obj 6 21 inlet;
#X obj 42 363 outlet;
#X obj 136 53 select synth1;
#X obj 39 163 spigot;
#X msg 178 76 0;
#X msg 136 76 1;
#X obj 137 23 r actDisp;
#X obj 54 234 bng 15 250 50 0 empty empty empty 17 7 0 10 -262144 -1
-1;
#X obj 95 237 bng 15 250 50 0 empty empty empty 17 7 0 10 -262144 -1
-1;
#X obj 159 232 bng 15 250 50 0 empty empty empty 17 7 0 10 -262144
-1 -1;
#X obj 220 231 bng 15 250 50 0 empty empty empty 17 7 0 10 -262144
-1 -1;
#X obj 282 235 bng 15 250 50 0 empty empty empty 17 7 0 10 -262144
-1 -1;
#X obj 44 187 list trim;
#X obj 44 278 list prepend /s/k1;
#X obj 53 300 list prepend /s/k2;
#X obj 75 322 list prepend /s/k3;
#X obj 101 346 list prepend /s/k4;
#X obj 282 368 print;
#X obj 256 346 t a;
#X obj 46 211 route /attack /decay /volume /modfreq;
#X obj 324 227 route /attack/param /decay/param /volume/param /modfreq/param
;
#X obj 329 260 bng 15 250 50 0 empty empty empty 17 7 0 10 -262144
-1 -1;
#X obj 403 262 bng 15 250 50 0 empty empty empty 17 7 0 10 -262144
-1 -1;
#X obj 473 262 bng 15 250 50 0 empty empty empty 17 7 0 10 -262144
-1 -1;
#X obj 540 262 bng 15 250 50 0 empty empty empty 17 7 0 10 -262144
-1 -1;
#X obj 610 261 bng 15 250 50 0 empty empty empty 17 7 0 10 -262144
-1 -1;
#X obj 269 278 list prepend /s/attack/param;
#X obj 278 300 list prepend /s/decay/param;
#X obj 300 322 list prepend /s/volume/param;
#X obj 326 346 list prepend /s/modfreq/param;
#X connect 0 0 3 0;
#X connect 2 0 5 0;
#X connect 2 1 4 0;
#X connect 3 0 12 0;
#X connect 4 0 3 1;
#X connect 5 0 3 1;
#X connect 6 0 2 0;
#X connect 12 0 19 0;
#X connect 13 0 1 0;
#X connect 14 0 1 0;
#X connect 15 0 1 0;
#X connect 16 0 1 0;
#X connect 18 0 1 0;
#X connect 18 0 17 0;
#X connect 19 0 7 0;
#X connect 19 0 13 0;
#X connect 19 1 8 0;
#X connect 19 1 14 0;
#X connect 19 2 9 0;
#X connect 19 2 15 0;
#X connect 19 3 10 0;
#X connect 19 3 16 0;
#X connect 19 4 11 0;
#X connect 19 4 20 0;
#X connect 20 0 26 0;
#X connect 20 0 21 0;
#X connect 20 1 22 0;
#X connect 20 1 27 0;
#X connect 20 2 23 0;
#X connect 20 2 28 0;
#X connect 20 3 24 0;
#X connect 20 3 29 0;
#X connect 20 4 25 0;
#X connect 26 0 18 0;
#X connect 27 0 18 0;
#X connect 28 0 18 0;
#X connect 29 0 18 0;
#X restore 254 196 pd synthParamToOSCMsg;
#X connect 0 0 3 0;
#X connect 1 0 3 1;
#X connect 1 1 3 2;
#X connect 1 2 3 3;
#X connect 2 0 1 0;
#X connect 3 0 6 0;
#X connect 3 1 4 0;
#X connect 3 2 11 0;
#X connect 4 0 5 0;
#X connect 10 0 3 4;
#X connect 11 0 5 0;
#X restore 29 239 pd synthBlock;
#X connect 6 0 0 0;
#X connect 6 0 11 0;
#X connect 6 1 1 0;
#X connect 6 2 2 0;
#X connect 6 2 9 0;
#X connect 6 3 4 0;
#X connect 6 3 5 0;
#X connect 7 0 8 0;
#X connect 8 0 6 0;
#X connect 9 0 10 0;
#X connect 11 0 10 0;
#X restore 37 277 pd SoundBlocks;
#N canvas 777 236 450 625 sequencerCatch 0;
#X obj 36 38 inlet;
#X obj 108 551 outlet;
#X obj 38 81 route list;
#X obj 37 129 route sequen;
#X obj 158 122 list split 1;
#X obj 320 62 symbol s;
#X obj 253 107 list prepend synth1;
#X obj 253 31 t list b;
#X obj 359 22 r midiRoute;
#X obj 171 461 symbol synth1;
#X obj 44 432 t list b;
#X obj 44 492 list prepend synth1;
#X obj 139 255 bng 15 250 50 0 empty empty empty 17 7 0 10 -262144
-1 -1;
#X obj 39 206 r sequenCC;
#N canvas 348 59 919 812 sequenToOSCD 0;
#X obj 24 37 inlet;
#X obj 53 621 outlet;
#X obj 73 169 spigot;
#X msg 729 95 0;
#X msg 765 96 1;
#X obj 729 69 select sequen;
#X obj 728 41 inlet;
#X obj 49 489 list append 421;
#X obj 729 127 s onOff;
#X obj 86 146 r onOff;
#X obj 109 39 inlet;
#X obj 158 168 spigot;
#X obj 231 34 inlet;
#X obj 280 163 spigot;
#X obj 293 140 r onOff;
#X obj 360 32 inlet;
#X obj 409 161 spigot;
#X obj 422 138 r onOff;
#X text 26 3 step;
#X text 107 3 toggle;
#X text 188 3 write step;
#X text 336 3 step duration;
#X msg 168 239 symbol p;
#X msg 235 237 symbol i;
#X obj 53 536 list prepend /q;
#X obj 62 361 list prepend i;
#X obj 79 297 float 0;
#X text 27 -68 Make a new Packet of all values as soon as any of the
inlets gets input Example: /q state step duration /q p 12 250 p - play
i - idle r - write;
#X obj 181 360 list append 0;
#X obj 408 359 list prepend i;
#X obj 409 312 list prepend 0;
#X text 509 360 state;
#X text 509 311 step;
#X msg 306 241 symbol r;
#X text 275 358 step;
#X text 111 342 state;
#X text 127 57 state;
#X text 254 61 state;
#X text 43 61 step;
#X text 384 60 duration;
#X obj 385 402 t f;
#X obj 414 438 t f;
#X text 182 525 /q - osc sequencer address;
#X text 722 147 Spigot toggle;
#X text 723 11 active disp module selection;
#X obj 171 145 r onOff;
#X obj 155 189 tgl 15 0 empty empty empty 17 7 0 10 -262144 -1 -1 0
1;
#X obj 154 211 select 1;
#X obj 186 554 r onOff;
#X obj 186 575 select 1;
#X msg 191 602 /q -1;
#X obj 298 210 select 127 0;
#X obj 499 28 inlet;
#X obj 548 157 spigot;
#X obj 561 134 r onOff;
#X text 475 -1 step duration;
#X text 523 56 duration;
#X obj 235 260 s idleState;
#X obj 174 406 r idleState;
#X obj 174 428 list append 0;
#X obj 585 357 t f;
#X obj 316 282 symbol r;
#X obj 170 283 symbol p;
#X obj 279 337 list append 0;
#X obj 79 239 + 1;
#X obj 714 334 spigot;
#X obj 741 311 tgl 15 0 empty empty empty 17 7 0 10 -262144 -1 -1 0
1;
#X obj 742 364 print sequencer-step--;
#X connect 0 0 2 0;
#X connect 2 0 64 0;
#X connect 3 0 8 0;
#X connect 4 0 8 0;
#X connect 5 0 4 0;
#X connect 5 1 3 0;
#X connect 6 0 5 0;
#X connect 7 0 24 0;
#X connect 9 0 2 1;
#X connect 10 0 11 0;
#X connect 11 0 46 0;
#X connect 12 0 13 0;
#X connect 13 0 51 0;
#X connect 14 0 13 1;
#X connect 15 0 16 0;
#X connect 16 0 30 0;
#X connect 16 0 40 0;
#X connect 17 0 16 1;
#X connect 22 0 62 0;
#X connect 23 0 57 0;
#X connect 24 0 1 0;
#X connect 25 0 7 0;
#X connect 26 0 25 0;
#X connect 26 0 28 1;
#X connect 26 0 30 1;
#X connect 26 0 65 0;
#X connect 28 0 7 0;
#X connect 29 0 41 0;
#X connect 30 0 29 0;
#X connect 33 0 61 0;
#X connect 40 0 7 1;
#X connect 41 0 24 0;
#X connect 45 0 11 1;
#X connect 46 0 47 0;
#X connect 47 0 22 0;
#X connect 47 1 23 0;
#X connect 48 0 49 0;
#X connect 49 0 50 0;
#X connect 50 0 1 0;
#X connect 51 0 33 0;
#X connect 51 1 23 0;
#X connect 52 0 53 0;
#X connect 53 0 60 0;
#X connect 54 0 53 1;
#X connect 58 0 59 0;
#X connect 59 0 7 0;
#X connect 60 0 59 1;
#X connect 61 0 25 1;
#X connect 61 0 29 1;
#X connect 61 0 63 0;
#X connect 62 0 25 1;
#X connect 62 0 28 0;
#X connect 62 0 29 1;
#X connect 63 0 7 0;
#X connect 64 0 26 0;
#X connect 65 0 67 0;
#X connect 66 0 65 1;
#X restore 119 299 pd sequenToOSCD;
#X obj 119 322 s dispOSCMsg;
#X obj 132 202 r synthMessage;
#X obj 165 252 r actDisp;
#X text 114 410 midi note to last none sequencer sound engine;
#X obj 16 257 basicSequencerMod;
#X obj 159 150 pack s s;
#X obj 239 187 route synth1 drum1;
#X text 36 13 midiPipe;
#X text 132 15 midiRoute;
#X obj 159 56 r midiRoute;
#X obj 251 289 list prepend symbol;
#X obj 235 157 route list;
#X obj 251 342 list trim;
#X connect 0 0 2 0;
#X connect 2 0 3 0;
#X connect 3 0 19 0;
#X connect 3 1 1 0;
#X connect 4 0 20 1;
#X connect 4 0 20 0;
#X connect 5 0 6 1;
#X connect 7 0 6 0;
#X connect 7 1 5 0;
#X connect 8 0 5 1;
#X connect 9 0 11 1;
#X connect 10 0 11 0;
#X connect 10 1 9 0;
#X connect 11 0 1 0;
#X connect 12 0 19 2;
#X connect 13 0 19 2;
#X connect 14 0 15 0;
#X connect 16 0 19 3;
#X connect 17 0 14 5;
#X connect 19 0 10 0;
#X connect 19 1 14 0;
#X connect 19 2 14 1;
#X connect 19 3 14 2;
#X connect 19 4 14 3;
#X connect 19 5 14 4;
#X connect 20 0 26 0;
#X connect 21 0 25 0;
#X connect 21 1 25 0;
#X connect 24 0 4 0;
#X connect 25 0 27 0;
#X connect 26 0 21 0;
#X connect 27 0 9 1;
#X restore 58 216 pd sequencerCatch;
#N canvas 960 172 450 300 hwinput 0;
#X obj 37 23 import mrpeach;
#X obj 32 85 udpreceive 57122;
#X obj 32 141 unpackOSC;
#X obj 71 213 print OSCReceived;
#X obj 29 246 outlet;
#X obj 64 187 spigot;
#X obj 99 163 tgl 15 0 empty empty empty 17 7 0 10 -262144 -1 -1 0
1;
#X text 131 162 debug osc recieved print;
#X connect 1 0 2 0;
#X connect 2 0 4 0;
#X connect 2 0 5 0;
#X connect 5 0 3 0;
#X connect 6 0 5 1;
#X restore 344 50 pd hwinput;
#N canvas 337 88 1260 666 hwToOSC 0;
#X obj 44 21 inlet;
#X obj 62 66 routeOSC /b/p;
#X text 165 65 example: /b/p/ 5 0;
#X msg 33 389 symbol synth1;
#X msg 71 414 symbol drum1;
#X obj 64 494 s midiRoute;
#X obj 71 517 s actDisp;
#X obj 71 464 t s;
#X obj 364 83 route /b/r;
#X obj 160 464 t s;
#X obj 37 265 tgl 15 0 empty empty empty 17 7 0 10 -262144 -1 -1 0
1;
#X obj 29 297 select 0 1;
#X obj 26 323 bng 15 250 50 0 empty empty empty 17 7 0 10 -262144 -1
-1;
#X obj 59 328 bng 15 250 50 0 empty empty empty 17 7 0 10 -262144 -1
-1;
#X text 185 251 Tape;
#X text 10 245 Synth / Drum;
#X obj 161 269 r \$0buttPin;
#X obj 79 153 s \$0buttPin;
#N canvas 485 231 459 517 buttInterForTape 0;
#X obj 35 24 inlet;
#X obj 35 451 outlet;
#X text 135 199 check if button is already pressed;
#X text 149 232 if pressed record;
#X text 148 218 if not pressed open tape;
#X text 91 51 a message with button pressed pin number;
#X obj 35 215 f 0;
#X msg 80 198 1;
#X obj 35 128 t b b;
#X msg 35 421 symbol tape;
#X msg 81 170 0;
#X obj 151 453 outlet;
#X text 51 397 to actDisp;
#X msg 151 369 symbol recBut_m;
#X obj 35 273 moses 1;
#X obj 35 87 select 6 16 12;
#X text 144 86 6 tape button;
#X connect 0 0 15 0;
#X connect 6 0 14 0;
#X connect 7 0 6 1;
#X connect 8 0 7 0;
#X connect 8 1 6 0;
#X connect 9 0 1 0;
#X connect 10 0 6 1;
#X connect 13 0 11 0;
#X connect 14 0 9 0;
#X connect 14 1 13 0;
#X connect 15 0 8 0;
#X connect 15 3 10 0;
#X restore 160 298 pd buttInterForTape;
#X obj 271 464 s buttToTape;
#X text 85 181 Selects Module;
#X msg 950 162 playBut_m;
#X msg 1027 163 stopBut_m;
#X msg 875 85 deltaBut_m;
#X obj 764 110 cnv 15 120 84 empty empty empty 20 12 0 14 -233017 -66577
0;
#X text 901 111 comment;
#X text 766 86 comment;
#X msg 762 61 instBut_m;
#X msg 800 86 tapeBut_m;
#X msg 843 61 seqBut_m;
#X obj 530 376 s buttToTape;
#X msg 559 336 symbol playBut_m;
#X msg 530 307 symbol stopBut_m;
#X text 390 504 todo - rename synthMessage to sysMessage - or rename
to seqMessage;
#X obj 63 124 t a;
#N canvas 1093 6 560 414 testButtons 1;
#X obj 29 370 outlet;
#X msg 125 269 5;
#X msg 158 269 6;
#X msg 192 269 13;
#X msg 225 269 19;
#X msg 123 221 16;
#X msg 157 220 12;
#X msg 224 301 13 0;
#X msg 34 100 26;
#X msg 104 98 20;
#X msg 68 101 21;
#X msg 145 98 7;
#X obj 270 21 tgl 15 0 empty empty empty 17 7 0 10 -262144 -1 -1 0
1;
#X obj 236 78 bng 15 250 50 0 empty empty empty 17 7 0 10 -262144 -1
-1;
#X obj 235 51 metro 500;
#X obj 463 335 s interMidi;
#X text 51 73 top 4 buttons;
#X msg 357 100 list 60 127;
#X msg 447 100 list 80 127;
#X msg 358 128 list 67 127;
#X text 411 69 Key Notes;
#X text 35 123 play record stop switch;
#X connect 1 0 0 0;
#X connect 2 0 0 0;
#X connect 3 0 0 0;
#X connect 4 0 0 0;
#X connect 5 0 0 0;
#X connect 6 0 0 0;
#X connect 7 0 0 0;
#X connect 8 0 0 0;
#X connect 9 0 0 0;
#X connect 10 0 0 0;
#X connect 11 0 0 0;
#X connect 12 0 14 0;
#X connect 14 0 10 0;
#X connect 14 0 13 0;
#X connect 17 0 15 0;
#X connect 18 0 15 0;
#X connect 19 0 15 0;
#X restore 72 96 pd testButtons;
#N canvas 1083 242 459 517 butInterForSeq 0;
#X obj 35 24 inlet;
#X obj 35 451 outlet;
#X text 140 199 check if button is already pressed;
#X text 154 232 if pressed record;
#X text 153 218 if not pressed open tape;
#X text 103 42 a message with button pressed pin number;
#X obj 35 215 f 0;
#X msg 85 198 1;
#X obj 35 128 t b b;
#X msg 86 170 0;
#X obj 151 453 outlet;
#X text 51 397 to actDisp;
#X obj 35 273 moses 1;
#X text 106 86 sequencer button;
#X msg 35 421 symbol sequen;
#X msg 151 369 symbol seqToggle;
#X obj 35 87 select 13;
#X connect 0 0 16 0;
#X connect 6 0 12 0;
#X connect 7 0 6 1;
#X connect 8 0 7 0;
#X connect 8 1 6 0;
#X connect 9 0 6 1;
#X connect 12 0 14 0;
#X connect 12 1 15 0;
#X connect 14 0 1 0;
#X connect 15 0 10 0;
#X connect 16 0 8 0;
#X connect 16 1 9 0;
#X restore 289 299 pd butInterForSeq;
#X obj 290 269 r \$0buttPin;
#X text 301 250 Sequencer;
#X obj 388 463 s synthMessage;
#N canvas 818 262 568 539 paramRouter 0;
#X obj 26 31 inlet;
#X text 26 6 buttons;
#X obj 170 44 r actDisp;
#X text 122 9 Route Context Buttons to Active Display Module;
#X msg 318 146 symbol drum1;
#X msg 320 174 symbol sequen;
#X msg 320 230 symbol longRec;
#X msg 320 200 symbol tape;
#X obj 100 147 t f b;
#X obj 98 255 list prepend synth1;
#X obj 176 204 symbol synth1;
#X obj 321 291 s actDisp;
#X obj 26 93 allow 26 20 21 7;
#X obj 98 326 route synth1 drum1 sequen tape longRec;
#X obj 99 382 s synth1Param;
#X obj 149 407 s drum1Param;
#X obj 189 381 s sequenParam;
#X obj 239 408 s tapeParam;
#X obj 287 381 s longRecParam;
#X obj 344 350 bng 15 250 50 0 empty empty empty 17 7 0 10 -262144
-1 -1;
#X obj 104 287 list trim;
#X msg 317 118 symbol synth1;
#X obj 66 364 bng 15 250 50 0 empty empty empty 17 7 0 10 -262144 -1
-1;
#X connect 0 0 12 0;
#X connect 2 0 10 1;
#X connect 4 0 11 0;
#X connect 6 0 11 0;
#X connect 7 0 11 0;
#X connect 8 0 9 0;
#X connect 8 1 10 0;
#X connect 9 0 20 0;
#X connect 10 0 9 1;
#X connect 12 0 8 0;
#X connect 13 0 14 0;
#X connect 13 0 22 0;
#X connect 13 1 15 0;
#X connect 13 2 16 0;
#X connect 13 3 17 0;
#X connect 13 4 18 0;
#X connect 13 5 19 0;
#X connect 20 0 13 0;
#X connect 21 0 11 0;
#X restore 814 226 pd paramRouter;
#X msg 72 354 symbol longRec;
#X obj 63 209 select 5 6 13 19;
#X obj 530 226 select 16 12;
#X text 528 187 Transport Buttons For Tape;
#X text 739 35 -- Possible Button Signal Names --;
#X text 748 276 Long-Recorder;
#X text 919 278 Synth Param;
#N canvas 582 195 717 615 synthParamInter 0;
#X text 149 24 Button Presses get converted to knob selection and (-)
or (+);
#X text 283 173 attack decay amp thinggy;
#X msg 197 131 inc;
#X msg 230 133 dec;
#X floatatom 224 228 6 0 0 0 - - -;
#X obj 217 172 counter;
#X obj 223 203 % 4;
#N canvas 966 505 450 300 init 0;
#X obj 30 120 outlet;
#X msg 54 47 min 0;
#X msg 34 74 max 3;
#X obj 33 21 loadbang;
#X connect 1 0 0 0;
#X connect 2 0 0 0;
#X connect 3 0 1 0;
#X connect 3 0 2 0;
#X restore 270 133 pd init;
#X obj 226 253 select 0 1 2 3;
#X msg 228 287 symbol knob1;
#X msg 239 311 symbol knob2;
#X msg 256 329 symbol knob3;
#X msg 270 350 symbol knob4;
#X obj 169 374 symbol knob1;
#X msg 76 133 127;
#X msg 113 135 1;
#X text 75 68 knob direction <- or ->;
#X obj 85 176 t f b;
#X obj 99 432 list prepend knob1;
#X obj 51 34 r synth1Param;
#X obj 99 489 s toSynth1Param;
#X text 350 69 Button order 26 21 20 7;
#X obj 72 101 select 20 7;
#X obj 197 101 select 26 21;
#X obj 382 244 list prepend /s/selectKnob;
#X obj 384 270 s dispOSCMsg;
#X connect 2 0 5 0;
#X connect 3 0 5 0;
#X connect 4 0 8 0;
#X connect 4 0 24 0;
#X connect 5 0 6 0;
#X connect 6 0 4 0;
#X connect 7 0 5 0;
#X connect 8 0 9 0;
#X connect 8 1 10 0;
#X connect 8 2 11 0;
#X connect 8 3 12 0;
#X connect 9 0 13 1;
#X connect 10 0 13 1;
#X connect 11 0 13 1;
#X connect 12 0 13 1;
#X connect 13 0 18 1;
#X connect 14 0 17 0;
#X connect 15 0 17 0;
#X connect 17 0 18 0;
#X connect 17 1 13 0;
#X connect 18 0 20 0;
#X connect 19 0 22 0;
#X connect 22 0 14 0;
#X connect 22 1 15 0;
#X connect 22 2 23 0;
#X connect 23 0 2 0;
#X connect 23 1 3 0;
#X connect 24 0 25 0;
#X restore 902 302 pd synthParamInter;
#N canvas 697 404 450 300 longRecParamInter 0;
#X obj 52 192 s toLongRec;
#X msg 53 93 symbol play;
#X obj 53 42 r longRecParam;
#X msg 114 150 symbol switch;
#X obj 53 68 sel 26 21 20 7;
#X msg 73 113 symbol record;
#X msg 93 132 symbol stop;
#X connect 1 0 0 0;
#X connect 2 0 4 0;
#X connect 3 0 0 0;
#X connect 4 0 1 0;
#X connect 4 1 5 0;
#X connect 4 2 6 0;
#X connect 4 3 3 0;
#X connect 5 0 0 0;
#X connect 6 0 0 0;
#X restore 718 302 pd longRecParamInter;
#X text 765 115 [26] [21] [20] [ 7];
#X text 765 136 [12] [16];
#X text 766 174 [19] [13] [ 6] [ 5];
#X text 812 244 | |;
#X text 907 242 | |;
#X connect 0 0 1 0;
#X connect 1 0 34 0;
#X connect 1 1 8 0;
#X connect 3 0 7 0;
#X connect 4 0 7 0;
#X connect 7 0 5 0;
#X connect 7 0 6 0;
#X connect 9 0 6 0;
#X connect 10 0 11 0;
#X connect 11 0 12 0;
#X connect 11 1 13 0;
#X connect 12 0 3 0;
#X connect 13 0 4 0;
#X connect 16 0 18 0;
#X connect 18 0 9 0;
#X connect 18 1 19 0;
#X connect 31 0 30 0;
#X connect 32 0 30 0;
#X connect 34 0 17 0;
#X connect 34 0 42 0;
#X connect 35 0 34 0;
#X connect 36 0 9 0;
#X connect 36 1 39 0;
#X connect 37 0 36 0;
#X connect 41 0 6 0;
#X connect 42 0 10 0;
#X connect 42 3 41 0;
#X connect 42 4 40 0;
#X connect 42 4 43 0;
#X connect 43 0 32 0;
#X connect 43 1 31 0;
#X restore 344 75 pd hwToOSC;
#N canvas 867 258 518 524 mixerBlock 0;
#X obj 28 40 inlet~;
#X obj 160 81 vsl 15 64 0 1 0 0 empty empty empty 0 -9 0 10 -262144
-1 -1 5040 1;
#X obj 159 40 loadbang;
#X text 113 40 Volume;
#X obj 30 369 dac~;
#X obj 90 281 longRecMod;
#X obj 29 281 +~;
#X obj 147 252 r toLongRec;
#X obj 247 377 s dispOSCMsg;
#X text 247 329 Visual;
#N canvas 625 312 641 524 longRecToOSCMsg 0;
#X obj 6 21 inlet;
#X obj 48 385 outlet;
#X obj 44 130 spigot;
#X msg 178 76 0;
#X msg 136 76 1;
#X obj 137 23 r actDisp;
#X obj 54 234 bng 15 250 50 0 empty empty empty 17 7 0 10 -262144 -1
-1;
#X obj 95 237 bng 15 250 50 0 empty empty empty 17 7 0 10 -262144 -1
-1;
#X obj 144 236 bng 15 250 50 0 empty empty empty 17 7 0 10 -262144
-1 -1;
#X obj 181 241 bng 15 250 50 0 empty empty empty 17 7 0 10 -262144
-1 -1;
#X obj 258 241 bng 15 250 50 0 empty empty empty 17 7 0 10 -262144
-1 -1;
#X obj 44 187 list trim;
#X obj 330 23 inlet;
#X obj 329 125 spigot;
#X obj 334 368 t l;
#X text 347 55 runTime;
#X text 58 47 Buttons;
#X obj 334 287 list prepend /r/play;
#X msg 106 144 /r;
#X msg 122 309 symbol /r/stop;
#X msg 71 287 symbol /r/record;
#X obj 136 53 select longRec;
#X msg 149 333 symbol /r/switch;
#X text 348 195 prepends runTime with /r/play or /r/record;
#X msg 47 264 symbol /r/play;
#X obj 45 211 route play record stop switch;
#X msg 353 228 list /r/runtime r;
#X msg 467 228 list /r/runtime p;
#X connect 0 0 2 0;
#X connect 2 0 11 0;
#X connect 3 0 2 1;
#X connect 3 0 13 1;
#X connect 4 0 2 1;
#X connect 4 0 13 1;
#X connect 4 0 18 0;
#X connect 5 0 21 0;
#X connect 11 0 25 0;
#X connect 12 0 13 0;
#X connect 13 0 17 0;
#X connect 14 0 1 0;
#X connect 17 0 14 0;
#X connect 18 0 1 0;
#X connect 19 0 1 0;
#X connect 20 0 1 0;
#X connect 21 0 4 0;
#X connect 21 1 3 0;
#X connect 22 0 1 0;
#X connect 24 0 1 0;
#X connect 25 0 6 0;
#X connect 25 0 26 0;
#X connect 25 0 24 0;
#X connect 25 1 7 0;
#X connect 25 1 20 0;
#X connect 25 1 27 0;
#X connect 25 2 8 0;
#X connect 25 2 19 0;
#X connect 25 3 9 0;
#X connect 25 3 22 0;
#X connect 25 4 10 0;
#X connect 26 0 17 1;
#X connect 27 0 17 1;
#X restore 247 349 pd longRecToOSCMsg;
#X msg 159 59 0.8;
#X obj 28 190 *~ 0.8;
#X connect 0 0 12 0;
#X connect 1 0 12 1;
#X connect 2 0 11 0;
#X connect 5 0 4 0;
#X connect 5 0 4 1;
#X connect 5 1 10 0;
#X connect 5 2 10 1;
#X connect 6 0 4 0;
#X connect 6 0 4 1;
#X connect 7 0 5 1;
#X connect 10 0 8 0;
#X connect 11 0 1 0;
#X connect 12 0 5 0;
#X connect 12 0 6 0;
#X restore 36 381 pd mixerBlock;
#X text 985 198 inputTest;
#X text 970 18 -- Dev Corner --;
#X text 333 16 -- Inputs --;
#X text 44 81 -- Main --;
#N canvas 858 415 450 300 recorderBlock 1;
#X obj 34 248 outlet~;
#X obj 32 17 inlet~;
#N canvas 230 58 1037 909 simpRec 1;
#X obj 39 31 inlet~;
#X text 46 51 audio in;
#X obj 210 30 inlet;
#X text 208 52 messages in;
#X obj 38 538 outlet~;
#X text 42 563 audio out;
#X obj 823 89 table \$0Aarray;
#X text 886 119 10secs;
#X text 440 150 playback;
#X obj 39 449 tabwrite~ \$0Aarray;
#X msg 57 254 start;
#X obj 97 212 bng 15 250 50 0 empty empty empty 17 7 0 10 -262144 -1
-1;
#X obj 168 287 delay 2400;
#X obj 393 484 tabread4~ \$0Aarray;
#X obj 525 376 hsl 128 15 0 1 0 0 empty empty empty -2 -8 0 10 -262144
-1 -1 801 1;
#X obj 522 354 unsig~ 50;
#X obj 394 421 *~ 44100;
#X msg 404 292 0;
#X obj 394 336 phasor~ 0.4;
#X obj 392 551 spigot~;
#X obj 432 532 tgl 15 0 empty empty empty 17 7 0 10 -262144 -1 -1 0
1;
#X msg 394 215 105840;
#X text 410 317 freq = samplesPerSec / totalSamples;
#X obj 439 294 t f;
#X text 454 421 total samples;
#X text 545 391 loop Progress;
#X obj 394 173 bng 15 250 50 0 empty empty empty 17 7 0 10 -262144
-1 -1;
#X obj 394 261 expr 44100 / $f1;
#X msg 524 262 0;
#X text 551 260 reset phase;
#X obj 340 267 t b;
#X obj 340 316 s aTog;
#X msg 341 292 0;
#X obj 433 509 r aTog;
#X msg 478 188 1;
#X obj 478 208 s aTog;
#X obj 419 63 s recStopSig;
#X obj 138 214 r recStopSig;
#X obj 821 117 loadbang;
#X msg 819 161 \; \$1Aarray resize 441000;
#X obj 821 138 pack \$0;
#X msg 574 -49 symbol playBut_m;
#X msg 575 -27 symbol stopBut_m;
#X msg 580 5 symbol recBut_m;
#X text 501 157 comment;
#X obj 209 644 metro;
#X text 265 664 60secs / bpm * 1000ms / 1s = lenghtOfBeat in ms;
#X obj 235 621 expr 60 / $f1 * 1000;
#X text 297 584 bpm;
#X obj 207 620 tgl 15 0 empty empty empty 17 7 0 10 -262144 -1 -1 0
1;
#X obj 136 727 *~;
#X obj 173 694 line~ 1 50;
#X obj 222 750 hsl 128 15 0 1 0 0 empty empty empty -2 -8 0 10 -262144
-1 -1 0 1;
#X obj 219 728 unsig~ 50;
#X msg 202 670 1 \, 0 50;
#X obj 185 332 s recStopSig;
#X obj 219 541 r recStopSig;
#X msg 219 570 0;
#X obj 157 542 r recSig;
#X obj 144 176 r recSig;
#X obj 356 63 s recSig;
#X msg 168 577 1;
#X obj 307 542 loadbang;
#X floatatom 166 733 5 0 0 0 - - -;
#X obj 55 508 catch~ \$0audioOut;
#X obj 389 583 throw~ \$0audioOut;
#X obj 136 792 throw~ \$0audioOut;
#X msg 262 586 100;
#X obj 133 650 osc~ 2000;
#X obj 135 761 *~ 1;
#X obj 210 135 s sigToRecDisp;
#X obj 169 453 s playAfterRec;
#X obj 307 219 s recStopSig;
#X obj 333 198 t b;
#X msg 113 250 stop;
#X text 305 178 stop record also;
#N canvas 1294 251 497 447 durationCalc 1;
#X obj -5699 -1295 unsig~ 50;
#X obj -5826 -1313 phasor~ 0.4;
#X msg -5763 -1354 0;
#X msg -5826 -1429 105840;
#X obj -5826 -1383 expr 44100 / $f1;
#X obj -5826 -1463 t b b;
#X obj -5826 -1224 outlet;
#X obj -5826 -1574 inlet;
#X obj -5770 -1256 spigot;
#X obj -5826 -1505 t b b;
#X msg -5713 -1347 1;
#X obj -5730 -1287 tgl 15 0 empty empty empty 17 7 0 10 -262144 -1
-1 0 1;
#X msg -5693 -1396 0;
#X obj -5826 -1542 route start stop reset_phase;
#X msg -5690 -1483 0;
#X connect 0 0 8 0;
#X connect 1 0 0 0;
#X connect 2 0 1 1;
#X connect 3 0 4 0;
#X connect 4 0 1 0;
#X connect 5 0 3 0;
#X connect 5 1 2 0;
#X connect 7 0 13 0;
#X connect 8 0 6 0;
#X connect 9 0 5 0;
#X connect 9 1 10 0;
#X connect 10 0 11 0;
#X connect 11 0 8 1;
#X connect 12 0 11 0;
#X connect 13 0 9 0;
#X connect 13 1 12 0;
#X connect 13 2 14 0;
#X connect 14 0 1 1;
#X restore 57 333 pd durationCalc;
#X obj 78 368 hsl 128 15 0 1 0 0 empty empty empty -2 -8 0 10 -262144
-1 -1 10431 1;
#X obj 57 412 s sigToRecDisp;
#X obj 522 444 spigot;
#X obj 522 470 s sigToRecDisp;
#X msg 625 424 1;
#X msg 666 429 0;
#X obj 217 90 r playAfterRec;
#X text 690 -36 Test Buttons;
#X msg 218 112 symbol playBut_m;
#X obj 275 -30 r playAfterRec;
#X msg 274 -5 symbol playBut_m;
#X obj 558 416 r aTog;
#X obj 357 89 t b;
#X text 385 91 stop play if recBut;
#X obj 568 548 spigot~;
#X obj 608 529 tgl 15 0 empty empty empty 17 7 0 10 -262144 -1 -1 0
1;
#X obj 566 581 throw~ \$0overDubOut;
#X obj 39 82 catch~ \$0overDubOut;
#X msg 357 110 1;
#X obj 373 129 s \$0overDubTog;
#X obj 609 506 r \$0overDubTog;
#X obj 542 209 s \$0overDubTog;
#X msg 542 188 0;
#X obj 583 173 r recStopSig;
#X msg 691 5 symbol playBut2_m;
#X msg 815 5 symbol stopBut2_m;
#X msg 816 -18 symbol eraseBut_m;
#X obj 274 22 select playBut_m stopBut_m recBut_m recStop_m playBut2_m
stopBut2_m eraseBut_m;
#X text 567 66 Clear Audio Array;
#X obj 607 352 snapshot~;
#X obj 58 176 r recPhase;
#X msg 559 109 \; \$1Aarray const 0;
#X obj 559 85 pack \$0;
#X text 65 233 start sample location;
#X connect 0 0 9 0;
#X connect 0 0 4 0;
#X connect 2 0 70 0;
#X connect 2 0 104 0;
#X connect 10 0 9 0;
#X connect 10 0 76 0;
#X connect 11 0 10 0;
#X connect 11 0 12 0;
#X connect 13 0 19 0;
#X connect 13 0 91 0;
#X connect 15 0 14 0;
#X connect 15 0 79 0;
#X connect 16 0 13 0;
#X connect 17 0 18 0;
#X connect 18 0 15 0;
#X connect 18 0 16 0;
#X connect 18 0 106 0;
#X connect 19 1 65 0;
#X connect 20 0 19 1;
#X connect 21 0 23 0;
#X connect 21 0 27 0;
#X connect 23 0 16 1;
#X connect 26 0 21 0;
#X connect 26 0 34 0;
#X connect 27 0 18 0;
#X connect 28 0 18 1;
#X connect 30 0 17 0;
#X connect 30 0 32 0;
#X connect 32 0 31 0;
#X connect 33 0 20 0;
#X connect 34 0 35 0;
#X connect 37 0 74 0;
#X connect 38 0 40 0;
#X connect 40 0 39 0;
#X connect 41 0 104 0;
#X connect 42 0 104 0;
#X connect 43 0 104 0;
#X connect 45 0 54 0;
#X connect 47 0 45 1;
#X connect 49 0 45 0;
#X connect 50 0 69 0;
#X connect 51 0 50 1;
#X connect 51 0 53 0;
#X connect 53 0 52 0;
#X connect 54 0 51 0;
#X connect 56 0 57 0;
#X connect 57 0 49 0;
#X connect 58 0 61 0;
#X connect 59 0 11 0;
#X connect 61 0 49 0;
#X connect 62 0 67 0;
#X connect 63 0 69 1;
#X connect 64 0 4 0;
#X connect 67 0 47 0;
#X connect 68 0 50 0;
#X connect 69 0 66 0;
#X connect 73 0 72 0;
#X connect 74 0 12 0;
#X connect 74 0 76 0;
#X connect 74 0 9 0;
#X connect 76 0 77 0;
#X connect 76 0 78 0;
#X connect 79 0 80 0;
#X connect 81 0 79 1;
#X connect 82 0 79 1;
#X connect 83 0 85 0;
#X connect 85 0 70 0;
#X connect 86 0 87 0;
#X connect 87 0 104 0;
#X connect 88 0 79 1;
#X connect 89 0 95 0;
#X connect 91 1 93 0;
#X connect 92 0 91 1;
#X connect 94 0 9 0;
#X connect 95 0 96 0;
#X connect 97 0 92 0;
#X connect 99 0 98 0;
#X connect 100 0 99 0;
#X connect 101 0 104 0;
#X connect 102 0 104 0;
#X connect 103 0 104 0;
#X connect 104 0 73 0;
#X connect 104 0 26 0;
#X connect 104 1 30 0;
#X connect 104 1 73 0;
#X connect 104 2 60 0;
#X connect 104 2 89 0;
#X connect 104 2 26 0;
#X connect 104 3 36 0;
#X connect 104 4 28 0;
#X connect 104 4 26 0;
#X connect 104 5 28 0;
#X connect 104 6 109 0;
#X connect 107 0 77 0;
#X connect 109 0 108 0;
#X restore 33 135 pd simpRec;
#X obj 90 59 r buttToTape;
#X text 102 159 Visual;
#X obj 81 209 s dispOSCMsg;
#X text 82 151 | |;
#N canvas 899 161 714 622 tapeToOSCMsg 0;
#X msg 207 90 0;
#X msg 165 90 1;
#X obj 166 37 r actDisp;
#X text 202 295 Inititialize Synth Disp;
#X obj 38 37 r sigToRecDisp;
#X obj 50 515 outlet;
#X msg 119 254 symbol s;
#X msg 49 254 symbol p;
#X msg 193 255 symbol r;
#X obj 49 361 symbol s;
#X obj 52 389 list append 0.75;
#X obj 165 67 select tape;
#X obj 54 159 route symbol float;
#X obj 52 209 select playBut_m stopBut_m recBut_m recStop_m;
#X obj 38 86 route symbol float;
#X obj 106 339 t b f;
#X text 148 330 Send stored symbol with every percentage received;
#X obj 53 481 spigot;
#X obj 173 125 s \$0-onOff;
#X obj 85 456 r \$0-onOff;
#X obj 53 417 list prepend /t;
#X obj 181 405 list append 0.75;
#X obj 181 385 symbol s;
#X obj 181 447 list prepend /t;
#X obj 176 295 t b;
#X obj 181 426 list prepend -1;
#X text 180 466 /t -1 state 0.75;
#X connect 0 0 18 0;
#X connect 1 0 18 0;
#X connect 1 0 24 0;
#X connect 2 0 11 0;
#X connect 4 0 14 0;
#X connect 6 0 9 0;
#X connect 7 0 9 0;
#X connect 8 0 9 0;
#X connect 9 0 10 0;
#X connect 9 0 22 1;
#X connect 10 0 20 0;
#X connect 11 0 1 0;
#X connect 11 1 0 0;
#X connect 12 0 13 0;
#X connect 13 0 7 0;
#X connect 13 1 6 0;
#X connect 13 2 8 0;
#X connect 13 3 6 0;
#X connect 14 0 12 0;
#X connect 14 1 15 0;
#X connect 15 0 9 0;
#X connect 15 1 10 1;
#X connect 15 1 21 1;
#X connect 17 0 5 0;
#X connect 19 0 17 1;
#X connect 20 0 17 0;
#X connect 21 0 25 0;
#X connect 22 0 21 0;
#X connect 23 0 17 0;
#X connect 24 0 22 0;
#X connect 25 0 23 0;
#X restore 81 182 pd tapeToOSCMsg;
#X connect 1 0 2 0;
#X connect 2 0 0 0;
#X connect 3 0 2 1;
#X connect 7 0 5 0;
#X restore 36 327 pd recorderBlock;
#N canvas 785 339 450 300 synthMesgPipe 0;
#X obj 34 91 t s b;
#X obj 104 141 symbol;
#X obj 34 175 list prepend sequen;
#X obj 34 212 s synthMesg;
#X obj 34 59 r butMsg;
#X obj 137 113 r moduleMsgSelector;
#X text 150 11 Make a list from synthMsg/butMsg;
#X text 150 30 EX: destinationModule msg;
#X connect 0 0 2 0;
#X connect 0 1 1 0;
#X connect 1 0 2 1;
#X connect 2 0 3 0;
#X connect 4 0 0 0;
#X connect 5 0 1 1;
#X restore 262 192 pd synthMesgPipe;
#N canvas 791 194 450 300 keyboardToMidi 0;
#X text 104 22 Optionally send keyboard ascii keys as midi notes;
#X obj 35 249 s interMidi;
#X obj 34 33 key;
#X floatatom 35 96 5 0 0 0 - - -;
#X obj 35 177 pack f f;
#X obj 35 121 t f b;
#X obj 34 67 spigot;
#X obj 67 26 tgl 15 0 empty empty empty 17 7 0 10 -262144 -1 -1 0 1
;
#X obj 51 151 f 127;
#X text 45 195 Ptch Vel;
#X connect 2 0 6 0;
#X connect 3 0 5 0;
#X connect 4 0 1 0;
#X connect 5 0 4 0;
#X connect 5 1 8 0;
#X connect 6 0 3 0;
#X connect 7 0 6 1;
#X connect 8 0 4 1;
#X restore 261 105 pd keyboardToMidi;
#X connect 2 0 8 0;
#X connect 3 0 1 0;
#X connect 7 0 14 0;
#X connect 8 0 6 0;
#X connect 18 0 21 0;
#X connect 19 0 18 0;
#X connect 20 0 29 0;
#X connect 21 0 20 0;
#X connect 22 0 23 0;
#X connect 29 0 24 0;
