#N canvas 489 169 1136 607 10;
#X declare -lib mrpeach;
#X declare -lib mrpeach;
#X text 149 13 Synth / Drum Selector;
#N canvas 705 274 743 607 shutdowner 0;
#X obj 123 281 bng 15 250 50 0 empty empty empty 17 7 0 10 -262144
-1 -1;
#X msg 123 311 connect localhost 44555;
#X msg 184 342 send 115 104 117 116 100 111 119 110;
#X obj 117 391 tcpsend;
#X obj 223 425 route 1;
#X obj 93 462 print connected;
#X msg 226 374 disconnect;
#X obj 57 385 print;
#X obj 122 243 spigot;
#X obj 159 221 tgl 15 0 empty empty empty 17 7 0 10 -262144 -1 -1 1
1;
#X obj 160 193 loadbang;
#X text 155 280 Sudo Halt;
#X msg 521 341 connect localhost 44555;
#X obj 515 421 tcpsend;
#X obj 621 455 route 1;
#X obj 491 492 print connected;
#X msg 624 404 disconnect;
#X obj 455 415 print;
#X msg 582 372 send 115 116 111 112;
#X obj 89 46 inlet;
#X obj 93 79 select shutdown closeSynth;
#X obj 521 309 bng 15 250 50 0 empty empty empty 17 7 0 10 -262144
-1 -1;
#X obj 520 271 spigot;
#X obj 557 249 tgl 15 0 empty empty empty 17 7 0 10 -262144 -1 -1 1
1;
#X obj 558 221 loadbang;
#X obj 118 211 bng 15 250 50 0 empty empty empty 17 7 0 10 -262144
-1 -1;
#X obj 517 246 bng 15 250 50 0 empty empty empty 17 7 0 10 -262144
-1 -1;
#X obj 13 244 s shutDownSound;
#X connect 0 0 1 0;
#X connect 1 0 3 0;
#X connect 1 0 7 0;
#X connect 2 0 3 0;
#X connect 3 0 5 0;
#X connect 3 0 4 0;
#X connect 4 0 2 0;
#X connect 6 0 3 0;
#X connect 8 0 0 0;
#X connect 9 0 8 1;
#X connect 10 0 9 0;
#X connect 12 0 13 0;
#X connect 12 0 17 0;
#X connect 13 0 15 0;
#X connect 13 0 14 0;
#X connect 14 0 18 0;
#X connect 16 0 13 0;
#X connect 18 0 13 0;
#X connect 19 0 20 0;
#X connect 20 0 25 0;
#X connect 20 1 26 0;
#X connect 21 0 12 0;
#X connect 22 0 21 0;
#X connect 23 0 22 1;
#X connect 24 0 23 0;
#X connect 25 0 8 0;
#X connect 25 0 27 0;
#X connect 26 0 22 0;
#X restore 859 122 pd shutdowner;
#X obj 712 58 r synthMessage;
#X obj 857 89 r synthMessage;
#N canvas 116 302 450 300 systemStartUp 0;
#X obj 105 -162 loadbang;
#X obj 115 -124 delay 200;
#X obj 103 -95 bng 15 250 50 0 empty empty empty 17 7 0 10 -262144
-1 -1;
#X obj 109 -28 bng 15 250 50 0 empty empty empty 17 7 0 10 -262144
-1 -1;
#X msg 27 -53 \; pd dsp 1;
#X obj 114 6 s startUpSound;
#X obj 245 4 s synthMessage;
#X msg 248 -26 symbol synth1;
#X obj 105 -62 delay 2000;
#X connect 0 0 1 0;
#X connect 1 0 2 0;
#X connect 2 0 4 0;
#X connect 2 0 8 0;
#X connect 3 0 5 0;
#X connect 7 0 6 0;
#X connect 8 0 3 0;
#X connect 8 0 7 0;
#X restore 858 50 pd systemStartUp;
#X text 727 33 System State;
#X obj 712 115 s dispOSCMsg;
#X obj 747 494 r dispOSCMsg;
#N canvas 1001 188 641 431 synthStateToGOSC 0;
#X obj 42 72 inlet;
#X obj 275 60 print unkn MSG;
#X obj 43 189 outlet;
#X text 39 42 in: synthMessage;
#X msg 537 148 /disp 2;
#X msg 409 147 /disp 1;
#X msg 469 148 /disp 0;
#X obj 408 118 select synth1 drum1 shutdown;
#X text 422 92 old msgs;
#X msg 252 127 /x -1;
#X msg 92 128 /d -1;
#X msg 204 127 /x 0;
#X msg 315 155 /x 1;
#X text 317 136 draw synth;
#X obj 42 99 select synth1 drum1 sequen loading shutdown;
#X msg 209 199 /g -1;
#X msg 210 225 /h -1;
#X msg 43 128 /s -1;
#X msg 144 128 /q -1;
#X msg 203 267 /g 1;
#X msg 201 291 /h 1;
#X msg 294 213 /s 1;
#X msg 300 246 /s 0;
#X msg 365 172 /x 3;
#X msg 392 207 /x buts;
#X msg 135 273 /q 3;
#X connect 0 0 14 0;
#X connect 7 0 5 0;
#X connect 7 1 6 0;
#X connect 7 2 4 0;
#X connect 9 0 2 0;
#X connect 10 0 2 0;
#X connect 11 0 2 0;
#X connect 12 0 2 0;
#X connect 14 0 17 0;
#X connect 14 1 10 0;
#X connect 14 2 18 0;
#X connect 14 3 11 0;
#X connect 14 4 9 0;
#X connect 15 0 2 0;
#X connect 16 0 2 0;
#X connect 17 0 2 0;
#X connect 18 0 2 0;
#X connect 19 0 2 0;
#X connect 20 0 2 0;
#X connect 21 0 2 0;
#X connect 22 0 2 0;
#X connect 23 0 2 0;
#X connect 24 0 2 0;
#X connect 25 0 2 0;
#X restore 721 86 pd synthStateToGOSC;
#X text 778 6 -- System --;
#X text 733 463 -- Display Out --;
#N canvas 497 242 1101 300 synthMessageCreator 0;
#X msg 70 98 symbol synth1;
#X obj 70 49 ctlin 50;
#X obj 70 73 select 127;
#X obj 167 73 select 127;
#X obj 274 72 select 127;
#X obj 167 49 ctlin 51;
#X obj 274 48 ctlin 52;
#X obj 14 48 loadbang;
#X obj 470 222 s synthMessage;
#X text 475 246 send Message;
#X text 71 31 1;
#X text 168 29 2;
#X text 273 28 3;
#X text 70 15 Buttons 1-8;
#X obj 590 78 select 127;
#X obj 591 56 ctlin 8 1;
#X text 589 36 Drum Button;
#X obj 701 77 select 127;
#X obj 701 54 ctlin 5 1;
#X text 699 33 Help Button;
#X msg 589 103 symbol shutdown;
#X msg 701 101 symbol closeSynth;
#X text 727 119 closes PD;
#X text 599 121 shutsdown rPI;
#X msg 167 98 symbol drum1;
#X msg 273 98 symbol sequen;
#X obj 471 69 select 127;
#X msg 470 95 symbol sequen;
#X text 487 19 8;
#X obj 471 45 ctlin 25;
#X obj 180 220 s midiRoute;
#X obj 312 221 s actDisp;
#X obj 368 52 ctlin 26;
#X obj 368 76 select 127;
#X msg 369 98 symbol sequen;
#X text 365 25 Seq Button;
#X obj 845 83 select 127 0;
#X msg 851 109 symbol recHot;
#X msg 870 142 symbol recCold;
#X text 301 243 Active Display;
#X text 161 243 Prepend Midi Notes With symbol;
#X text 840 33 Rec Button;
#X obj 838 55 ctlin 38 1;
#X msg 952 113 symbol connectOSCDisp;
#X connect 0 0 30 0;
#X connect 0 0 31 0;
#X connect 1 0 2 0;
#X connect 2 0 0 0;
#X connect 3 0 24 0;
#X connect 4 0 25 0;
#X connect 5 0 3 0;
#X connect 6 0 4 0;
#X connect 7 0 0 0;
#X connect 14 0 20 0;
#X connect 15 0 14 0;
#X connect 17 0 21 0;
#X connect 18 0 17 0;
#X connect 20 0 8 0;
#X connect 21 0 8 0;
#X connect 24 0 30 0;
#X connect 24 0 31 0;
#X connect 26 0 27 0;
#X connect 29 0 26 0;
#X connect 32 0 33 0;
#X connect 33 0 34 0;
#X connect 34 0 8 0;
#X connect 34 0 30 0;
#X connect 34 0 31 0;
#X connect 36 0 37 0;
#X connect 36 1 38 0;
#X connect 37 0 8 0;
#X connect 38 0 8 0;
#X connect 42 0 36 0;
#X restore 151 35 pd synthMessageCreator;
#X text 26 13 -- Synthos --;
#X text 27 29 :) Daniel;
#N canvas 585 319 850 465 dispOut 0;
#X obj 24 15 inlet;
#X msg 71 179 disconnect;
#X obj 56 325 udpsend;
#X obj -27 96 loadbang;
#X obj -26 117 delay 100;
#X obj 188 292 packOSC;
#X msg 257 259 send /d;
#X msg 311 258 send /s;
#X msg 367 258 send /q;
#X msg 431 259 send /t;
#X obj 419 153 metro 250;
#X obj 419 107 tgl 15 0 empty empty empty 17 7 0 10 -262144 -1 -1 0
1;
#X obj 420 180 bng 15 250 50 0 empty empty empty 17 7 0 10 -262144
-1 -1;
#X obj 462 107 hsl 128 15 15 1000 0 0 empty empty empty -2 -8 0 10
-262144 -1 -1 0 1;
#X floatatom 527 135 5 0 0 0 - - -;
#X msg 271 298 /d;
#X msg 340 297 /s;
#X obj 535 78 import mrpeach;
#X obj 260 180 prepend send;
#X msg 250 101 /print butts;
#X msg 57 143 connect 127.0.0.1 57121;
#X obj 208 210 print recc;
#X obj 24 62 route connectOSCDisp;
#X msg 403 226 send /q p 1 420;
#X connect 0 0 22 0;
#X connect 1 0 2 0;
#X connect 3 0 4 0;
#X connect 4 0 20 0;
#X connect 5 0 2 0;
#X connect 6 0 5 0;
#X connect 7 0 5 0;
#X connect 8 0 5 0;
#X connect 9 0 5 0;
#X connect 10 0 12 0;
#X connect 10 0 7 0;
#X connect 11 0 10 0;
#X connect 13 0 14 0;
#X connect 13 0 10 1;
#X connect 15 0 5 0;
#X connect 16 0 5 0;
#X connect 18 0 5 0;
#X connect 19 0 18 0;
#X connect 20 0 2 0;
#X connect 22 0 20 0;
#X connect 22 1 18 0;
#X connect 23 0 5 0;
#X restore 747 521 pd dispOut;
#N canvas 602 237 735 454 nanoKontrol 0;
#X obj -74 19 ctlin;
#X floatatom -91 47 5 0 0 0 - - -;
#X floatatom -50 46 5 0 0 0 - - -;
#X floatatom 6 44 5 0 0 0 - - -;
#X msg 8 228 60;
#X msg 48 227 62;
#X msg 84 228 64;
#X msg 118 228 65;
#X text -100 394 midi out needs to be packed and in note + velocity
pairs;
#X msg 151 266 127;
#X obj -85 319 pack f f;
#X obj 4 179 select 0 1 2 3 4 5 6 7;
#X obj 46 139 - 64;
#X text 86 142 normalize;
#X obj -73 367 print yep;
#X obj -55 272 float;
#X obj -70 228 t b f;
#X obj -8 126 print;
#X text 63 43 filter only the right buttons;
#X floatatom 172 176 5 0 0 0 - - -;
#X floatatom 234 179 5 0 0 0 - - -;
#X obj 180 129 moses 0;
#X obj 55 73 expr $f1 \; if( $f1 > 63 && $f1 < 72 \, $f1 \, -1) \;
;
#X obj 434 73 bendin;
#X connect 0 0 1 0;
#X connect 0 1 2 0;
#X connect 0 2 3 0;
#X connect 4 0 15 1;
#X connect 5 0 15 1;
#X connect 6 0 15 1;
#X connect 7 0 15 1;
#X connect 10 0 14 0;
#X connect 11 0 4 0;
#X connect 11 1 5 0;
#X connect 11 2 6 0;
#X connect 11 3 7 0;
#X connect 12 0 11 0;
#X connect 15 0 10 0;
#X connect 16 0 15 0;
#X connect 16 1 10 1;
#X connect 21 0 19 0;
#X connect 21 1 20 0;
#X connect 22 1 21 0;
#X restore 1029 90 pd nanoKontrol;
#N canvas 799 358 711 463 nanoKey 0;
#X obj -49 15 ctlin;
#X floatatom -66 43 5 0 0 0 - - -;
#X floatatom -25 42 5 0 0 0 - - -;
#X floatatom 22 44 5 0 0 0 - - -;
#X text 65 20 change synths and messages;
#X obj -56 76 ctlin 64;
#X obj -56 100 select 127;
#X obj -57 144 counter;
#X obj -57 123 bng 15 250 50 0 empty empty empty 17 7 0 10 -262144
-1 -1;
#X obj -57 171 % 2;
#X floatatom -43 198 5 0 0 0 - - -;
#X obj 359 110 ctlin 1;
#X obj 386 203 bng 15 250 50 0 empty empty empty 17 7 0 10 -262144
-1 -1;
#X obj 476 208 bng 15 250 50 0 empty empty empty 17 7 0 10 -262144
-1 -1;
#X obj 376 161 select 10 127;
#X obj 126 389 s synthMessage;
#X msg -61 271 symbol synth1;
#X msg -31 300 symbol drum1;
#X obj -61 235 select 0 1;
#X msg 372 248 symbol seqToggle;
#X obj 199 113 bendin;
#X obj 193 213 bng 15 250 50 0 empty empty empty 17 7 0 10 -262144
-1 -1;
#X obj -4 374 s midiRoute;
#X text 479 229 conflict with op1 knob 1;
#X msg 75 69 symbol synth1;
#X msg 172 69 symbol drum1;
#X obj 78 373 s actDisp;
#X msg 187 237 symbol recHot;
#X obj 231 192 bng 15 250 50 0 empty empty empty 17 7 0 10 -262144
-1 -1;
#X msg 225 216 symbol recCold;
#X msg 91 204 symbol sequen;
#X obj 99 169 select 7865;
#X obj 57 193 bng 15 250 50 0 empty empty empty 17 7 0 10 -262144 -1
-1;
#X obj 185 166 select 8519 8192;
#X connect 0 0 1 0;
#X connect 0 1 2 0;
#X connect 0 2 3 0;
#X connect 5 0 6 0;
#X connect 6 0 8 0;
#X connect 7 0 9 0;
#X connect 8 0 7 0;
#X connect 9 0 10 0;
#X connect 9 0 18 0;
#X connect 11 0 14 0;
#X connect 12 0 19 0;
#X connect 14 0 12 0;
#X connect 14 1 13 0;
#X connect 16 0 22 0;
#X connect 16 0 26 0;
#X connect 17 0 22 0;
#X connect 17 0 26 0;
#X connect 18 0 16 0;
#X connect 18 1 17 0;
#X connect 19 0 15 0;
#X connect 20 0 31 0;
#X connect 20 0 33 0;
#X connect 21 0 27 0;
#X connect 27 0 15 0;
#X connect 28 0 29 0;
#X connect 29 0 15 0;
#X connect 30 0 22 0;
#X connect 30 0 26 0;
#X connect 31 0 30 0;
#X connect 31 0 32 0;
#X connect 33 0 21 0;
#X connect 33 1 28 0;
#X restore 314 39 pd nanoKey;
#X obj 374 386 print;
#X obj 413 283 t s s;
#X obj 354 292 pack s s;
#X obj 347 343 route synth1 drum1;
#X obj 342 319 route list;
#N canvas 331 297 778 520 knobsCCin 0;
#X obj -4 14 symbol s;
#X obj 11 53 pack s f f;
#X obj 83 -205 ctlin;
#X floatatom 170 -173 5 0 0 0 - - -;
#X floatatom 127 -173 5 0 0 0 - - -;
#X floatatom 84 -174 5 0 0 0 - - -;
#X obj 10 107 route list;
#X obj 9 136 route synth1 synth2 drum1;
#X obj 15 158 bng 15 250 50 0 empty empty empty 17 7 0 10 -262144 -1
-1;
#X obj 111 158 bng 15 250 50 0 empty empty empty 17 7 0 10 -262144
-1 -1;
#X obj 63 158 bng 15 250 50 0 empty empty empty 17 7 0 10 -262144 -1
-1;
#X obj 96 -125 expr $f1 \; if ($f1 > 0 && $f1 < 5 \, $f1 \, 0) \;;
#X floatatom 95 -85 5 0 0 0 - - -;
#X floatatom 260 -88 5 0 0 0 - - -;
#X obj -71 117 print;
#X obj 29 -50 &&;
#X obj 8 -17 select 1;
#X text 92 100 CC Knob Router;
#X text 194 -150 CC Knob Filterer;
#X text 148 -222 Knobs;
#X obj -76 91 spigot;
#X obj -43 65 tgl 15 0 empty empty empty 17 7 0 10 -262144 -1 -1 0
1;
#X obj 7 231 s synth1cc;
#X text -78 46 Debug CC;
#X obj -113 -87 s sequenCC;
#X obj -111 -118 list prepend;
#X obj 94 -15 r midiRoute;
#X connect 0 0 1 0;
#X connect 1 0 6 0;
#X connect 1 0 20 0;
#X connect 2 0 5 0;
#X connect 2 1 4 0;
#X connect 2 1 11 0;
#X connect 2 2 3 0;
#X connect 4 0 25 1;
#X connect 5 0 1 2;
#X connect 5 0 15 0;
#X connect 5 0 25 0;
#X connect 6 0 7 0;
#X connect 7 0 8 0;
#X connect 7 0 22 0;
#X connect 7 1 10 0;
#X connect 7 2 9 0;
#X connect 11 0 12 0;
#X connect 11 1 13 0;
#X connect 12 0 1 1;
#X connect 13 0 15 1;
#X connect 15 0 16 0;
#X connect 16 0 0 0;
#X connect 20 0 14 0;
#X connect 21 0 20 1;
#X connect 25 0 24 0;
#X connect 26 0 0 1;
#X restore 1019 42 pd knobsCCin;
#N canvas 376 486 450 333 midiPipeLine 0;
#X text 19 11 Midi Notes In;
#X obj 25 44 notein;
#X obj 94 187 symbol s;
#X obj 26 69 pack;
#X obj 28 100 stripnote;
#X obj 27 130 pack f f;
#X obj 27 232 list prepend synth1;
#X obj 27 156 t list b;
#X obj 133 147 r midiRoute;
#X obj 115 44 inlet;
#X obj 27 269 outlet;
#X text 119 13 Internal Midi input;
#X msg 138 72 list 60 127;
#X msg 228 72 list 80 127;
#X connect 1 0 3 0;
#X connect 1 1 3 1;
#X connect 2 0 6 1;
#X connect 3 0 4 0;
#X connect 4 0 5 0;
#X connect 4 1 5 1;
#X connect 5 0 7 0;
#X connect 6 0 10 0;
#X connect 7 0 6 0;
#X connect 7 1 2 0;
#X connect 8 0 2 1;
#X connect 9 0 4 0;
#X connect 12 0 4 0;
#X connect 13 0 4 0;
#X restore 30 123 pd midiPipeLine;
#X obj 30 85 r interMidi;
#N canvas 652 152 450 381 SoundBlocks 0;
#X obj 34 101 bng 15 250 50 0 empty empty empty 17 7 0 10 -262144 -1
-1;
#X obj 80 101 bng 15 250 50 0 empty empty empty 17 7 0 10 -262144 -1
-1;
#X obj 132 102 bng 15 250 50 0 empty empty empty 17 7 0 10 -262144
-1 -1;
#X text 98 20 Note Router;
#X obj 33 216 route 1 2 3 4;
#X obj 33 192 r synth1cc;
#X obj 22 246 sineEngine;
#X obj 176 136 s sequenIn;
#X obj 180 102 bng 15 250 50 0 empty empty empty 17 7 0 10 -262144
-1 -1;
#X obj 29 81 route synth1 synth2 drum1 sequen;
#X obj 30 10 inlet;
#N canvas 224 356 450 300 synthToOSCMsg 0;
#X obj -4 11 inlet;
#X obj 26 186 list prepend /s;
#X obj 29 247 outlet;
#X obj 126 43 select synth1;
#X obj 29 153 spigot;
#X msg 168 66 0;
#X msg 126 66 1;
#X obj 127 13 r actDisp;
#X msg 135 189 /s -1;
#X text 177 188 Inititialize Synth Disp;
#X connect 0 0 4 0;
#X connect 1 0 2 0;
#X connect 3 0 6 0;
#X connect 3 1 5 0;
#X connect 4 0 1 0;
#X connect 5 0 4 1;
#X connect 6 0 4 1;
#X connect 6 0 8 0;
#X connect 7 0 3 0;
#X connect 8 0 2 0;
#X restore 22 270 pd synthToOSCMsg;
#X obj 22 293 s dispOSCMsg;
#X obj 30 50 list trim;
#N canvas 1179 313 450 300 drumBlock 1;
#X obj 22 13 inlet;
#X obj 313 167 r actDisp;
#N canvas 436 170 771 424 drumToOSCMsg 0;
#X obj 35 -72 inlet;
#X obj 41 109 list prepend /d;
#X obj 46 202 outlet;
#X msg 295 16 /d 1-24;
#X msg 298 65 /d 1;
#X text 291 41 examples;
#X text 303 -7 range;
#X obj 153 58 bng 15 250 50 0 empty empty empty 17 7 0 10 -262144 -1
-1;
#X obj 147 -72 inlet;
#X obj 126 32 spigot;
#X msg 154 6 0;
#X msg 190 7 1;
#X obj 146 -35 select drum1;
#X msg 182 142 /d -1;
#X text 224 141 Init Drum Disp;
#X connect 0 0 9 0;
#X connect 1 0 2 0;
#X connect 8 0 12 0;
#X connect 9 0 7 0;
#X connect 9 0 1 0;
#X connect 10 0 9 1;
#X connect 11 0 9 1;
#X connect 11 0 13 0;
#X connect 12 0 11 0;
#X connect 12 1 10 0;
#X connect 13 0 2 0;
#X restore 226 191 pd drumToOSCMsg;
#X obj 22 98 ezDrums;
#X obj 226 231 s dispOSCMsg;
#X obj 22 232 outlet~;
#X text 30 209 Audio;
#X text 250 167 Visual;
#X connect 0 0 3 0;
#X connect 1 0 2 1;
#X connect 2 0 4 0;
#X connect 3 0 5 0;
#X connect 3 1 2 0;
#X restore 141 270 pd drumBlock;
#N canvas 990 598 450 300 mixerBlock 0;
#X obj 28 40 inlet~;
#X obj 27 227 dac~;
#X obj 28 190 *~ 0.25;
#X obj 160 81 vsl 15 64 0 1 0 0 empty empty empty 0 -9 0 10 -262144
-1 -1 1575 1;
#X obj 159 40 loadbang;
#X msg 159 59 0.25;
#X text 113 40 Volume;
#X connect 0 0 2 0;
#X connect 2 0 1 0;
#X connect 2 0 1 1;
#X connect 3 0 2 1;
#X connect 4 0 5 0;
#X connect 5 0 3 0;
#X restore 141 345 pd mixerBlock;
#X connect 4 0 6 1;
#X connect 4 1 6 2;
#X connect 4 2 6 3;
#X connect 5 0 4 0;
#X connect 6 0 11 0;
#X connect 9 0 0 0;
#X connect 9 0 6 0;
#X connect 9 1 1 0;
#X connect 9 2 2 0;
#X connect 9 2 14 0;
#X connect 9 3 7 0;
#X connect 9 3 8 0;
#X connect 10 0 13 0;
#X connect 11 0 12 0;
#X connect 13 0 9 0;
#X connect 14 0 15 0;
#X restore 28 246 pd SoundBlocks;
#N canvas 1157 261 450 625 sequencerCatch 0;
#X obj 36 38 inlet;
#X obj 108 551 outlet;
#X obj 38 81 route list;
#X obj 37 129 route sequen;
#X obj 158 122 list split 1;
#X obj 320 62 symbol s;
#X obj 253 107 list prepend synth1;
#X obj 253 31 t list b;
#X obj 359 22 r midiRoute;
#X obj 171 461 symbol synth1;
#X obj 44 432 t list b;
#X obj 44 492 list prepend synth1;
#X obj 139 255 bng 15 250 50 0 empty empty empty 17 7 0 10 -262144
-1 -1;
#X obj 39 206 r sequenCC;
#N canvas 348 59 919 812 sequenToOSCD 0;
#X obj 24 37 inlet;
#X obj 53 621 outlet;
#X obj 73 169 spigot;
#X msg 729 95 0;
#X msg 765 96 1;
#X obj 729 69 select sequen;
#X obj 728 41 inlet;
#X obj 49 489 list append 421;
#X obj 729 127 s onOff;
#X obj 86 146 r onOff;
#X obj 109 39 inlet;
#X obj 158 168 spigot;
#X obj 231 34 inlet;
#X obj 280 163 spigot;
#X obj 293 140 r onOff;
#X obj 360 32 inlet;
#X obj 409 161 spigot;
#X obj 422 138 r onOff;
#X text 26 3 step;
#X text 107 3 toggle;
#X text 188 3 write step;
#X text 336 3 step duration;
#X msg 168 239 symbol p;
#X msg 235 237 symbol i;
#X obj 53 536 list prepend /q;
#X obj 62 361 list prepend i;
#X obj 79 297 float 0;
#X text 27 -68 Make a new Packet of all values as soon as any of the
inlets gets input Example: /q state step duration /q p 12 250 p - play
i - idle r - write;
#X obj 181 360 list append 0;
#X obj 408 359 list prepend i;
#X obj 409 312 list prepend 0;
#X text 509 360 state;
#X text 509 311 step;
#X msg 306 241 symbol r;
#X text 275 358 step;
#X text 111 342 state;
#X text 127 57 state;
#X text 254 61 state;
#X text 43 61 step;
#X text 384 60 duration;
#X obj 385 402 t f;
#X obj 414 438 t f;
#X text 182 525 /q - osc sequencer address;
#X text 722 147 Spigot toggle;
#X text 723 11 active disp module selection;
#X obj 434 526 print sequn;
#X obj 171 145 r onOff;
#X obj 155 189 tgl 15 0 empty empty empty 17 7 0 10 -262144 -1 -1 0
1;
#X obj 154 211 select 1;
#X obj 186 554 r onOff;
#X obj 186 575 select 1;
#X msg 191 602 /q -1;
#X obj 28 333 print stepp;
#X obj 298 210 select 127 0;
#X obj 499 28 inlet;
#X obj 548 157 spigot;
#X obj 561 134 r onOff;
#X text 475 -1 step duration;
#X text 523 56 duration;
#X obj 235 260 s idleState;
#X obj 174 406 r idleState;
#X obj 174 428 list append 0;
#X obj 585 357 t f;
#X obj 316 282 symbol r;
#X obj 170 283 symbol p;
#X obj 279 337 list append 0;
#X obj 79 239 + 1;
#X connect 0 0 2 0;
#X connect 2 0 66 0;
#X connect 3 0 8 0;
#X connect 4 0 8 0;
#X connect 5 0 4 0;
#X connect 5 1 3 0;
#X connect 6 0 5 0;
#X connect 7 0 24 0;
#X connect 9 0 2 1;
#X connect 10 0 11 0;
#X connect 11 0 47 0;
#X connect 12 0 13 0;
#X connect 13 0 53 0;
#X connect 14 0 13 1;
#X connect 15 0 16 0;
#X connect 16 0 30 0;
#X connect 16 0 40 0;
#X connect 17 0 16 1;
#X connect 22 0 64 0;
#X connect 23 0 59 0;
#X connect 24 0 1 0;
#X connect 25 0 7 0;
#X connect 26 0 25 0;
#X connect 26 0 28 1;
#X connect 26 0 30 1;
#X connect 26 0 52 0;
#X connect 28 0 7 0;
#X connect 29 0 41 0;
#X connect 30 0 29 0;
#X connect 33 0 63 0;
#X connect 40 0 7 1;
#X connect 41 0 24 0;
#X connect 46 0 11 1;
#X connect 47 0 48 0;
#X connect 48 0 22 0;
#X connect 48 1 23 0;
#X connect 49 0 50 0;
#X connect 50 0 51 0;
#X connect 51 0 1 0;
#X connect 53 0 33 0;
#X connect 53 1 23 0;
#X connect 54 0 55 0;
#X connect 55 0 62 0;
#X connect 56 0 55 1;
#X connect 60 0 61 0;
#X connect 61 0 7 0;
#X connect 62 0 61 1;
#X connect 63 0 25 1;
#X connect 63 0 29 1;
#X connect 63 0 65 0;
#X connect 64 0 25 1;
#X connect 64 0 28 0;
#X connect 64 0 29 1;
#X connect 65 0 7 0;
#X connect 66 0 26 0;
#X restore 119 299 pd sequenToOSCD;
#X obj 119 322 s dispOSCMsg;
#X obj 132 202 r synthMessage;
#X obj 165 252 r actDisp;
#X text 114 410 midi note to last none sequencer sound engine;
#X obj 16 257 basicSequencerMod;
#X obj 159 150 pack s s;
#X obj 239 187 route synth1 drum1;
#X text 36 13 midiPipe;
#X text 132 15 midiRoute;
#X obj 159 56 r midiRoute;
#X obj 251 289 list prepend symbol;
#X obj 235 157 route list;
#X obj 251 342 list trim;
#X connect 0 0 2 0;
#X connect 2 0 3 0;
#X connect 3 0 19 0;
#X connect 3 1 1 0;
#X connect 4 0 20 1;
#X connect 4 0 20 0;
#X connect 5 0 6 1;
#X connect 7 0 6 0;
#X connect 7 1 5 0;
#X connect 8 0 5 1;
#X connect 9 0 11 1;
#X connect 10 0 11 0;
#X connect 10 1 9 0;
#X connect 11 0 1 0;
#X connect 12 0 19 2;
#X connect 13 0 19 2;
#X connect 14 0 15 0;
#X connect 16 0 19 3;
#X connect 17 0 14 5;
#X connect 19 0 10 0;
#X connect 19 1 14 0;
#X connect 19 2 14 1;
#X connect 19 3 14 2;
#X connect 19 4 14 3;
#X connect 19 5 14 4;
#X connect 20 0 26 0;
#X connect 21 0 25 0;
#X connect 21 1 25 0;
#X connect 24 0 4 0;
#X connect 25 0 27 0;
#X connect 26 0 21 0;
#X connect 27 0 9 1;
#X restore 62 188 pd sequencerCatch;
#N canvas 918 434 450 300 hwinput 1;
#X obj 37 23 import mrpeach;
#X obj 32 85 udpreceive 57122;
#X obj 32 141 unpackOSC;
#X obj 35 189 print OSCReceived;
#X connect 1 0 2 0;
#X connect 2 0 3 0;
#X restore 859 497 pd hwinput;
#X connect 2 0 8 0;
#X connect 3 0 1 0;
#X connect 7 0 14 0;
#X connect 8 0 6 0;
#X connect 18 0 19 0;
#X connect 18 1 19 1;
#X connect 19 0 21 0;
#X connect 20 0 17 0;
#X connect 20 1 17 0;
#X connect 21 0 20 0;
#X connect 23 0 26 0;
#X connect 24 0 23 0;
#X connect 26 0 25 0;
