#N canvas 17 73 1136 607 10;
#X declare -lib mrpeach;
#X declare -lib mrpeach;
#X declare -lib mrpeach;
#X text 661 53 Synth / Drum Selector;
#N canvas 606 258 743 607 shutdowner 0;
#X obj 123 281 bng 15 250 50 0 empty empty empty 17 7 0 10 -262144
-1 -1;
#X msg 123 311 connect localhost 44555;
#X msg 184 342 send 115 104 117 116 100 111 119 110;
#X obj 117 391 tcpsend;
#X obj 223 425 route 1;
#X obj 93 462 print connected;
#X msg 226 374 disconnect;
#X obj 57 385 print;
#X obj 122 243 spigot;
#X obj 159 221 tgl 15 0 empty empty empty 17 7 0 10 -262144 -1 -1 1
1;
#X obj 160 193 loadbang;
#X text 155 280 Sudo Halt;
#X msg 521 341 connect localhost 44555;
#X obj 515 421 tcpsend;
#X obj 621 455 route 1;
#X obj 491 492 print connected;
#X msg 624 404 disconnect;
#X obj 455 415 print;
#X msg 582 372 send 115 116 111 112;
#X obj 89 46 inlet;
#X obj 93 79 select shutdown closeSynth;
#X obj 521 309 bng 15 250 50 0 empty empty empty 17 7 0 10 -262144
-1 -1;
#X obj 520 271 spigot;
#X obj 557 249 tgl 15 0 empty empty empty 17 7 0 10 -262144 -1 -1 1
1;
#X obj 558 221 loadbang;
#X obj 118 211 bng 15 250 50 0 empty empty empty 17 7 0 10 -262144
-1 -1;
#X obj 517 246 bng 15 250 50 0 empty empty empty 17 7 0 10 -262144
-1 -1;
#X obj 13 244 s shutDownSound;
#X connect 0 0 1 0;
#X connect 1 0 3 0;
#X connect 1 0 7 0;
#X connect 2 0 3 0;
#X connect 3 0 5 0;
#X connect 3 0 4 0;
#X connect 4 0 2 0;
#X connect 6 0 3 0;
#X connect 8 0 0 0;
#X connect 9 0 8 1;
#X connect 10 0 9 0;
#X connect 12 0 13 0;
#X connect 12 0 17 0;
#X connect 13 0 15 0;
#X connect 13 0 14 0;
#X connect 14 0 18 0;
#X connect 16 0 13 0;
#X connect 18 0 13 0;
#X connect 19 0 20 0;
#X connect 20 0 25 0;
#X connect 20 1 26 0;
#X connect 21 0 12 0;
#X connect 22 0 21 0;
#X connect 23 0 22 1;
#X connect 24 0 23 0;
#X connect 25 0 8 0;
#X connect 25 0 27 0;
#X connect 26 0 22 0;
#X restore 815 102 pd shutdowner;
#X obj 968 114 r synthMessage;
#X obj 815 76 r synthMessage;
#N canvas 116 302 450 300 systemStartUp 0;
#X obj 105 -162 loadbang;
#X obj 115 -124 delay 200;
#X obj 103 -95 bng 15 250 50 0 empty empty empty 17 7 0 10 -262144
-1 -1;
#X obj 109 -28 bng 15 250 50 0 empty empty empty 17 7 0 10 -262144
-1 -1;
#X msg 27 -53 \; pd dsp 1;
#X obj 114 6 s startUpSound;
#X obj 245 4 s synthMessage;
#X msg 248 -26 symbol synth1;
#X obj 105 -62 delay 2000;
#X connect 0 0 1 0;
#X connect 1 0 2 0;
#X connect 2 0 4 0;
#X connect 2 0 8 0;
#X connect 3 0 5 0;
#X connect 7 0 6 0;
#X connect 8 0 3 0;
#X connect 8 0 7 0;
#X restore 968 55 pd systemStartUp;
#X text 983 89 System State;
#X obj 968 171 s dispOSCMsg;
#X obj 751 496 r dispOSCMsg;
#N canvas 1001 188 641 431 synthStateToGOSC 0;
#X obj 42 72 inlet;
#X obj 43 189 outlet;
#X text 39 42 in: synthMessage;
#X msg 537 148 /disp 2;
#X msg 409 147 /disp 1;
#X msg 469 148 /disp 0;
#X obj 408 118 select synth1 drum1 shutdown;
#X text 422 92 old msgs;
#X msg 252 127 /x -1;
#X msg 92 128 /d -1;
#X msg 204 127 /x 0;
#X msg 315 155 /x 1;
#X text 317 136 draw synth;
#X obj 42 99 select synth1 drum1 sequen loading shutdown;
#X msg 209 199 /g -1;
#X msg 210 225 /h -1;
#X msg 43 128 /s -1;
#X msg 144 128 /q -1;
#X msg 203 267 /g 1;
#X msg 201 291 /h 1;
#X msg 294 213 /s 1;
#X msg 300 246 /s 0;
#X msg 365 172 /x 3;
#X msg 392 207 /x buts;
#X msg 135 273 /q 3;
#X connect 0 0 13 0;
#X connect 6 0 4 0;
#X connect 6 1 5 0;
#X connect 6 2 3 0;
#X connect 8 0 1 0;
#X connect 9 0 1 0;
#X connect 10 0 1 0;
#X connect 11 0 1 0;
#X connect 13 0 16 0;
#X connect 13 1 9 0;
#X connect 13 2 17 0;
#X connect 13 3 10 0;
#X connect 13 4 8 0;
#X connect 14 0 1 0;
#X connect 15 0 1 0;
#X connect 16 0 1 0;
#X connect 17 0 1 0;
#X connect 18 0 1 0;
#X connect 19 0 1 0;
#X connect 20 0 1 0;
#X connect 21 0 1 0;
#X connect 22 0 1 0;
#X connect 23 0 1 0;
#X connect 24 0 1 0;
#X restore 977 142 pd synthStateToGOSC;
#X text 764 18 -- System --;
#X text 737 459 -- Display Out --;
#N canvas 290 271 1101 300 synthMessageCreator 0;
#X msg 70 98 symbol synth1;
#X obj 70 49 ctlin 50;
#X obj 70 73 select 127;
#X obj 167 73 select 127;
#X obj 274 72 select 127;
#X obj 167 49 ctlin 51;
#X obj 274 48 ctlin 52;
#X obj 14 48 loadbang;
#X obj 470 222 s synthMessage;
#X text 475 246 send Message;
#X text 71 31 1;
#X text 168 29 2;
#X text 273 28 3;
#X text 70 15 Buttons 1-8;
#X obj 590 78 select 127;
#X obj 591 56 ctlin 8 1;
#X text 589 36 Drum Button;
#X obj 701 77 select 127;
#X obj 701 54 ctlin 5 1;
#X text 699 33 Help Button;
#X msg 589 103 symbol shutdown;
#X msg 701 101 symbol closeSynth;
#X text 727 119 closes PD;
#X text 599 121 shutsdown rPI;
#X msg 167 98 symbol drum1;
#X msg 273 98 symbol sequen;
#X obj 471 69 select 127;
#X msg 470 95 symbol sequen;
#X text 487 19 8;
#X obj 471 45 ctlin 25;
#X obj 180 220 s midiRoute;
#X obj 312 221 s actDisp;
#X obj 368 52 ctlin 26;
#X obj 368 76 select 127;
#X msg 369 98 symbol sequen;
#X text 365 25 Seq Button;
#X obj 845 83 select 127 0;
#X msg 851 109 symbol recHot;
#X msg 870 142 symbol recCold;
#X text 301 243 Active Display;
#X text 161 243 Prepend Midi Notes With symbol;
#X text 840 33 Rec Button;
#X obj 838 55 ctlin 38 1;
#X msg 952 113 symbol connectOSCDisp;
#X connect 0 0 30 0;
#X connect 0 0 31 0;
#X connect 1 0 2 0;
#X connect 2 0 0 0;
#X connect 3 0 24 0;
#X connect 4 0 25 0;
#X connect 5 0 3 0;
#X connect 6 0 4 0;
#X connect 7 0 0 0;
#X connect 14 0 20 0;
#X connect 15 0 14 0;
#X connect 17 0 21 0;
#X connect 18 0 17 0;
#X connect 20 0 8 0;
#X connect 21 0 8 0;
#X connect 24 0 30 0;
#X connect 24 0 31 0;
#X connect 26 0 27 0;
#X connect 29 0 26 0;
#X connect 32 0 33 0;
#X connect 33 0 34 0;
#X connect 34 0 8 0;
#X connect 34 0 30 0;
#X connect 34 0 31 0;
#X connect 36 0 37 0;
#X connect 36 1 38 0;
#X connect 37 0 8 0;
#X connect 38 0 8 0;
#X connect 42 0 36 0;
#X restore 663 75 pd synthMessageCreator;
#X text 36 13 -- Synthos --;
#X text 43 32 :) Daniel;
#N canvas 584 318 850 465 dispOut 0;
#X obj 24 15 inlet;
#X msg 71 179 disconnect;
#X obj 56 325 udpsend;
#X obj -27 96 loadbang;
#X obj -26 117 delay 100;
#X obj 188 292 packOSC;
#X obj 535 78 import mrpeach;
#X obj 260 180 prepend send;
#X msg 57 143 connect 127.0.0.1 57121;
#X obj 24 62 route connectOSCDisp;
#X obj 221 398 print --sendingOSC--;
#X obj 225 366 spigot;
#X obj 258 343 tgl 15 0 empty empty empty 17 7 0 10 -262144 -1 -1 0
1;
#X text 288 346 turn on debug printing for OSC Messages;
#N canvas 1154 323 450 300 testOSCSignals 0;
#X obj 20 264 outlet;
#X msg 62 139 send /r playButton;
#X msg 224 59 send /test p 1;
#X msg 224 84 send /test p 2;
#X msg 226 114 send /test p 3;
#X msg 226 138 send /test p 4;
#X connect 1 0 0 0;
#X connect 2 0 0 0;
#X connect 3 0 0 0;
#X connect 4 0 0 0;
#X connect 5 0 0 0;
#X restore 368 227 pd testOSCSignals;
#X text 385 195 send custome OSC Signals out;
#X connect 0 0 9 0;
#X connect 1 0 2 0;
#X connect 3 0 4 0;
#X connect 4 0 8 0;
#X connect 5 0 2 0;
#X connect 7 0 5 0;
#X connect 7 0 11 0;
#X connect 8 0 2 0;
#X connect 9 0 8 0;
#X connect 9 1 7 0;
#X connect 11 0 10 0;
#X connect 12 0 11 1;
#X connect 14 0 5 0;
#X restore 751 523 pd dispOut;
#N canvas 601 236 735 454 nanoKontrol 0;
#X obj -74 19 ctlin;
#X floatatom -91 47 5 0 0 0 - - -;
#X floatatom -50 46 5 0 0 0 - - -;
#X floatatom 6 44 5 0 0 0 - - -;
#X msg 8 228 60;
#X msg 48 227 62;
#X msg 84 228 64;
#X msg 118 228 65;
#X text -100 394 midi out needs to be packed and in note + velocity
pairs;
#X msg 151 266 127;
#X obj -85 319 pack f f;
#X obj 4 179 select 0 1 2 3 4 5 6 7;
#X obj 46 139 - 64;
#X text 86 142 normalize;
#X obj -55 272 float;
#X obj -70 228 t b f;
#X text 63 43 filter only the right buttons;
#X floatatom 172 176 5 0 0 0 - - -;
#X floatatom 234 179 5 0 0 0 - - -;
#X obj 180 129 moses 0;
#X obj 55 73 expr $f1 \; if( $f1 > 63 && $f1 < 72 \, $f1 \, -1) \;
;
#X obj 434 73 bendin;
#X connect 0 0 1 0;
#X connect 0 1 2 0;
#X connect 0 2 3 0;
#X connect 4 0 14 1;
#X connect 5 0 14 1;
#X connect 6 0 14 1;
#X connect 7 0 14 1;
#X connect 11 0 4 0;
#X connect 11 1 5 0;
#X connect 11 2 6 0;
#X connect 11 3 7 0;
#X connect 12 0 11 0;
#X connect 14 0 10 0;
#X connect 15 0 14 0;
#X connect 15 1 10 1;
#X connect 19 0 17 0;
#X connect 19 1 18 0;
#X connect 20 1 19 0;
#X restore 971 219 pd nanoKontrol;
#N canvas 158 214 711 463 nanoKey 0;
#X obj -49 15 ctlin;
#X floatatom -66 43 5 0 0 0 - - -;
#X floatatom -25 42 5 0 0 0 - - -;
#X floatatom 22 44 5 0 0 0 - - -;
#X obj -56 76 ctlin 64;
#X obj -56 100 select 127;
#X obj -57 144 counter;
#X obj -57 123 bng 15 250 50 0 empty empty empty 17 7 0 10 -262144
-1 -1;
#X obj -57 171 % 2;
#X floatatom -43 198 5 0 0 0 - - -;
#X obj 359 110 ctlin 1;
#X obj 386 203 bng 15 250 50 0 empty empty empty 17 7 0 10 -262144
-1 -1;
#X obj 476 208 bng 15 250 50 0 empty empty empty 17 7 0 10 -262144
-1 -1;
#X obj 376 161 select 10 127;
#X obj 177 373 s synthMessage;
#X msg -61 271 symbol synth1;
#X msg -31 300 symbol drum1;
#X obj -61 235 select 0 1;
#X msg 372 248 symbol seqToggle;
#X obj 199 113 bendin;
#X obj 193 213 bng 15 250 50 0 empty empty empty 17 7 0 10 -262144
-1 -1;
#X obj -4 374 s midiRoute;
#X text 479 229 conflict with op1 knob 1;
#X msg 75 69 symbol synth1;
#X msg 172 69 symbol drum1;
#X obj 78 373 s actDisp;
#X msg 187 237 symbol recHot;
#X obj 231 192 bng 15 250 50 0 empty empty empty 17 7 0 10 -262144
-1 -1;
#X msg 225 216 symbol recCold;
#X msg 91 204 symbol sequen;
#X obj 99 169 select 7865;
#X obj 57 193 bng 15 250 50 0 empty empty empty 17 7 0 10 -262144 -1
-1;
#X obj 185 166 select 8519 8192;
#X text 66 20 change synths and messages with the buttons on the nanoKey
;
#X connect 0 0 1 0;
#X connect 0 1 2 0;
#X connect 0 2 3 0;
#X connect 4 0 5 0;
#X connect 5 0 7 0;
#X connect 6 0 8 0;
#X connect 7 0 6 0;
#X connect 8 0 9 0;
#X connect 8 0 17 0;
#X connect 10 0 13 0;
#X connect 11 0 18 0;
#X connect 13 0 11 0;
#X connect 13 1 12 0;
#X connect 15 0 21 0;
#X connect 15 0 25 0;
#X connect 16 0 21 0;
#X connect 16 0 25 0;
#X connect 17 0 15 0;
#X connect 17 1 16 0;
#X connect 18 0 14 0;
#X connect 19 0 30 0;
#X connect 19 0 32 0;
#X connect 20 0 26 0;
#X connect 26 0 14 0;
#X connect 27 0 28 0;
#X connect 28 0 14 0;
#X connect 29 0 21 0;
#X connect 29 0 25 0;
#X connect 30 0 29 0;
#X connect 30 0 31 0;
#X connect 32 0 20 0;
#X connect 32 1 27 0;
#X restore 264 50 pd nanoKey;
#N canvas 331 297 778 520 knobsCCin 0;
#X obj -4 14 symbol s;
#X obj 11 53 pack s f f;
#X obj 83 -205 ctlin;
#X floatatom 170 -173 5 0 0 0 - - -;
#X floatatom 127 -173 5 0 0 0 - - -;
#X floatatom 84 -174 5 0 0 0 - - -;
#X obj 10 107 route list;
#X obj 9 136 route synth1 synth2 drum1;
#X obj 15 158 bng 15 250 50 0 empty empty empty 17 7 0 10 -262144 -1
-1;
#X obj 111 158 bng 15 250 50 0 empty empty empty 17 7 0 10 -262144
-1 -1;
#X obj 63 158 bng 15 250 50 0 empty empty empty 17 7 0 10 -262144 -1
-1;
#X obj 96 -125 expr $f1 \; if ($f1 > 0 && $f1 < 5 \, $f1 \, 0) \;;
#X floatatom 95 -85 5 0 0 0 - - -;
#X floatatom 260 -88 5 0 0 0 - - -;
#X obj -71 117 print;
#X obj 29 -50 &&;
#X obj 8 -17 select 1;
#X text 92 100 CC Knob Router;
#X text 194 -150 CC Knob Filterer;
#X text 148 -222 Knobs;
#X obj -76 91 spigot;
#X obj -43 65 tgl 15 0 empty empty empty 17 7 0 10 -262144 -1 -1 0
1;
#X obj 7 231 s synth1cc;
#X text -78 46 Debug CC;
#X obj -113 -87 s sequenCC;
#X obj -111 -118 list prepend;
#X obj 94 -15 r midiRoute;
#X text 89 228 sends to synthBlock synth;
#X connect 0 0 1 0;
#X connect 1 0 6 0;
#X connect 1 0 20 0;
#X connect 2 0 5 0;
#X connect 2 1 4 0;
#X connect 2 1 11 0;
#X connect 2 2 3 0;
#X connect 4 0 25 1;
#X connect 5 0 1 2;
#X connect 5 0 15 0;
#X connect 5 0 25 0;
#X connect 6 0 7 0;
#X connect 7 0 8 0;
#X connect 7 0 22 0;
#X connect 7 1 10 0;
#X connect 7 2 9 0;
#X connect 11 0 12 0;
#X connect 11 1 13 0;
#X connect 12 0 1 1;
#X connect 13 0 15 1;
#X connect 15 0 16 0;
#X connect 16 0 0 0;
#X connect 20 0 14 0;
#X connect 21 0 20 1;
#X connect 25 0 24 0;
#X connect 26 0 0 1;
#X restore 423 51 pd knobsCCin;
#N canvas 408 283 450 333 midiPipeLine 0;
#X text 19 11 Midi Notes In;
#X obj 25 44 notein;
#X obj 94 187 symbol s;
#X obj 26 69 pack;
#X obj 28 100 stripnote;
#X obj 27 130 pack f f;
#X obj 27 232 list prepend synth1;
#X obj 27 156 t list b;
#X obj 133 147 r midiRoute;
#X obj 115 44 inlet;
#X obj 27 269 outlet;
#X text 119 13 Internal Midi input;
#X msg 138 72 list 60 127;
#X msg 228 72 list 80 127;
#X connect 1 0 3 0;
#X connect 1 1 3 1;
#X connect 2 0 6 1;
#X connect 3 0 4 0;
#X connect 4 0 5 0;
#X connect 4 1 5 1;
#X connect 5 0 7 0;
#X connect 6 0 10 0;
#X connect 7 0 6 0;
#X connect 7 1 2 0;
#X connect 8 0 2 1;
#X connect 9 0 4 0;
#X connect 12 0 4 0;
#X connect 13 0 4 0;
#X restore 39 154 pd midiPipeLine;
#X obj 39 116 r interMidi;
#N canvas 159 48 526 512 SoundBlocks 0;
#X obj 34 101 bng 15 250 50 0 empty empty empty 17 7 0 10 -262144 -1
-1;
#X obj 80 101 bng 15 250 50 0 empty empty empty 17 7 0 10 -262144 -1
-1;
#X obj 132 102 bng 15 250 50 0 empty empty empty 17 7 0 10 -262144
-1 -1;
#X text 98 20 Note Router;
#X obj 170 126 s sequenIn;
#X obj 180 102 bng 15 250 50 0 empty empty empty 17 7 0 10 -262144
-1 -1;
#X obj 29 81 route synth1 synth2 drum1 sequen;
#X obj 30 10 inlet;
#X obj 30 50 list trim;
#N canvas 363 347 450 300 drumBlock 0;
#X obj 22 13 inlet;
#X obj 313 167 r actDisp;
#N canvas 436 170 771 424 drumToOSCMsg 0;
#X obj 35 -72 inlet;
#X obj 41 109 list prepend /d;
#X obj 46 202 outlet;
#X msg 295 16 /d 1-24;
#X msg 298 65 /d 1;
#X text 291 41 examples;
#X text 303 -7 range;
#X obj 153 58 bng 15 250 50 0 empty empty empty 17 7 0 10 -262144 -1
-1;
#X obj 147 -72 inlet;
#X obj 126 32 spigot;
#X msg 154 6 0;
#X msg 190 7 1;
#X obj 146 -35 select drum1;
#X msg 182 142 /d -1;
#X text 224 141 Init Drum Disp;
#X connect 0 0 9 0;
#X connect 1 0 2 0;
#X connect 8 0 12 0;
#X connect 9 0 7 0;
#X connect 9 0 1 0;
#X connect 10 0 9 1;
#X connect 11 0 9 1;
#X connect 11 0 13 0;
#X connect 12 0 11 0;
#X connect 12 1 10 0;
#X connect 13 0 2 0;
#X restore 226 191 pd drumToOSCMsg;
#X obj 22 98 ezDrums;
#X obj 226 231 s dispOSCMsg;
#X obj 22 232 outlet~;
#X text 30 209 Audio;
#X text 250 167 Visual;
#X connect 0 0 3 0;
#X connect 1 0 2 1;
#X connect 2 0 4 0;
#X connect 3 0 5 0;
#X connect 3 1 2 0;
#X restore 123 240 pd drumBlock;
#X obj 28 401 outlet~;
#N canvas 954 342 450 300 synthBlock 0;
#X obj 42 31 inlet;
#X obj 53 101 route 1 2 3 4;
#X obj 53 77 r synth1cc;
#X obj 42 131 sineEngine;
#N canvas 511 311 450 300 synthToOSCMsg 0;
#X obj -4 11 inlet;
#X obj 26 186 list prepend /s;
#X obj 29 247 outlet;
#X obj 126 43 select synth1;
#X obj 29 153 spigot;
#X msg 168 66 0;
#X msg 126 66 1;
#X obj 127 13 r actDisp;
#X msg 135 189 /s -1;
#X text 177 188 Inititialize Synth Disp;
#X connect 0 0 4 0;
#X connect 1 0 2 0;
#X connect 3 0 6 0;
#X connect 3 1 5 0;
#X connect 4 0 1 0;
#X connect 5 0 4 1;
#X connect 6 0 4 1;
#X connect 6 0 8 0;
#X connect 7 0 3 0;
#X connect 8 0 2 0;
#X restore 269 225 pd synthToOSCMsg;
#X obj 269 248 s dispOSCMsg;
#X obj 43 257 outlet~;
#X text 58 233 Audio;
#X text 84 31 midiroute;
#X text 289 167 Visual;
#X obj 160 103 r toSynth1Param;
#N canvas 641 258 641 397 synthParamToOSCMsg 0;
#X obj 6 21 inlet;
#X obj 42 363 outlet;
#X obj 136 53 select synth1;
#X obj 39 163 spigot;
#X msg 178 76 0;
#X msg 136 76 1;
#X obj 137 23 r actDisp;
#X obj 54 234 bng 15 250 50 0 empty empty empty 17 7 0 10 -262144 -1
-1;
#X obj 95 237 bng 15 250 50 0 empty empty empty 17 7 0 10 -262144 -1
-1;
#X obj 159 232 bng 15 250 50 0 empty empty empty 17 7 0 10 -262144
-1 -1;
#X obj 220 231 bng 15 250 50 0 empty empty empty 17 7 0 10 -262144
-1 -1;
#X obj 282 235 bng 15 250 50 0 empty empty empty 17 7 0 10 -262144
-1 -1;
#X obj 44 187 list trim;
#X obj 44 278 list prepend /s/k1;
#X obj 53 300 list prepend /s/k2;
#X obj 75 322 list prepend /s/k3;
#X obj 101 346 list prepend /s/k4;
#X obj 282 368 print;
#X obj 256 346 t a;
#X obj 46 211 route /attack /decay /volume /modfreq;
#X obj 324 227 route /attack/param /decay/param /volume/param /modfreq/param
;
#X obj 329 260 bng 15 250 50 0 empty empty empty 17 7 0 10 -262144
-1 -1;
#X obj 403 262 bng 15 250 50 0 empty empty empty 17 7 0 10 -262144
-1 -1;
#X obj 473 262 bng 15 250 50 0 empty empty empty 17 7 0 10 -262144
-1 -1;
#X obj 540 262 bng 15 250 50 0 empty empty empty 17 7 0 10 -262144
-1 -1;
#X obj 610 261 bng 15 250 50 0 empty empty empty 17 7 0 10 -262144
-1 -1;
#X obj 269 278 list prepend /s/attack/param;
#X obj 278 300 list prepend /s/decay/param;
#X obj 300 322 list prepend /s/volume/param;
#X obj 326 346 list prepend /s/modfreq/param;
#X connect 0 0 3 0;
#X connect 2 0 5 0;
#X connect 2 1 4 0;
#X connect 3 0 12 0;
#X connect 4 0 3 1;
#X connect 5 0 3 1;
#X connect 6 0 2 0;
#X connect 12 0 19 0;
#X connect 13 0 1 0;
#X connect 14 0 1 0;
#X connect 15 0 1 0;
#X connect 16 0 1 0;
#X connect 18 0 1 0;
#X connect 18 0 17 0;
#X connect 19 0 7 0;
#X connect 19 0 13 0;
#X connect 19 1 8 0;
#X connect 19 1 14 0;
#X connect 19 2 9 0;
#X connect 19 2 15 0;
#X connect 19 3 10 0;
#X connect 19 3 16 0;
#X connect 19 4 11 0;
#X connect 19 4 20 0;
#X connect 20 0 26 0;
#X connect 20 0 21 0;
#X connect 20 1 22 0;
#X connect 20 1 27 0;
#X connect 20 2 23 0;
#X connect 20 2 28 0;
#X connect 20 3 24 0;
#X connect 20 3 29 0;
#X connect 20 4 25 0;
#X connect 26 0 18 0;
#X connect 27 0 18 0;
#X connect 28 0 18 0;
#X connect 29 0 18 0;
#X restore 254 196 pd synthParamToOSCMsg;
#X connect 0 0 3 0;
#X connect 1 0 3 1;
#X connect 1 1 3 2;
#X connect 1 2 3 3;
#X connect 2 0 1 0;
#X connect 3 0 6 0;
#X connect 3 1 4 0;
#X connect 3 2 11 0;
#X connect 4 0 5 0;
#X connect 10 0 3 4;
#X connect 11 0 5 0;
#X restore 29 239 pd synthBlock;
#X connect 6 0 0 0;
#X connect 6 0 11 0;
#X connect 6 1 1 0;
#X connect 6 2 2 0;
#X connect 6 2 9 0;
#X connect 6 3 4 0;
#X connect 6 3 5 0;
#X connect 7 0 8 0;
#X connect 8 0 6 0;
#X connect 9 0 10 0;
#X connect 11 0 10 0;
#X restore 37 277 pd SoundBlocks;
#N canvas 306 74 450 625 sequencerCatch 0;
#X obj 36 38 inlet;
#X obj 108 551 outlet;
#X obj 38 81 route list;
#X obj 37 129 route sequen;
#X obj 158 122 list split 1;
#X obj 320 62 symbol s;
#X obj 253 107 list prepend synth1;
#X obj 253 31 t list b;
#X obj 359 22 r midiRoute;
#X obj 171 461 symbol synth1;
#X obj 44 432 t list b;
#X obj 44 492 list prepend synth1;
#X obj 139 255 bng 15 250 50 0 empty empty empty 17 7 0 10 -262144
-1 -1;
#X obj 39 206 r sequenCC;
#N canvas 348 22 919 699 sequenToOSCD 0;
#X obj 24 37 inlet;
#X obj 53 621 outlet;
#X obj 73 169 spigot;
#X msg 729 95 0;
#X msg 765 96 1;
#X obj 729 69 select sequen;
#X obj 728 41 inlet;
#X obj 49 489 list append 421;
#X obj 729 127 s onOff;
#X obj 86 146 r onOff;
#X obj 109 39 inlet;
#X obj 158 168 spigot;
#X obj 231 34 inlet;
#X obj 280 163 spigot;
#X obj 293 140 r onOff;
#X obj 360 32 inlet;
#X obj 409 161 spigot;
#X obj 422 138 r onOff;
#X text 26 3 step;
#X text 107 3 toggle;
#X text 188 3 write step;
#X text 336 3 step duration;
#X msg 168 239 symbol p;
#X msg 235 237 symbol i;
#X obj 53 536 list prepend /q;
#X obj 62 361 list prepend i;
#X obj 79 297 float 0;
#X text 27 -68 Make a new Packet of all values as soon as any of the
inlets gets input Example: /q state step duration /q p 12 250 p - play
i - idle r - write;
#X obj 181 360 list append 0;
#X obj 408 359 list prepend i;
#X obj 409 312 list prepend 0;
#X text 509 360 state;
#X text 509 311 step;
#X msg 306 241 symbol r;
#X text 275 358 step;
#X text 111 342 state;
#X text 127 57 state;
#X text 254 61 state;
#X text 43 61 step;
#X text 384 60 duration;
#X obj 385 402 t f;
#X obj 414 438 t f;
#X text 182 525 /q - osc sequencer address;
#X text 722 147 Spigot toggle;
#X text 723 11 active disp module selection;
#X obj 171 145 r onOff;
#X obj 155 189 tgl 15 0 empty empty empty 17 7 0 10 -262144 -1 -1 0
1;
#X obj 154 211 select 1;
#X obj 186 554 r onOff;
#X obj 186 575 select 1;
#X msg 191 602 /q -1;
#X obj 298 210 select 127 0;
#X obj 499 28 inlet;
#X obj 548 157 spigot;
#X obj 561 134 r onOff;
#X text 475 -1 step duration;
#X text 523 56 duration;
#X obj 235 260 s idleState;
#X obj 174 406 r idleState;
#X obj 174 428 list append 0;
#X obj 585 357 t f;
#X obj 316 282 symbol r;
#X obj 170 283 symbol p;
#X obj 279 337 list append 0;
#X obj 79 239 + 1;
#X obj 714 334 spigot;
#X obj 741 311 tgl 15 0 empty empty empty 17 7 0 10 -262144 -1 -1 0
1;
#X obj 742 364 print sequencer-step--;
#X connect 0 0 2 0;
#X connect 2 0 64 0;
#X connect 3 0 8 0;
#X connect 4 0 8 0;
#X connect 5 0 4 0;
#X connect 5 1 3 0;
#X connect 6 0 5 0;
#X connect 7 0 24 0;
#X connect 9 0 2 1;
#X connect 10 0 11 0;
#X connect 11 0 46 0;
#X connect 12 0 13 0;
#X connect 13 0 51 0;
#X connect 14 0 13 1;
#X connect 15 0 16 0;
#X connect 16 0 30 0;
#X connect 16 0 40 0;
#X connect 17 0 16 1;
#X connect 22 0 62 0;
#X connect 23 0 57 0;
#X connect 24 0 1 0;
#X connect 25 0 7 0;
#X connect 26 0 25 0;
#X connect 26 0 28 1;
#X connect 26 0 30 1;
#X connect 26 0 65 0;
#X connect 28 0 7 0;
#X connect 29 0 41 0;
#X connect 30 0 29 0;
#X connect 33 0 61 0;
#X connect 40 0 7 1;
#X connect 41 0 24 0;
#X connect 45 0 11 1;
#X connect 46 0 47 0;
#X connect 47 0 22 0;
#X connect 47 1 23 0;
#X connect 48 0 49 0;
#X connect 49 0 50 0;
#X connect 50 0 1 0;
#X connect 51 0 33 0;
#X connect 51 1 23 0;
#X connect 52 0 53 0;
#X connect 53 0 60 0;
#X connect 54 0 53 1;
#X connect 58 0 59 0;
#X connect 59 0 7 0;
#X connect 60 0 59 1;
#X connect 61 0 25 1;
#X connect 61 0 29 1;
#X connect 61 0 63 0;
#X connect 62 0 25 1;
#X connect 62 0 28 0;
#X connect 62 0 29 1;
#X connect 63 0 7 0;
#X connect 64 0 26 0;
#X connect 65 0 67 0;
#X connect 66 0 65 1;
#X restore 119 299 pd sequenToOSCD;
#X obj 119 322 s dispOSCMsg;
#X obj 132 202 r synthMessage;
#X obj 165 252 r actDisp;
#X text 114 410 midi note to last none sequencer sound engine;
#X obj 16 257 basicSequencerMod;
#X obj 159 150 pack s s;
#X obj 239 187 route synth1 drum1;
#X text 36 13 midiPipe;
#X text 132 15 midiRoute;
#X obj 159 56 r midiRoute;
#X obj 251 289 list prepend symbol;
#X obj 235 157 route list;
#X obj 251 342 list trim;
#X connect 0 0 2 0;
#X connect 2 0 3 0;
#X connect 3 0 19 0;
#X connect 3 1 1 0;
#X connect 4 0 20 1;
#X connect 4 0 20 0;
#X connect 5 0 6 1;
#X connect 7 0 6 0;
#X connect 7 1 5 0;
#X connect 8 0 5 1;
#X connect 9 0 11 1;
#X connect 10 0 11 0;
#X connect 10 1 9 0;
#X connect 11 0 1 0;
#X connect 12 0 19 2;
#X connect 13 0 19 2;
#X connect 14 0 15 0;
#X connect 16 0 19 3;
#X connect 17 0 14 5;
#X connect 19 0 10 0;
#X connect 19 1 14 0;
#X connect 19 2 14 1;
#X connect 19 3 14 2;
#X connect 19 4 14 3;
#X connect 19 5 14 4;
#X connect 20 0 26 0;
#X connect 21 0 25 0;
#X connect 21 1 25 0;
#X connect 24 0 4 0;
#X connect 25 0 27 0;
#X connect 26 0 21 0;
#X connect 27 0 9 1;
#X restore 58 216 pd sequencerCatch;
#N canvas 801 103 450 300 hwinput 0;
#X obj 37 23 import mrpeach;
#X obj 32 85 udpreceive 57122;
#X obj 32 141 unpackOSC;
#X obj 29 246 outlet;
#X obj 64 187 spigot;
#X obj 99 163 tgl 15 0 empty empty empty 17 7 0 10 -262144 -1 -1 0
1;
#X text 131 162 debug osc recieved print;
#X obj 71 213 print hwOSCReceived;
#X connect 1 0 2 0;
#X connect 2 0 3 0;
#X connect 2 0 4 0;
#X connect 4 0 7 0;
#X connect 5 0 4 1;
#X restore 344 50 pd hwinput;
#N canvas 842 217 518 524 mixerBlock 0;
#X obj 28 40 inlet~;
#X obj 160 81 vsl 15 64 0 1 0 0 empty empty empty 0 -9 0 10 -262144
-1 -1 5040 1;
#X obj 159 40 loadbang;
#X text 113 40 Volume;
#X obj 30 369 dac~;
#X obj 90 281 longRecMod;
#X obj 29 281 +~;
#X obj 147 252 r toLongRec;
#X obj 247 377 s dispOSCMsg;
#X text 247 329 Visual;
#N canvas 625 312 641 524 longRecToOSCMsg 0;
#X obj 6 21 inlet;
#X obj 48 385 outlet;
#X obj 44 130 spigot;
#X msg 178 76 0;
#X msg 136 76 1;
#X obj 137 23 r actDisp;
#X obj 54 234 bng 15 250 50 0 empty empty empty 17 7 0 10 -262144 -1
-1;
#X obj 95 237 bng 15 250 50 0 empty empty empty 17 7 0 10 -262144 -1
-1;
#X obj 144 236 bng 15 250 50 0 empty empty empty 17 7 0 10 -262144
-1 -1;
#X obj 181 241 bng 15 250 50 0 empty empty empty 17 7 0 10 -262144
-1 -1;
#X obj 258 241 bng 15 250 50 0 empty empty empty 17 7 0 10 -262144
-1 -1;
#X obj 44 187 list trim;
#X obj 330 23 inlet;
#X obj 329 125 spigot;
#X obj 334 368 t l;
#X text 347 55 runTime;
#X text 58 47 Buttons;
#X obj 334 287 list prepend /r/play;
#X msg 106 144 /r;
#X msg 122 309 symbol /r/stop;
#X msg 71 287 symbol /r/record;
#X obj 136 53 select longRec;
#X msg 149 333 symbol /r/switch;
#X text 348 195 prepends runTime with /r/play or /r/record;
#X msg 47 264 symbol /r/play;
#X obj 45 211 route play record stop switch;
#X msg 353 228 list /r/runtime r;
#X msg 467 228 list /r/runtime p;
#X connect 0 0 2 0;
#X connect 2 0 11 0;
#X connect 3 0 2 1;
#X connect 3 0 13 1;
#X connect 4 0 2 1;
#X connect 4 0 13 1;
#X connect 4 0 18 0;
#X connect 5 0 21 0;
#X connect 11 0 25 0;
#X connect 12 0 13 0;
#X connect 13 0 17 0;
#X connect 14 0 1 0;
#X connect 17 0 14 0;
#X connect 18 0 1 0;
#X connect 19 0 1 0;
#X connect 20 0 1 0;
#X connect 21 0 4 0;
#X connect 21 1 3 0;
#X connect 22 0 1 0;
#X connect 24 0 1 0;
#X connect 25 0 6 0;
#X connect 25 0 26 0;
#X connect 25 0 24 0;
#X connect 25 1 7 0;
#X connect 25 1 20 0;
#X connect 25 1 27 0;
#X connect 25 2 8 0;
#X connect 25 2 19 0;
#X connect 25 3 9 0;
#X connect 25 3 22 0;
#X connect 25 4 10 0;
#X connect 26 0 17 1;
#X connect 27 0 17 1;
#X restore 247 349 pd longRecToOSCMsg;
#X msg 159 59 0.8;
#X obj 28 190 *~ 0.8;
#X connect 0 0 12 0;
#X connect 1 0 12 1;
#X connect 2 0 11 0;
#X connect 5 0 4 0;
#X connect 5 0 4 1;
#X connect 5 1 10 0;
#X connect 5 2 10 1;
#X connect 6 0 4 0;
#X connect 6 0 4 1;
#X connect 7 0 5 1;
#X connect 10 0 8 0;
#X connect 11 0 1 0;
#X connect 12 0 5 0;
#X connect 12 0 6 0;
#X restore 36 381 pd mixerBlock;
#X text 985 198 inputTest;
#X text 970 18 -- Dev Corner --;
#X text 333 16 -- Inputs --;
#X text 44 81 -- Main --;
#N canvas 782 344 450 300 synthMesgPipe 0;
#X obj 34 91 t s b;
#X obj 104 141 symbol;
#X obj 34 175 list prepend sequen;
#X obj 34 212 s synthMesg;
#X obj 34 59 r butMsg;
#X obj 137 113 r moduleMsgSelector;
#X text 150 11 Make a list from synthMsg/butMsg;
#X text 150 30 EX: destinationModule msg;
#X connect 0 0 2 0;
#X connect 0 1 1 0;
#X connect 1 0 2 1;
#X connect 2 0 3 0;
#X connect 4 0 0 0;
#X connect 5 0 1 1;
#X restore 262 192 pd synthMesgPipe;
#N canvas 146 254 450 300 keyboardToMidi 0;
#X text 104 22 Optionally send keyboard ascii keys as midi notes;
#X obj 35 249 s interMidi;
#X obj 34 33 key;
#X floatatom 35 96 5 0 0 0 - - -;
#X obj 35 177 pack f f;
#X obj 35 121 t f b;
#X obj 34 67 spigot;
#X obj 67 26 tgl 15 0 empty empty empty 17 7 0 10 -262144 -1 -1 1 1
;
#X obj 51 151 f 127;
#X text 45 195 Ptch Vel;
#X connect 2 0 6 0;
#X connect 3 0 5 0;
#X connect 4 0 1 0;
#X connect 5 0 4 0;
#X connect 5 1 8 0;
#X connect 6 0 3 0;
#X connect 7 0 6 1;
#X connect 8 0 4 1;
#X restore 524 533 pd keyboardToMidi;
#N canvas 186 197 450 300 oscInput 0;
#X obj 41 20 import mrpeach;
#X obj 38 86 udpreceive 57123;
#X obj 38 123 unpackOSC;
#X obj 38 201 outlet;
#X obj 90 155 spigot;
#X obj 123 124 tgl 15 0 empty empty empty 17 7 0 10 -262144 -1 -1 0
1;
#X text 157 130 debug osc recieved print;
#X obj 97 181 print noteOSCReceived;
#X text 231 25 OSC messages that are for playing notes on the synths
and drums and possibly control changes too.;
#X connect 1 0 2 0;
#X connect 2 0 3 0;
#X connect 2 0 4 0;
#X connect 4 0 7 0;
#X connect 5 0 4 1;
#X restore 424 79 pd oscInput;
#N canvas 792 368 450 300 oscToNotes 0;
#X obj 24 20 inlet;
#X obj 24 120 pack f 127;
#X obj 24 176 s interMidi;
#X text 169 22 Sends notes out to the midiPipeLine;
#X obj 69 158 print sending-note-to-interMidi;
#X obj 24 68 routeOSC /playNote;
#X connect 0 0 5 0;
#X connect 1 0 2 0;
#X connect 1 0 4 0;
#X connect 5 0 1 0;
#X restore 424 103 pd oscToNotes;
#N canvas 286 362 450 300 audioLooperBlock 0;
#X obj 34 248 outlet~;
#X obj 32 17 inlet~;
#N canvas 208 92 1037 686 simpRec 0;
#X obj 39 31 inlet~;
#X text 46 51 audio in;
#X obj 210 30 inlet;
#X text 208 52 messages in;
#X obj 38 538 outlet~;
#X text 42 563 audio out;
#X obj 823 89 table \$0Aarray;
#X text 886 119 10secs;
#X text 440 150 playback;
#X obj 39 449 tabwrite~ \$0Aarray;
#X msg 57 254 start;
#X obj 97 212 bng 15 250 50 0 empty empty empty 17 7 0 10 -262144 -1
-1;
#X obj 168 287 delay 2400;
#X obj 393 484 tabread4~ \$0Aarray;
#X obj 525 376 hsl 128 15 0 1 0 0 empty empty empty -2 -8 0 10 -262144
-1 -1 3684 1;
#X obj 517 355 unsig~ 50;
#X obj 394 421 *~ 44100;
#X msg 404 292 0;
#X obj 394 336 phasor~ 0.4;
#X obj 392 551 spigot~;
#X obj 432 532 tgl 15 0 empty empty empty 17 7 0 10 -262144 -1 -1 0
1;
#X msg 394 215 105840;
#X text 410 317 freq = samplesPerSec / totalSamples;
#X obj 439 294 t f;
#X text 454 421 total samples;
#X text 545 391 loop Progress;
#X obj 394 173 bng 15 250 50 0 empty empty empty 17 7 0 10 -262144
-1 -1;
#X obj 394 261 expr 44100 / $f1;
#X msg 524 262 0;
#X text 551 260 reset phase;
#X obj 340 267 t b;
#X obj 340 316 s aTog;
#X msg 341 292 0;
#X obj 433 509 r aTog;
#X msg 478 188 1;
#X obj 478 208 s aTog;
#X obj 419 63 s recStopSig;
#X obj 138 214 r recStopSig;
#X obj 821 117 loadbang;
#X msg 819 161 \; \$1Aarray resize 441000;
#X obj 821 138 pack \$0;
#X msg 574 -49 symbol playBut_m;
#X msg 575 -27 symbol stopBut_m;
#X msg 580 5 symbol recBut_m;
#X text 501 157 comment;
#X obj 209 644 metro;
#X text 265 664 60secs / bpm * 1000ms / 1s = lenghtOfBeat in ms;
#X obj 235 621 expr 60 / $f1 * 1000;
#X text 297 584 bpm;
#X obj 207 620 tgl 15 0 empty empty empty 17 7 0 10 -262144 -1 -1 0
1;
#X obj 136 727 *~;
#X obj 173 694 line~ 1 50;
#X obj 222 750 hsl 128 15 0 1 0 0 empty empty empty -2 -8 0 10 -262144
-1 -1 0 1;
#X obj 219 728 unsig~ 50;
#X msg 202 670 1 \, 0 50;
#X obj 185 332 s recStopSig;
#X obj 219 541 r recStopSig;
#X msg 219 570 0;
#X obj 157 542 r recSig;
#X obj 144 176 r recSig;
#X obj 356 63 s recSig;
#X msg 168 577 1;
#X obj 307 542 loadbang;
#X floatatom 166 733 5 0 0 0 - - -;
#X obj 55 508 catch~ \$0audioOut;
#X obj 389 583 throw~ \$0audioOut;
#X obj 136 792 throw~ \$0audioOut;
#X msg 262 586 100;
#X obj 133 650 osc~ 2000;
#X obj 135 761 *~ 1;
#X obj 210 135 s sigToRecDisp;
#X obj 169 453 s playAfterRec;
#X obj 307 219 s recStopSig;
#X obj 333 198 t b;
#X msg 113 250 stop;
#X text 305 178 stop record also;
#N canvas 863 266 497 447 durationCalc 0;
#X obj -5699 -1295 unsig~ 50;
#X obj -5826 -1313 phasor~ 0.4;
#X msg -5763 -1354 0;
#X msg -5826 -1429 105840;
#X obj -5826 -1383 expr 44100 / $f1;
#X obj -5826 -1463 t b b;
#X obj -5826 -1224 outlet;
#X obj -5826 -1574 inlet;
#X obj -5770 -1256 spigot;
#X obj -5826 -1505 t b b;
#X msg -5713 -1347 1;
#X obj -5730 -1287 tgl 15 0 empty empty empty 17 7 0 10 -262144 -1
-1 0 1;
#X msg -5693 -1396 0;
#X obj -5826 -1542 route start stop reset_phase;
#X msg -5690 -1483 0;
#X connect 0 0 8 0;
#X connect 1 0 0 0;
#X connect 2 0 1 1;
#X connect 3 0 4 0;
#X connect 4 0 1 0;
#X connect 5 0 3 0;
#X connect 5 1 2 0;
#X connect 7 0 13 0;
#X connect 8 0 6 0;
#X connect 9 0 5 0;
#X connect 9 1 10 0;
#X connect 10 0 11 0;
#X connect 11 0 8 1;
#X connect 12 0 11 0;
#X connect 13 0 9 0;
#X connect 13 1 12 0;
#X connect 13 2 14 0;
#X connect 14 0 1 1;
#X restore 57 333 pd durationCalc;
#X obj 78 368 hsl 128 15 0 1 0 0 empty empty empty -2 -8 0 10 -262144
-1 -1 0 1;
#X obj 57 412 s sigToRecDisp;
#X obj 522 444 spigot;
#X obj 522 470 s sigToRecDisp;
#X msg 625 424 1;
#X msg 666 429 0;
#X obj 217 90 r playAfterRec;
#X text 690 -36 Test Buttons;
#X msg 218 112 symbol playBut_m;
#X obj 275 -30 r playAfterRec;
#X msg 274 -5 symbol playBut_m;
#X obj 558 416 r aTog;
#X obj 357 89 t b;
#X text 385 91 stop play if recBut;
#X obj 568 548 spigot~;
#X obj 608 529 tgl 15 0 empty empty empty 17 7 0 10 -262144 -1 -1 0
1;
#X obj 566 581 throw~ \$0overDubOut;
#X obj 39 82 catch~ \$0overDubOut;
#X msg 357 110 1;
#X obj 373 129 s \$0overDubTog;
#X obj 609 506 r \$0overDubTog;
#X obj 542 209 s \$0overDubTog;
#X msg 542 188 0;
#X obj 583 173 r recStopSig;
#X msg 691 5 symbol playBut2_m;
#X msg 815 5 symbol stopBut2_m;
#X msg 816 -18 symbol eraseBut_m;
#X obj 274 22 select playBut_m stopBut_m recBut_m recStop_m playBut2_m
stopBut2_m eraseBut_m;
#X text 567 66 Clear Audio Array;
#X obj 607 352 snapshot~;
#X obj 58 176 r recPhase;
#X msg 559 109 \; \$1Aarray const 0;
#X obj 559 85 pack \$0;
#X text 65 233 start sample location;
#X obj 655 49 bng 15 250 50 0 empty empty empty 17 7 0 10 -262144 -1
-1;
#X msg 693 -50 symbol playBut2_m;
#X msg 656 275 0.5;
#X floatatom 706 390 5 0 0 0 - - -;
#X obj 761 380 moses 0.5;
#X floatatom 768 437 5 0 0 0 - - -;
#X floatatom 829 436 5 0 0 0 - - -;
#X obj 829 485 bng 15 250 50 0 empty empty empty 17 7 0 10 -262144
-1 -1;
#X msg 687 322 0.25;
#X connect 0 0 9 0;
#X connect 0 0 4 0;
#X connect 2 0 70 0;
#X connect 2 0 104 0;
#X connect 10 0 9 0;
#X connect 10 0 76 0;
#X connect 11 0 10 0;
#X connect 11 0 12 0;
#X connect 13 0 19 0;
#X connect 13 0 91 0;
#X connect 14 0 114 0;
#X connect 14 0 115 0;
#X connect 15 0 14 0;
#X connect 15 0 79 0;
#X connect 16 0 13 0;
#X connect 17 0 18 0;
#X connect 18 0 15 0;
#X connect 18 0 16 0;
#X connect 18 0 106 0;
#X connect 19 1 65 0;
#X connect 20 0 19 1;
#X connect 21 0 23 0;
#X connect 21 0 27 0;
#X connect 23 0 16 1;
#X connect 26 0 21 0;
#X connect 26 0 34 0;
#X connect 27 0 18 0;
#X connect 28 0 18 1;
#X connect 30 0 17 0;
#X connect 30 0 32 0;
#X connect 32 0 31 0;
#X connect 33 0 20 0;
#X connect 34 0 35 0;
#X connect 37 0 74 0;
#X connect 38 0 40 0;
#X connect 40 0 39 0;
#X connect 41 0 104 0;
#X connect 42 0 104 0;
#X connect 43 0 104 0;
#X connect 45 0 54 0;
#X connect 47 0 45 1;
#X connect 49 0 45 0;
#X connect 50 0 69 0;
#X connect 51 0 50 1;
#X connect 51 0 53 0;
#X connect 53 0 52 0;
#X connect 54 0 51 0;
#X connect 56 0 57 0;
#X connect 57 0 49 0;
#X connect 58 0 61 0;
#X connect 59 0 11 0;
#X connect 61 0 49 0;
#X connect 62 0 67 0;
#X connect 63 0 69 1;
#X connect 64 0 4 0;
#X connect 67 0 47 0;
#X connect 68 0 50 0;
#X connect 69 0 66 0;
#X connect 73 0 72 0;
#X connect 74 0 12 0;
#X connect 74 0 76 0;
#X connect 74 0 9 0;
#X connect 76 0 77 0;
#X connect 76 0 78 0;
#X connect 79 0 80 0;
#X connect 81 0 79 1;
#X connect 82 0 79 1;
#X connect 83 0 85 0;
#X connect 85 0 70 0;
#X connect 86 0 87 0;
#X connect 87 0 104 0;
#X connect 88 0 79 1;
#X connect 89 0 95 0;
#X connect 91 1 93 0;
#X connect 92 0 91 1;
#X connect 94 0 9 0;
#X connect 95 0 96 0;
#X connect 97 0 92 0;
#X connect 99 0 98 0;
#X connect 100 0 99 0;
#X connect 101 0 104 0;
#X connect 102 0 104 0;
#X connect 103 0 104 0;
#X connect 104 0 73 0;
#X connect 104 0 26 0;
#X connect 104 1 30 0;
#X connect 104 1 73 0;
#X connect 104 2 60 0;
#X connect 104 2 89 0;
#X connect 104 2 26 0;
#X connect 104 3 36 0;
#X connect 104 4 28 0;
#X connect 104 4 26 0;
#X connect 104 5 28 0;
#X connect 104 6 109 0;
#X connect 107 0 77 0;
#X connect 109 0 108 0;
#X connect 111 0 109 0;
#X connect 112 0 104 0;
#X connect 113 0 18 1;
#X connect 115 0 116 0;
#X connect 115 1 117 0;
#X connect 117 0 118 0;
#X connect 118 0 119 0;
#X connect 119 0 18 1;
#X restore 33 135 pd simpRec;
#X obj 132 68 r buttToTape;
#X text 102 159 Visual;
#X obj 81 209 s dispOSCMsg;
#X text 82 151 | |;
#N canvas 643 125 714 622 tapeToOSCMsg 0;
#X msg 207 90 0;
#X msg 165 90 1;
#X obj 166 37 r actDisp;
#X text 202 295 Inititialize Synth Disp;
#X obj 38 37 r sigToRecDisp;
#X obj 50 515 outlet;
#X msg 119 254 symbol s;
#X msg 49 254 symbol p;
#X msg 193 255 symbol r;
#X obj 49 361 symbol s;
#X obj 52 389 list append 0.75;
#X obj 165 67 select tape;
#X obj 54 159 route symbol float;
#X obj 52 209 select playBut_m stopBut_m recBut_m recStop_m;
#X obj 38 86 route symbol float;
#X obj 106 339 t b f;
#X text 148 330 Send stored symbol with every percentage received;
#X obj 53 481 spigot;
#X obj 173 125 s \$0-onOff;
#X obj 85 456 r \$0-onOff;
#X obj 53 417 list prepend /t;
#X obj 181 405 list append 0.75;
#X obj 181 385 symbol s;
#X obj 181 447 list prepend /t;
#X obj 176 295 t b;
#X obj 181 426 list prepend -1;
#X text 180 466 /t -1 state 0.75;
#X obj 146 508 print;
#X obj 117 7 inlet;
#X connect 0 0 18 0;
#X connect 1 0 18 0;
#X connect 1 0 24 0;
#X connect 2 0 11 0;
#X connect 4 0 14 0;
#X connect 6 0 9 0;
#X connect 7 0 9 0;
#X connect 8 0 9 0;
#X connect 9 0 10 0;
#X connect 9 0 22 1;
#X connect 10 0 20 0;
#X connect 11 0 1 0;
#X connect 11 1 0 0;
#X connect 12 0 13 0;
#X connect 13 0 7 0;
#X connect 13 1 6 0;
#X connect 13 2 8 0;
#X connect 13 3 6 0;
#X connect 14 0 12 0;
#X connect 14 1 15 0;
#X connect 15 0 9 0;
#X connect 15 1 10 1;
#X connect 15 1 21 1;
#X connect 17 0 27 0;
#X connect 17 0 5 0;
#X connect 19 0 17 1;
#X connect 20 0 17 0;
#X connect 21 0 25 0;
#X connect 22 0 21 0;
#X connect 23 0 17 0;
#X connect 24 0 22 0;
#X connect 25 0 23 0;
#X connect 28 0 14 0;
#X restore 81 182 pd tapeToOSCMsg;
#N canvas 52 49 748 645 loopRec 0;
#X obj 248 382 hsl 128 15 0 1 0 0 empty empty empty -2 -8 0 10 -262144
-1 -1 9523 1;
#X obj 248 357 hsl 128 15 0 1 0 0 empty empty empty -2 -8 0 10 -262144
-1 -1 0 1;
#X obj 249 405 hsl 128 15 0 1 0 0 empty \$0loopEnd empty -2 -8 0 10
-262144 -1 -1 12319 1;
#X obj 245 476 moses;
#X floatatom 200 429 5 0 0 0 - - -;
#X floatatom 223 520 5 0 0 0 - - -;
#X floatatom 200 356 5 0 0 0 - - -;
#X obj 270 526 s restartLoop;
#X obj 270 507 bng 15 250 50 0 empty empty empty 17 7 0 10 -262144
-1 -1;
#X text 181 373 PlayHead;
#X text 170 335 Loop Start;
#X text 183 409 Loop End;
#X obj 387 372 s loopStartPos;
#X obj 353 254 tgl 15 0 empty \$0loopToggle empty 17 7 0 10 -262144
-1 -1 1 1;
#X obj 353 291 s toggleLooping;
#X obj 245 452 spigot;
#X obj 278 431 r toggleLooping;
#X text 523 97 Audio Array;
#N canvas 657 237 450 520 playHeadRunner 0;
#X obj 40 136 expr 44100 / $f1;
#X msg 40 95 105840;
#X obj 37 408 *~;
#X obj 56 162 t f;
#X msg 146 253 0;
#X floatatom 38 270 5 0 0 0 - - -;
#X obj 121 332 float 0;
#X obj 121 288 r restartLoop;
#X msg 86 197 0;
#X obj 63 198 bng 15 250 50 0 empty empty empty 17 7 0 10 -262144 -1
-1;
#X text 48 115 freq = samplesPerSecond / totalSamples;
#X text 63 178 Play Stop;
#X obj 184 193 hsl 64 15 -2 2 0 0 empty empty empty -2 -8 0 10 -262144
-1 -1 4725 1;
#X obj 38 321 * 1;
#X obj 49 243 t b f;
#X msg 181 253 0.999;
#X text 145 232 Move PlayHead Start End;
#X obj 160 309 r loopStartPos;
#X text 184 160 Play Speed -2 to 2;
#X msg 261 176 1;
#X text 259 143 Reset Speed;
#X obj 112 458 outlet~;
#X obj 37 349 phasor~ 0.5;
#X msg 81 302 0.5;
#X obj 43 459 outlet~;
#X msg 295 176 2;
#X obj 141 85 inlet;
#X obj 186 83 inlet;
#X obj 40 67 loadbang;
#X obj 361 158 loadbang;
#X floatatom 140 208 5 0 0 0 - - -;
#X text 44 6 Generates Audio Array lookup signal in samples at 44100
per second at normal 1x speed;
#X obj 232 83 inlet;
#X msg 262 200 -1;
#X obj 286 85 inlet;
#X text 143 63 Play Stop MoveToStart PlaySpeed;
#X connect 0 0 5 0;
#X connect 1 0 0 0;
#X connect 1 0 3 0;
#X connect 2 0 24 0;
#X connect 3 0 2 1;
#X connect 4 0 22 1;
#X connect 5 0 13 0;
#X connect 6 0 22 1;
#X connect 7 0 6 0;
#X connect 8 0 22 0;
#X connect 9 0 5 0;
#X connect 12 0 30 0;
#X connect 13 0 22 0;
#X connect 14 0 5 0;
#X connect 14 1 13 1;
#X connect 15 0 22 1;
#X connect 17 0 6 1;
#X connect 19 0 12 0;
#X connect 22 0 2 0;
#X connect 22 0 21 0;
#X connect 23 0 22 0;
#X connect 25 0 12 0;
#X connect 26 0 9 0;
#X connect 27 0 8 0;
#X connect 28 0 1 0;
#X connect 29 0 19 0;
#X connect 30 0 14 0;
#X connect 32 0 4 0;
#X connect 33 0 12 0;
#X connect 34 0 12 0;
#X restore 143 293 pd playHeadRunner;
#X obj 23 50 inlet~;
#X obj 24 609 outlet~;
#X obj 524 121 table bArray;
#X obj 143 490 tabread4~ bArray;
#X obj 24 573 +~;
#X obj 143 256 bng 15 250 50 0 empty \$0pb empty 17 7 0 10 -262144
-1 -1;
#X obj 176 256 bng 15 250 50 0 empty \$0sb empty 17 7 0 10 -262144
-1 -1;
#X floatatom 201 392 5 0 0 0 - - -;
#X obj 388 397 s playHeadPos;
#N canvas 528 155 762 498 loopRecording 0;
#X obj 39 129 inlet~;
#X obj 55 204 osc~ 440;
#X obj 58 169 hsl 64 15 0 127 0 0 empty empty empty -2 -8 0 10 -262144
-1 -1 0 1;
#X obj 55 187 mtof;
#X obj 39 268 +~;
#X msg 248 374 start \$1;
#X obj 260 278 float 0;
#X msg 260 222 bang;
#X msg 104 316 bang;
#X obj 39 450 outlet~;
#X obj 418 129 inlet;
#X obj 462 129 inlet;
#X text 500 107 stop recording;
#X msg 465 374 stop;
#X text 38 43 Records incoming audio into the Audio Array. Also outputs
the incoming audio backout.;
#X msg 418 170 1;
#X msg 462 170 0;
#X obj 418 193 tgl 15 0 empty empty empty 17 7 0 10 -262144 -1 -1 0
1;
#X obj 399 242 spigot;
#X obj 311 319 r loopStartPos;
#X obj 406 357 * 105840;
#X obj 84 257 *~ 0.3;
#X obj 57 298 +~;
#X obj 56 391 tabwrite~ bArray;
#X obj 204 395 dac~;
#X obj 170 126 inlet~;
#X obj 142 268 tabread~ bArray;
#X obj 406 336 float;
#X obj 399 218 r restartLoop;
#X obj 399 263 t b b;
#X obj 195 237 unsig~ 1;
#X text 243 107 Start recording at playHead location;
#X text 78 149 Tester;
#X obj 109 187 vsl 15 64 0 1 0 0 empty empty empty 0 -9 0 10 -262144
-1 -1 0 1;
#X text 61 166 Pitch;
#X text 112 167 V o l u m e;
#X obj 754 -3;
#X connect 0 0 4 0;
#X connect 2 0 3 0;
#X connect 3 0 1 0;
#X connect 4 0 22 0;
#X connect 4 0 9 0;
#X connect 5 0 23 0;
#X connect 6 0 5 0;
#X connect 7 0 6 0;
#X connect 8 0 23 0;
#X connect 10 0 7 0;
#X connect 10 0 15 0;
#X connect 11 0 13 0;
#X connect 11 0 16 0;
#X connect 13 0 23 0;
#X connect 15 0 17 0;
#X connect 16 0 17 0;
#X connect 17 0 18 1;
#X connect 18 0 29 0;
#X connect 19 0 27 1;
#X connect 20 0 5 0;
#X connect 21 0 22 1;
#X connect 22 0 23 0;
#X connect 25 0 26 0;
#X connect 25 0 30 0;
#X connect 26 0 22 0;
#X connect 27 0 20 0;
#X connect 28 0 18 0;
#X connect 29 0 27 0;
#X connect 29 1 13 0;
#X connect 30 0 6 1;
#X connect 33 0 21 1;
#X restore 22 523 pd loopRecording;
#X obj 36 491 bng 15 250 50 0 empty empty empty 17 7 0 10 -262144 -1
-1;
#X obj 66 490 bng 15 250 50 0 empty empty empty 17 7 0 10 -262144 -1
-1;
#X text 34 464 Record Stop;
#X text 349 232 Loop Toggle;
#X obj 144 557 *~ 1;
#N canvas 544 206 611 369 arrayTools 0;
#X text 175 118 10secs;
#X obj 110 116 loadbang;
#X obj 110 137 pack \$0;
#X obj 225 116 bng 15 250 50 0 empty empty empty 17 7 0 10 -262144
-1 -1;
#X msg 108 160 \; bArray resize 441000;
#X text 110 79 On load Resizes array to 10secs;
#X obj 321 172 s bArray;
#X msg 321 145 const 0;
#X text 320 90 Clears array;
#X obj 321 121 r clearArray;
#X connect 1 0 2 0;
#X connect 2 0 4 0;
#X connect 3 0 2 0;
#X connect 7 0 6 0;
#X connect 9 0 7 0;
#X restore 524 151 pd arrayTools;
#X obj 455 253 bng 15 250 50 0 empty \$0eb empty 17 7 0 10 -262144
-1 -1;
#X obj 455 290 s clearArray;
#X text 450 232 Erase;
#X obj 103 207 bng 15 250 50 0 empty \$0rb empty 17 7 0 10 -262144
-1 -1;
#X text 91 186 RecPlay;
#X obj 209 255 bng 15 250 50 0 empty \$0eb empty 17 7 0 10 -262144
-1 -1;
#X text 173 151 ------Controls------;
#X text 180 557 hipasfilter? dc offset?;
#X obj 250 254 hsl 64 15 -2 2 0 0 empty empty empty -2 -8 0 10 -262144
-1 -1 0 1;
#X text 247 233 Play Speed;
#X msg 259 272 1;
#X msg 288 273 -1;
#X text 203 233 Start;
#X text 204 219 MoveTo;
#X text 139 235 Play Stop;
#N canvas 629 133 450 300 scope 0;
#N canvas 0 22 450 300 (subpatch) 0;
#X array scopeArray 500 float 3;
#A 0 0.0468411 0.0279877 0.0139605 0.00523143 -0.0048955 -0.0109987
-0.00963499 -0.00561094 0.00376545 0.0176492 0.0332453 0.0483008 0.0616536
0.0730629 0.0848332 0.0966724 0.110974 0.128072 0.144169 0.156798 0.16661
0.173288 0.177724 0.179625 0.178612 0.176334 0.171079 0.160502 0.144234
0.122753 0.0952507 0.0673911 0.04576 0.0256701 0.0046795 -0.0115705
-0.0234498 -0.0359453 -0.0446928 -0.0454289 -0.0344669 -0.0129427 0.0143925
0.0463853 0.0767534 0.100024 0.115867 0.126639 0.132473 0.136329 0.138099
0.137893 0.134824 0.125164 0.109957 0.0941044 0.080548 0.071156 0.0671687
0.0688691 0.0734934 0.0780199 0.0802577 0.0796594 0.0761443 0.068803
0.0577704 0.0448035 0.0314137 0.0181195 0.00635689 -0.00245482 -0.00912802
-0.0128885 -0.0141403 -0.0127849 -0.00841743 0.000193022 0.0124797
0.0263988 0.0413801 0.0546105 0.0646389 0.0701161 0.0712462 0.0704628
0.0698653 0.0696314 0.0692837 0.0698673 0.071651 0.0750623 0.0816859
0.0897396 0.0964497 0.100209 0.10172 0.100375 0.094892 0.0832088 0.0666531
0.0462614 0.0238503 0.00205731 -0.0156043 -0.0301685 -0.042463 -0.0540775
-0.0633178 -0.0650667 -0.0579416 -0.0435008 -0.0239213 -0.00230852
0.0175561 0.0349744 0.0480385 0.0589761 0.0681257 0.073245 0.0742253
0.0720532 0.0676333 0.06113 0.0534128 0.0450546 0.0363399 0.0278599
0.0207237 0.0152779 0.0109546 0.00748524 0.00479511 0.00309566 0.0013832
0.000566647 0.000404955 -0.00014563 -0.00073112 -0.00125495 -0.00240999
-0.0040554 -0.0048019 -0.00455202 -0.00362684 -0.00205563 9.316e-05
0.00206981 0.00371758 0.00504004 0.00601726 0.00681353 0.00695813 0.00732808
0.00906997 0.0124678 0.0175315 0.0232792 0.0289523 0.0333246 0.0350576
0.0343754 0.0315139 0.0271871 0.0222286 0.0172317 0.0131891 0.00980703
0.00648592 0.00344103 0.000998198 -0.00126431 -0.00388517 -0.00695027
-0.0089256 -0.00944585 -0.00838258 -0.00533725 -0.000752978 0.00508146
0.0110096 0.0160958 0.0200107 0.022916 0.0245905 0.0243862 0.0221541
0.0191032 0.0148148 0.00866882 0.00206589 -0.0048566 -0.0119443 -0.0192308
-0.0259943 -0.0307211 -0.0343937 -0.0377936 -0.0405666 -0.0423459 -0.0426458
-0.0409755 -0.0368676 -0.0303957 -0.0221197 -0.0128776 -0.00433173
0.00189251 0.00638601 0.00917818 0.0105018 0.00985317 0.00646159 -0.000469361
-0.0109005 -0.022471 -0.0347999 -0.0478515 -0.0611334 -0.074602 -0.0872278
-0.0965229 -0.103561 -0.106864 -0.104466 -0.0967195 -0.0846611 -0.0705558
-0.0564394 -0.0433734 -0.0335712 -0.0266254 -0.0227734 -0.0219306 -0.0243699
-0.0303276 -0.0382014 -0.048457 -0.0605942 -0.073639 -0.0851953 -0.0939619
-0.100363 -0.103465 -0.102389 -0.0987367 -0.0946298 -0.0918667 -0.0903587
-0.0904296 -0.0932978 -0.0970694 -0.100647 -0.104791 -0.107631 -0.108391
-0.107985 -0.106263 -0.103265 -0.0989704 -0.0936575 -0.0884002 -0.0828323
-0.0775159 -0.0722455 -0.0682329 -0.0662267 -0.0651074 -0.0660277 -0.0692199
-0.0744442 -0.0815811 -0.0897358 -0.0984164 -0.106888 -0.11439 -0.120645
-0.124759 -0.127192 -0.128384 -0.12828 -0.128064 -0.127615 -0.126689
-0.126341 -0.126187 -0.126966 -0.127494 -0.126361 -0.124196 -0.119337
-0.111968 -0.101432 -0.086332 -0.0698435 -0.0532495 -0.038058 -0.0260712
-0.0179821 -0.0130927 -0.0115989 -0.0123232 -0.0153959 -0.0207498 -0.028178
-0.0390365 -0.0519233 -0.0650372 -0.077012 -0.0882022 -0.0994606 -0.107016
-0.113112 -0.118034 -0.118031 -0.116946 -0.112833 -0.104503 -0.093627
-0.0799296 -0.0651157 -0.0511404 -0.0385307 -0.0272367 -0.0168949 -0.00867082
-0.00157397 0.00466523 0.00922948 0.0117101 0.0111629 0.00891498 0.00505207
9.98269e-06 -0.00523941 -0.0105337 -0.0150197 -0.0179093 -0.01862 -0.0173132
-0.0148307 -0.0119033 -0.0100632 -0.00970416 -0.010895 -0.0143712 -0.0209505
-0.0287125 -0.0364224 -0.0446398 -0.0528049 -0.0583572 -0.0613272 -0.06151
-0.0583114 -0.0523762 -0.0443656 -0.0347021 -0.0256054 -0.0171639 -0.00993164
-0.00517046 -0.00161986 0.00181457 0.00464878 0.0072965 0.0105932 0.0148242
0.0188807 0.0225519 0.0255009 0.0268826 0.0268023 0.0251863 0.0218479
0.0176582 0.0130237 0.00883686 0.00524329 0.000786928 -0.00342381 -0.00665583
-0.00961003 -0.0115848 -0.0116451 -0.0101643 -0.00751384 -0.00441024
-0.00140405 0.00171148 0.00390625 0.00462252 0.00424085 0.0019624 -0.00223921
-0.00830479 -0.0154971 -0.0230458 -0.0307299 -0.0384623 -0.0455546
-0.0506611 -0.0535019 -0.0535751 -0.0499756 -0.043234 -0.0335969 -0.0217676
-0.00798619 0.00592997 0.0186694 0.0294873 0.0377543 0.0426868 0.0446766
0.0447189 0.0421707 0.0364776 0.0288569 0.0199719 0.0102705 0.00104298
-0.00708121 -0.0138169 -0.0183459 -0.0209883 -0.0215477 -0.0197349
-0.017033 -0.0131362 -0.0076202 -0.00214894 0.00323965 0.00920539 0.0145827
0.0186953 0.0215364 0.0236794 0.0252891 0.026587 0.027793 0.0285422
0.0298084 0.0317704 0.0336494 0.0363415 0.0382271 0.0384762 0.0367897
0.0316316 0.0247764 0.0183289 0.011312 0.0041688 -0.0025684 -0.00829299
-0.0126785 -0.0165544 -0.0198126 -0.0222355 -0.0224041 -0.0202171 -0.016862
-0.0102673 0.000253882 0.0134011 0.0310423 0.0511737 0.0713095 0.0898186
0.104799 0.114683 0.121721 0.125431 0.125749 0.123921 0.119386 0.112091
0.103482 0.0938566 0.0822705 0.0715281 0.0617347 0.0505437 0.0393994
0.0304109 0.0220513 0.0150138 0.0116112 0.00996154 0.00968983 0.010642
0.0141327 0.0217809 0.0294361 0.0386027 0.0501863 0.0612903 0.07204
0.0831705;
#X coords 0 1 500 -1 200 140 1 0 0;
#X restore 189 45 graph;
#X obj 60 144 tabwrite~ scopeArray;
#X obj 79 60 tgl 15 0 empty empty empty 17 7 0 10 -262144 -1 -1 0 1
;
#X obj 108 109 bng 15 250 50 0 empty empty empty 17 7 0 10 -262144
-1 -1;
#X obj 34 18 inlet~;
#X obj 80 82 metro 70;
#X connect 2 0 5 0;
#X connect 4 0 1 0;
#X connect 5 0 1 0;
#X connect 5 0 3 0;
#X restore 209 596 pd scope;
#X obj 244 332 unsig~ 50;
#X text 222 571 testing;
#N canvas 456 218 752 300 buttonRouter 0;
#X msg 327 24 symbol recBut_m;
#X obj 18 8 inlet;
#X obj 19 88 s \$0pb;
#X obj 76 87 s \$0sb;
#X obj 134 84 s \$0rb;
#X obj 191 84 s \$0eb;
#X msg 438 24 symbol playBut_m;
#X msg 562 24 symbol stopBut_m;
#X obj 19 41 select playBut_m stopBut_m recBut_m eraseBut_m trick1But_m
trick2But_m;
#X obj 249 83 s \$0t1b;
#X obj 306 86 s \$0t2b;
#X connect 0 0 8 0;
#X connect 1 0 8 0;
#X connect 6 0 8 0;
#X connect 7 0 8 0;
#X connect 8 0 2 0;
#X connect 8 1 3 0;
#X connect 8 2 4 0;
#X connect 8 3 5 0;
#X connect 8 4 9 0;
#X connect 8 5 10 0;
#X restore 128 77 pd buttonRouter;
#X obj 128 48 inlet;
#X obj 63 426 r \$0pb;
#X floatatom 309 494 5 0 0 0 - - -;
#N canvas 707 453 450 300 initialValues 0;
#X obj 323 174 loadbang;
#X floatatom 318 233 5 0 0 0 - - #0loopEnd;
#X msg 320 202 0.97;
#X obj 362 233 bng 15 250 50 0 \$0loopToggle empty empty 17 7 0 10
-262144 -1 -1;
#X connect 0 0 2 0;
#X connect 2 0 1 0;
#X connect 2 0 3 0;
#X restore 614 120 pd initialValues;
#X text 620 97 Loadbang stuff;
#N canvas 456 313 450 300 tricks 0;
#X obj 46 35 r \$0t1b;
#X obj 51 68 tgl 15 0 empty empty empty 17 7 0 10 -262144 -1 -1 0 1
;
#X obj 52 96 sel 1;
#X msg 50 130 1;
#X msg 84 131 -1;
#X obj 50 226 outlet;
#X floatatom 144 189 5 0 0 0 - - -;
#X obj 202 57 metro 250;
#X obj 202 34 tgl 15 0 empty empty empty 17 7 0 10 -262144 -1 -1 0
1;
#X obj 144 83 random 100;
#X obj 144 109 / 100;
#X obj 144 137 * 4;
#X obj 144 163 - 2;
#X obj 144 32 r \$0t2b;
#X connect 0 0 1 0;
#X connect 1 0 2 0;
#X connect 2 0 3 0;
#X connect 2 1 4 0;
#X connect 3 0 5 0;
#X connect 4 0 5 0;
#X connect 6 0 5 0;
#X connect 7 0 9 0;
#X connect 8 0 7 0;
#X connect 9 0 10 0;
#X connect 10 0 11 0;
#X connect 11 0 12 0;
#X connect 12 0 6 0;
#X connect 13 0 9 0;
#X restore 266 214 pd tricks;
#X obj 429 565 outlet;
#X obj 430 538 spigot;
#X obj 461 510 tgl 15 0 empty empty empty 17 7 0 10 -262144 -1 -1 0
1;
#X obj 453 461 r \$0pb;
#X obj 529 475 r \$0sb;
#X msg 458 484 1;
#X msg 549 511 0;
#X connect 0 0 15 0;
#X connect 0 0 26 0;
#X connect 0 0 27 0;
#X connect 0 0 61 0;
#X connect 1 0 6 0;
#X connect 2 0 4 0;
#X connect 3 0 5 0;
#X connect 3 1 8 0;
#X connect 3 1 56 0;
#X connect 4 0 3 1;
#X connect 6 0 12 0;
#X connect 8 0 7 0;
#X connect 13 0 14 0;
#X connect 15 0 3 0;
#X connect 16 0 15 1;
#X connect 18 0 22 0;
#X connect 18 0 28 1;
#X connect 18 1 51 0;
#X connect 19 0 28 0;
#X connect 22 0 33 0;
#X connect 22 0 50 0;
#X connect 23 0 20 0;
#X connect 24 0 18 0;
#X connect 25 0 18 1;
#X connect 25 0 30 0;
#X connect 28 0 23 0;
#X connect 29 0 28 2;
#X connect 30 0 28 3;
#X connect 33 0 23 1;
#X connect 35 0 36 0;
#X connect 38 0 24 0;
#X connect 38 0 29 0;
#X connect 40 0 18 2;
#X connect 43 0 18 3;
#X connect 45 0 18 3;
#X connect 46 0 18 3;
#X connect 51 0 0 0;
#X connect 54 0 53 0;
#X connect 55 0 30 0;
#X connect 59 0 43 0;
#X connect 61 0 60 0;
#X connect 62 0 61 1;
#X connect 63 0 65 0;
#X connect 64 0 66 0;
#X connect 65 0 62 0;
#X connect 66 0 62 0;
#X restore 132 112 pd loopRec;
#X text 40 113 defunkt!;
#X connect 1 0 8 0;
#X connect 3 0 8 1;
#X connect 7 0 5 0;
#X connect 8 0 0 0;
#X connect 8 1 7 0;
#X restore 36 327 pd audioLooperBlock;
#N canvas 760 393 450 300 experiments 0;
#N canvas 455 168 839 541 waveSynth 0;
#X obj 444 252 pack f f f f f;
#X obj 440 68 hsl 128 15 0 1 0 0 empty empty empty -2 -8 0 10 -262144
-1 -1 0 1;
#X obj 472 128 hsl 128 15 0 1 0 0 empty empty empty -2 -8 0 10 -262144
-1 -1 0 1;
#X obj 468 150 t b f;
#X obj 518 152 hsl 128 15 0 1 0 0 empty empty empty -2 -8 0 10 -262144
-1 -1 0 1;
#X obj 514 174 t b f;
#X obj 562 175 hsl 128 15 0 1 0 0 empty empty empty -2 -8 0 10 -262144
-1 -1 0 1;
#X obj 558 197 t b f;
#X obj 605 201 hsl 128 15 0 1 0 0 empty empty empty -2 -8 0 10 -262144
-1 -1 0 1;
#X obj 601 223 t b f;
#N canvas 0 22 450 300 (subpatch) 0;
#X array exampleArray 67 float 3;
#A 0 0 0 0 0 0 0 0 0 0 0 0 0 0 0 0 0 0 0 0 0 0 0 0 0 0 0 0 0 0 0 0
0 0 0 0 0 0 0 0 0 0 0 0 0 0 0 0 0 0 0 0 0 0 0 0 0 0 0 0 0 0 0 0 0 0
0 0;
#X coords 0 1 67 -1 200 140 1;
#X restore 129 65 graph;
#X msg 443 312 \; exampleArray sinesum 64 \$1 \$2 \$3 \$4 \$5 0 0;
#X connect 0 0 11 0;
#X connect 1 0 0 0;
#X connect 2 0 3 0;
#X connect 3 0 0 0;
#X connect 3 1 0 1;
#X connect 4 0 5 0;
#X connect 5 0 0 0;
#X connect 5 1 0 2;
#X connect 6 0 7 0;
#X connect 7 0 0 0;
#X connect 7 1 0 3;
#X connect 8 0 9 0;
#X connect 9 0 0 0;
#X connect 9 1 0 4;
#X restore 89 73 pd waveSynth;
#X restore 524 507 pd experiments;
#X text 513 464 -- Experiments --;
#N canvas 1 91 1260 666 hwToOSC2 0;
#X obj 44 21 inlet;
#X obj 62 66 routeOSC /b/p;
#X text 165 65 example: /b/p/ 5 0;
#X msg 33 500 symbol synth1;
#X msg 71 525 symbol drum1;
#X obj 64 605 s midiRoute;
#X obj 71 628 s actDisp;
#X obj 71 575 t s;
#X obj 364 83 route /b/r;
#X obj 160 575 t s;
#X text 185 362 Tape;
#X text 29 391 Synth / Drum;
#X obj 161 380 r \$0buttPin;
#X obj 79 153 s \$0buttPin;
#N canvas 300 129 450 557 buttInterForTape 0;
#X obj 35 24 inlet;
#X obj 35 451 outlet;
#X text 135 199 check if button is already pressed;
#X text 149 232 if pressed record;
#X text 148 218 if not pressed open tape;
#X text 91 51 a message with button pressed pin number;
#X obj 35 215 f 0;
#X msg 80 198 1;
#X obj 35 128 t b b;
#X msg 35 421 symbol tape;
#X msg 81 170 0;
#X obj 151 453 outlet;
#X text 51 397 to actDisp;
#X msg 151 369 symbol recBut_m;
#X obj 35 273 moses 1;
#X text 144 86 6 tape button;
#X text 150 382 | | Off for now | |;
#X obj 35 87 select 14;
#X connect 0 0 17 0;
#X connect 6 0 14 0;
#X connect 7 0 6 1;
#X connect 8 0 7 0;
#X connect 8 1 6 0;
#X connect 9 0 1 0;
#X connect 10 0 6 1;
#X connect 14 0 9 0;
#X connect 14 1 13 0;
#X connect 17 0 8 0;
#X connect 17 1 10 0;
#X restore 160 409 pd buttInterForTape;
#X obj 271 575 s buttToTape;
#X msg 950 162 playBut_m;
#X msg 1027 163 stopBut_m;
#X msg 875 85 deltaBut_m;
#X obj 764 110 cnv 15 120 84 empty empty empty 20 12 0 14 -233017 -66577
0;
#X msg 762 61 instBut_m;
#X msg 800 86 tapeBut_m;
#X msg 843 61 seqBut_m;
#X obj 529 571 s buttToTape;
#X msg 529 547 symbol playBut_m;
#X msg 549 519 symbol stopBut_m;
#X text 390 615 todo - rename synthMessage to sysMessage - or rename
to seqMessage;
#X obj 63 124 t a;
#N canvas 405 97 459 517 butInterForSeq 0;
#X obj 35 24 inlet;
#X obj 35 451 outlet;
#X text 140 199 check if button is already pressed;
#X text 154 232 if pressed record;
#X text 153 218 if not pressed open tape;
#X text 103 42 a message with button pressed pin number;
#X obj 35 215 f 0;
#X msg 85 198 1;
#X obj 35 128 t b b;
#X msg 86 170 0;
#X obj 151 453 outlet;
#X text 51 397 to actDisp;
#X obj 35 273 moses 1;
#X text 106 86 sequencer button;
#X msg 35 421 symbol sequen;
#X msg 151 369 symbol seqToggle;
#X obj 35 87 select 10;
#X connect 0 0 16 0;
#X connect 6 0 12 0;
#X connect 7 0 6 1;
#X connect 8 0 7 0;
#X connect 8 1 6 0;
#X connect 9 0 6 1;
#X connect 12 0 14 0;
#X connect 12 1 15 0;
#X connect 14 0 1 0;
#X connect 15 0 10 0;
#X connect 16 0 8 0;
#X connect 16 1 9 0;
#X restore 289 410 pd butInterForSeq;
#X obj 290 380 r \$0buttPin;
#X text 301 361 Sequencer;
#X obj 388 574 s synthMessage;
#X msg 70 474 symbol longRec;
#X text 520 270 Transport Buttons For Tape;
#X text 739 35 -- Possible Button Signal Names --;
#X text 800 387 Long-Recorder;
#X text 971 389 Synth Param;
#N canvas 574 192 717 615 synthParamInter 0;
#X text 149 24 Button Presses get converted to knob selection and (-)
or (+);
#X text 283 173 attack decay amp thinggy;
#X msg 197 131 inc;
#X msg 230 133 dec;
#X floatatom 224 228 6 0 0 0 - - -;
#X obj 217 172 counter;
#X obj 223 203 % 4;
#N canvas 966 505 450 300 init 0;
#X obj 30 120 outlet;
#X msg 54 47 min 0;
#X msg 34 74 max 3;
#X obj 33 21 loadbang;
#X connect 1 0 0 0;
#X connect 2 0 0 0;
#X connect 3 0 1 0;
#X connect 3 0 2 0;
#X restore 270 133 pd init;
#X obj 226 253 select 0 1 2 3;
#X msg 228 287 symbol knob1;
#X msg 239 311 symbol knob2;
#X msg 256 329 symbol knob3;
#X msg 270 350 symbol knob4;
#X obj 169 374 symbol knob1;
#X msg 76 133 127;
#X msg 113 135 1;
#X text 75 68 knob direction <- or ->;
#X obj 85 176 t f b;
#X obj 99 432 list prepend knob1;
#X obj 51 34 r synth1Param;
#X obj 99 489 s toSynth1Param;
#X obj 382 244 list prepend /s/selectKnob;
#X obj 384 270 s dispOSCMsg;
#X obj 72 101 select 2 3;
#X obj 197 101 select 0 1;
#X text 350 69 Button order 0 1 2 3;
#X connect 2 0 5 0;
#X connect 3 0 5 0;
#X connect 4 0 8 0;
#X connect 4 0 21 0;
#X connect 5 0 6 0;
#X connect 6 0 4 0;
#X connect 7 0 5 0;
#X connect 8 0 9 0;
#X connect 8 1 10 0;
#X connect 8 2 11 0;
#X connect 8 3 12 0;
#X connect 9 0 13 1;
#X connect 10 0 13 1;
#X connect 11 0 13 1;
#X connect 12 0 13 1;
#X connect 13 0 18 1;
#X connect 14 0 17 0;
#X connect 15 0 17 0;
#X connect 17 0 18 0;
#X connect 17 1 13 0;
#X connect 18 0 20 0;
#X connect 19 0 23 0;
#X connect 21 0 22 0;
#X connect 23 0 14 0;
#X connect 23 1 15 0;
#X connect 23 2 24 0;
#X connect 24 0 2 0;
#X connect 24 1 3 0;
#X restore 954 413 pd synthParamInter;
#N canvas 370 308 450 300 longRecParamInter 0;
#X obj 52 192 s toLongRec;
#X msg 53 93 symbol play;
#X obj 53 42 r longRecParam;
#X msg 114 150 symbol switch;
#X msg 73 113 symbol record;
#X msg 93 132 symbol stop;
#X obj 53 68 sel 0 1 2 3;
#X connect 1 0 0 0;
#X connect 2 0 6 0;
#X connect 3 0 0 0;
#X connect 4 0 0 0;
#X connect 5 0 0 0;
#X connect 6 0 1 0;
#X connect 6 1 4 0;
#X connect 6 2 5 0;
#X connect 6 3 3 0;
#X restore 770 413 pd longRecParamInter;
#X text 765 115 [26] [21] [20] [ 7];
#X text 765 136 [12] [16];
#X text 766 174 [19] [13] [ 6] [ 5];
#X text 865 368 | |;
#X text 960 366 | |;
#N canvas 151 23 450 300 tapeParamInter 0;
#X obj 63 52 r tapeParam;
#X obj 62 202 s buttToTape;
#X msg 124 160 symbol eraseBut_m;
#X msg 63 103 symbol recBut_m;
#X msg 83 123 symbol trick1But_m;
#X msg 103 142 symbol trick2But_m;
#X obj 63 78 sel 0 1 2 3;
#X connect 0 0 6 0;
#X connect 2 0 1 0;
#X connect 3 0 1 0;
#X connect 4 0 1 0;
#X connect 5 0 1 0;
#X connect 6 0 3 0;
#X connect 6 1 4 0;
#X connect 6 2 5 0;
#X connect 6 3 2 0;
#X restore 580 416 pd tapeParamInter;
#X text 539 252 Global Tape Controls;
#X text 599 391 Tape Looper;
#X obj 177 103 r testButtonInput;
#X obj 75 319 select 12 13 14 15;
#X text 63 298 Drum Synth Tape Keyboard;
#N canvas 132 54 568 539 contextualRouter 0;
#X obj 26 31 inlet;
#X text 26 6 buttons;
#X obj 170 44 r actDisp;
#X text 122 9 Route Context Buttons to Active Display Module;
#X msg 318 146 symbol drum1;
#X msg 320 174 symbol sequen;
#X msg 320 230 symbol longRec;
#X msg 320 200 symbol tape;
#X obj 100 147 t f b;
#X obj 98 255 list prepend synth1;
#X obj 176 204 symbol synth1;
#X obj 321 291 s actDisp;
#X obj 98 326 route synth1 drum1 sequen tape longRec;
#X obj 99 382 s synth1Param;
#X obj 149 407 s drum1Param;
#X obj 189 381 s sequenParam;
#X obj 239 408 s tapeParam;
#X obj 287 381 s longRecParam;
#X obj 344 350 bng 15 250 50 0 empty empty empty 17 7 0 10 -262144
-1 -1;
#X obj 104 287 list trim;
#X msg 317 118 symbol synth1;
#X obj 66 364 bng 15 250 50 0 empty empty empty 17 7 0 10 -262144 -1
-1;
#X obj 257 347 bng 15 250 50 0 empty empty empty 17 7 0 10 -262144
-1 -1;
#X obj 26 93 allow 0 1 2 3 11;
#X connect 0 0 23 0;
#X connect 2 0 10 1;
#X connect 4 0 11 0;
#X connect 6 0 11 0;
#X connect 7 0 11 0;
#X connect 8 0 9 0;
#X connect 8 1 10 0;
#X connect 9 0 19 0;
#X connect 10 0 9 1;
#X connect 12 0 13 0;
#X connect 12 0 21 0;
#X connect 12 1 14 0;
#X connect 12 2 15 0;
#X connect 12 3 16 0;
#X connect 12 3 22 0;
#X connect 12 4 17 0;
#X connect 12 5 18 0;
#X connect 19 0 12 0;
#X connect 20 0 11 0;
#X connect 23 0 8 0;
#X restore 867 350 pd contextualRouter;
#X text 877 325 Buttons: 1 2 3 4;
#X obj 530 335 select 4 5 6 7 8 9;
#X text 72 270 Module Select Buttons;
#X text 526 306 Play Stop Rec Del Left Right;
#X text 876 263 Contextual Buttons;
#N canvas 123 173 450 300 buttonVisualizer 0;
#X obj 24 51 select 0 1 2 3;
#X obj 24 72 bng 15 250 50 0 empty empty empty 17 7 0 10 -262144 -1
-1;
#X obj 44 72 bng 15 250 50 0 empty empty empty 17 7 0 10 -262144 -1
-1;
#X obj 64 72 bng 15 250 50 0 empty empty empty 17 7 0 10 -262144 -1
-1;
#X obj 84 72 bng 15 250 50 0 empty empty empty 17 7 0 10 -262144 -1
-1;
#X obj 24 125 bng 15 250 50 0 empty empty empty 17 7 0 10 -262144 -1
-1;
#X obj 44 125 bng 15 250 50 0 empty empty empty 17 7 0 10 -262144 -1
-1;
#X obj 64 125 bng 15 250 50 0 empty empty empty 17 7 0 10 -262144 -1
-1;
#X obj 84 125 bng 15 250 50 0 empty empty empty 17 7 0 10 -262144 -1
-1;
#X obj 24 174 bng 15 250 50 0 empty empty empty 17 7 0 10 -262144 -1
-1;
#X obj 44 174 bng 15 250 50 0 empty empty empty 17 7 0 10 -262144 -1
-1;
#X obj 64 174 bng 15 250 50 0 empty empty empty 17 7 0 10 -262144 -1
-1;
#X obj 84 174 bng 15 250 50 0 empty empty empty 17 7 0 10 -262144 -1
-1;
#X obj 24 224 bng 15 250 50 0 empty empty empty 17 7 0 10 -262144 -1
-1;
#X obj 44 224 bng 15 250 50 0 empty empty empty 17 7 0 10 -262144 -1
-1;
#X obj 64 224 bng 15 250 50 0 empty empty empty 17 7 0 10 -262144 -1
-1;
#X obj 84 224 bng 15 250 50 0 empty empty empty 17 7 0 10 -262144 -1
-1;
#X obj 24 11 r testButtonInput;
#X obj 24 104 select 4 5 6 7;
#X obj 24 153 select 8 9 10 11;
#X obj 24 203 select 12 13 14 15;
#X text 177 12 Used to check incoming OSC signal for button location
;
#X connect 0 0 1 0;
#X connect 0 1 2 0;
#X connect 0 2 3 0;
#X connect 0 3 4 0;
#X connect 0 4 18 0;
#X connect 17 0 0 0;
#X connect 18 0 5 0;
#X connect 18 1 6 0;
#X connect 18 2 7 0;
#X connect 18 3 8 0;
#X connect 18 4 19 0;
#X connect 19 0 9 0;
#X connect 19 1 10 0;
#X connect 19 2 11 0;
#X connect 19 3 12 0;
#X connect 19 4 20 0;
#X connect 20 0 13 0;
#X connect 20 1 14 0;
#X connect 20 2 15 0;
#X connect 20 3 16 0;
#X restore 213 167 pd buttonVisualizer;
#X msg 580 449 symbol eraseBut_m;
#X msg 703 452 symbol trick1But_m;
#X msg 723 471 symbol trick2But_m;
#X msg 564 486 symbol recBut_m;
#N canvas 532 155 452 426 seqParamInter 0;
#X obj 30 13 r sequenParam;
#X obj 262 298 moses 1;
#X text 333 111 sequencer button;
#X text 248 136 Delta Button;
#X text 165 28 Toggle Seq Record Mode;
#X obj 255 390 s synthMessage;
#X msg 311 323 symbol recCold;
#X msg 240 345 symbol recHot;
#X obj 15 392 s buttToSequen;
#X msg 12 97 symbol rootUp_m;
#X msg 3 127 symbol rootDown_m;
#X msg 23 158 symbol speedUp_m;
#X msg 19 191 symbol speedDown_m;
#X msg 27 222 symbol skipNote_m;
#X obj 255 169 tgl 15 0 empty empty empty 17 7 0 10 -262144 -1 -1 0
1;
#X obj 33 65 select 0 1 2 3 8 9 11;
#X connect 0 0 15 0;
#X connect 1 0 7 0;
#X connect 1 1 6 0;
#X connect 6 0 5 0;
#X connect 7 0 5 0;
#X connect 9 0 8 0;
#X connect 10 0 8 0;
#X connect 11 0 8 0;
#X connect 12 0 8 0;
#X connect 13 0 8 0;
#X connect 14 0 1 0;
#X connect 15 0 9 0;
#X connect 15 1 10 0;
#X connect 15 2 11 0;
#X connect 15 3 12 0;
#X connect 15 5 13 0;
#X connect 15 6 14 0;
#X restore 962 463 pd seqParamInter;
#X obj 299 464 bng 15 250 50 0 empty empty empty 17 7 0 10 -262144
-1 -1;
#X connect 0 0 1 0;
#X connect 1 0 27 0;
#X connect 1 1 8 0;
#X connect 3 0 7 0;
#X connect 4 0 7 0;
#X connect 7 0 5 0;
#X connect 7 0 6 0;
#X connect 9 0 6 0;
#X connect 12 0 14 0;
#X connect 14 0 9 0;
#X connect 14 1 15 0;
#X connect 24 0 23 0;
#X connect 25 0 23 0;
#X connect 27 0 13 0;
#X connect 27 0 48 0;
#X connect 28 0 9 0;
#X connect 28 0 5 0;
#X connect 28 0 62 0;
#X connect 28 1 31 0;
#X connect 29 0 28 0;
#X connect 32 0 6 0;
#X connect 47 0 27 0;
#X connect 48 0 4 0;
#X connect 48 1 3 0;
#X connect 48 3 32 0;
#X connect 48 4 52 0;
#X connect 52 0 24 0;
#X connect 52 1 25 0;
#X connect 52 2 60 0;
#X connect 52 3 57 0;
#X connect 52 6 50 0;
#X connect 57 0 23 0;
#X connect 60 0 23 0;
#X restore 344 78 pd hwToOSC2;
#X text 974 462 -- Obsoleet --;
#N canvas 614 64 672 598 testButtonsMCP 1;
#X obj 270 21 tgl 15 0 empty empty empty 17 7 0 10 -262144 -1 -1 0
1;
#X obj 236 78 bng 15 250 50 0 empty empty empty 17 7 0 10 -262144 -1
-1;
#X obj 235 51 metro 500;
#X obj 463 335 s interMidi;
#X text 51 73 top 4 buttons;
#X msg 357 100 list 60 127;
#X msg 447 100 list 80 127;
#X msg 358 128 list 67 127;
#X text 411 69 Key Notes;
#X text 33 122 play Record Stop Switch - Long Rec;
#X text 146 175 Global Tape;
#X text 120 331 Drum;
#X text 34 138 Record <Trk> Speed Erase - Tape;
#X obj 29 403 s testButtonInput;
#X obj 29 370 t f;
#X msg 123 221 4;
#X msg 157 220 5;
#X msg 121 354 12;
#X msg 154 354 13;
#X msg 188 354 14;
#X msg 221 353 15;
#X text 153 331 Synth;
#X text 188 331 Tape;
#X text 219 331 Keys;
#X text 192 197 Rec;
#X msg 71 101 1;
#X msg 110 101 2;
#X msg 150 101 3;
#X msg 193 220 6;
#X msg 228 219 7;
#X text 225 198 Del;
#X msg 121 293 8;
#X msg 188 293 10;
#X msg 221 292 11;
#X text 120 273 Left;
#X text 190 270 Seq;
#X text 220 271 Detla;
#X text 153 269 Right;
#X msg 154 293 9;
#X text 126 197 Play Stop;
#X msg 33 101 0;
#X connect 0 0 2 0;
#X connect 2 0 1 0;
#X connect 5 0 3 0;
#X connect 6 0 3 0;
#X connect 7 0 3 0;
#X connect 14 0 13 0;
#X connect 15 0 14 0;
#X connect 16 0 14 0;
#X connect 17 0 14 0;
#X connect 18 0 14 0;
#X connect 19 0 14 0;
#X connect 20 0 14 0;
#X connect 25 0 14 0;
#X connect 26 0 14 0;
#X connect 27 0 14 0;
#X connect 28 0 14 0;
#X connect 29 0 14 0;
#X connect 31 0 14 0;
#X connect 32 0 14 0;
#X connect 33 0 14 0;
#X connect 38 0 14 0;
#X connect 40 0 14 0;
#X restore 399 131 pd testButtonsMCP;
#X connect 2 0 8 0;
#X connect 3 0 1 0;
#X connect 7 0 14 0;
#X connect 8 0 6 0;
#X connect 18 0 21 0;
#X connect 19 0 18 0;
#X connect 20 0 32 0;
#X connect 21 0 20 0;
#X connect 22 0 35 0;
#X connect 30 0 31 0;
#X connect 32 0 23 0;
