#N canvas 400 68 1280 699 10;
#X obj 104 130 tgl 15 0 empty empty empty 17 7 0 10 -262144 -1 -1 0
24;
#X obj 169 161 metro 500;
#X obj 167 200 counter;
#X obj 146 200 bng 15 250 50 0 empty empty empty 17 7 0 10 -262144
-1 -1;
#X obj 168 234 % 16;
#X floatatom 205 234 5 0 0 0 - - -;
#X obj 166 280 select 0 1 2 3 4 5 6 7 8 9 10 11 12 13 14 15;
#X obj 48 399 f 62;
#X obj 9 399 f 60;
#X obj 87 399 f 64;
#X obj 128 399 f 65;
#X obj 168 399 f 67;
#X obj 206 398 f 69;
#X obj 244 398 f 71;
#X obj 284 398 f 73;
#X obj 325 397 f 75;
#X obj 367 397 f 77;
#X obj 448 397 f 80;
#X obj 491 397 f 82;
#X obj 529 397 f 84;
#X obj 408 397 f 78;
#X obj 570 397 f 85;
#X obj 611 396 f 87;
#X obj 167 476 + 0;
#X obj 209 476 r rootNote;
#X obj 1163 558 s rootNote;
#X obj 1163 520 f 0;
#X msg 1188 406 0;
#X obj 1236 430 vsl 15 64 -11 11 0 0 empty empty empty 0 -9 0 10 -262144
-1 -1 6024 0;
#X floatatom 1211 526 5 0 0 0 - - -;
#X obj 1223 501 int;
#X text 1184 429 reset;
#X obj 166 614 makenote;
#X obj 166 579 pack f 100 250;
#X msg 246 515 500;
#X text 168 530 pitch vel dur;
#X floatatom 181 503 5 0 0 0 - - -;
#X obj 294 476 r octShift;
#X obj 1294 566 f 0;
#X msg 1316 389 0;
#X obj 1361 413 vsl 15 64 -4 4 0 0 empty empty empty 0 -9 0 10 -203904
-1 -1 2800 0;
#X floatatom 1339 515 5 0 0 0 - - -;
#X obj 1351 490 int;
#X text 1312 418 reset;
#X obj 1294 604 s octShift;
#X obj 1330 536 * 12;
#X text 1183 385 rootnote shift;
#X text 1319 369 octive shift;
#X floatatom 1333 566 5 0 0 0 - - -;
#X obj 166 650 pack;
#X obj 166 690 outlet;
#X obj 338 38 inlet;
#X obj 400 40 inlet;
#X obj 449 162 s seqToggle;
#X obj 103 103 r seqToggle;
#X floatatom 232 204 5 0 0 0 - - -;
#X floatatom 1047 96 5 0 0 0 - - -;
#X obj 1046 69 r seqLen;
#X obj 1033 122 f 0;
#X obj 958 68 r seqToggle;
#X obj 1035 151 s seqLen;
#X obj 233 183 r seqLen;
#X obj 960 96 tgl 15 0 empty empty empty 17 7 0 10 -262144 -1 -1 0
24;
#X obj 984 95 select 1;
#X obj 272 39 inlet;
#X text 271 18 Midi In;
#N canvas 191 344 913 659 midiInWriter 0;
#X obj 209 40 inlet;
#X text 207 19 midi in;
#X obj 311 126 counter;
#X obj 259 203 list prepend;
#X floatatom 383 215 5 0 0 0 - - -;
#X floatatom 291 175 5 0 0 0 - - -;
#X obj 264 301 route list;
#X obj 260 103 t f b;
#X obj 215 73 unpack f f;
#X msg 110 41 list 1 100;
#X msg 29 42 list 2 100;
#X msg 29 16 list 3 100;
#X msg 113 14 list 4 100;
#X obj 329 104 bng 15 250 50 0 empty empty empty 17 7 0 10 -262144
-1 -1;
#X obj 146 378 outlet;
#X text 142 345 seq note;
#X obj 425 123 counter;
#X obj 424 216 s seqLen;
#X obj 383 25 inlet;
#X obj 274 49 spigot;
#X obj 299 73 bng 15 250 50 0 empty empty empty 17 7 0 10 -262144 -1
-1;
#X obj 306 26 tgl 15 0 empty empty empty 17 7 0 10 -262144 -1 -1 127
127;
#X obj 427 155 + 1;
#X text 381 4 Expects 127 to write notes;
#X obj 445 82 select 127;
#X obj 313 151 moses 16;
#X text 389 187 0-15;
#X obj 426 183 moses 16;
#X connect 0 0 19 0;
#X connect 2 0 25 0;
#X connect 3 0 6 0;
#X connect 5 0 3 1;
#X connect 6 0 14 0;
#X connect 7 0 3 0;
#X connect 7 1 2 0;
#X connect 7 1 16 0;
#X connect 8 0 7 0;
#X connect 9 0 8 0;
#X connect 10 0 8 0;
#X connect 11 0 8 0;
#X connect 12 0 8 0;
#X connect 13 0 2 2;
#X connect 16 0 22 0;
#X connect 18 0 21 0;
#X connect 18 0 24 0;
#X connect 19 0 20 0;
#X connect 19 0 8 0;
#X connect 21 0 19 1;
#X connect 22 0 27 0;
#X connect 24 0 16 2;
#X connect 24 0 2 2;
#X connect 25 0 5 0;
#X connect 27 0 17 0;
#X connect 27 0 4 0;
#X restore 573 114 pd midiInWriter;
#X obj 572 186 s \$0-w0;
#X obj 586 212 s \$0-w1;
#X obj 604 237 s \$0-w2;
#X obj 623 186 s \$0-w3;
#X obj 643 212 s \$0-w4;
#X obj 680 186 s \$0-w6;
#X obj 695 211 s \$0-w7;
#X obj 711 239 s \$0-w8;
#X obj 734 185 s \$0-w9;
#X obj 749 212 s \$0-w10;
#X obj 763 240 s \$0-w11;
#X obj 790 185 s \$0-w12;
#X obj 808 211 s \$0-w13;
#X obj 821 240 s \$0-w14;
#X obj 848 186 s \$0-w15;
#X obj 658 239 s \$0-w5;
#X obj 632 371 r \$0-w15;
#X obj 588 348 r \$0-w14;
#X obj 551 369 r \$0-w13;
#X obj 511 346 r \$0-w12;
#X obj 469 369 r \$0-w11;
#X obj 428 345 r \$0-w10;
#X obj 389 369 r \$0-w9;
#X obj 352 346 r \$0-w8;
#X obj 309 371 r \$0-w7;
#X obj 267 348 r \$0-w6;
#X obj 229 372 r \$0-w5;
#X obj 192 348 r \$0-w4;
#X obj 147 372 r \$0-w3;
#X obj 111 350 r \$0-w2;
#X obj 69 373 r \$0-w1;
#X obj 33 353 r \$0-w0;
#X text 337 17 BPM;
#X obj 398 133 route list bang;
#X obj 399 189 route 26 16;
#X obj 381 215 select 127;
#X obj 378 241 s seqToggle;
#X text 362 173 Select Buttons;
#X obj 475 241 s seqWrite;
#X obj 606 78 r seqWrite;
#X obj 276 65 bng 15 250 50 0 empty empty empty 17 7 0 10 -262144 -1
-1;
#X obj 570 153 route 0 1 2 3 4 5 6 7 8 9 10 11 12 13 14 15;
#X obj 97 279 s playNote;
#X obj 87 477 r playNote;
#X floatatom 109 503 5 0 0 0 - - -;
#X obj 180 184 bng 15 250 50 0 empty empty empty 17 7 0 10 -262144
-1 -1;
#X text 402 95 26 - Start/Stop;
#X text 403 112 16 - write note;
#X text 397 19 CC in;
#X obj 505 206 s moreCC;
#X obj 1167 106 r moreCC;
#X obj 1166 137 route 1 2 3 4;
#X obj 1155 309 +;
#X obj 1188 309 float;
#X msg 1155 261 1;
#X msg 1204 262 -1;
#X obj 1294 310 +;
#X obj 1327 310 float;
#X msg 1294 262 1;
#X msg 1343 263 -1;
#X text 1173 68 CC + knobs Control;
#X obj 1166 170 select 1 127;
#X obj 1303 171 select 1 127;
#X obj 1428 522 f 0;
#X obj 1426 488 bng 15 250 50 0 empty empty empty 17 7 0 10 -262144
-1 -1;
#X msg 1453 408 0;
#X obj 1502 432 vsl 15 64 0 11 0 0 empty empty empty 0 -9 0 10 -261682
-1 -1 5246 0;
#X floatatom 1476 528 5 0 0 0 - - -;
#X obj 1488 503 int;
#X text 1449 431 reset;
#X obj 1420 311 +;
#X obj 1453 311 float;
#X msg 1420 263 1;
#X msg 1469 264 -1;
#X obj 1431 172 select 1 127;
#X msg 1634 663 500;
#X msg 1733 661 1000;
#X obj 1521 235 loadbang;
#X msg 1602 663 250;
#X msg 1535 665 75;
#X msg 1496 665 37.5;
#X msg 1455 666 18.25;
#X msg 1409 666 9.125;
#X msg 1378 666 5;
#X msg 1665 663 375;
#X msg 1699 662 625;
#X obj 1443 588 select 0 1 2 3 4 5 6 7 8 9 10 11 12;
#X msg 1519 266 7;
#X msg 1106 705 list 2.5 5 9.125 18.25 37.5;
#X obj 219 123 r metroSpeed;
#X obj 1517 736 s metroSpeed;
#X text 957 49 play on/off;
#X obj 475 219 tgl 15 0 empty empty empty 17 7 0 10 -262144 -1 -1 0
127;
#X obj 586 678 outlet;
#X obj 586 633 r toOSC;
#X obj 853 151 s toOSC;
#X text 575 608 to SequencerToOSC;
#X obj 44 278 s toOSC;
#X obj 778 83 list split 1;
#N canvas 57 424 450 300 seqControls 0;
#X obj 36 41 inlet;
#X text 104 28 Takes the synthMessages;
#X obj 104 225 s seqWrite;
#X msg 113 181 127;
#X msg 155 180 0;
#X obj 209 182 s seqToggle;
#X obj 35 101 select recHot recCold seqToggle;
#X obj 256 139 bng 15 250 50 0 empty empty empty 17 7 0 10 -262144
-1 -1;
#X connect 0 0 6 0;
#X connect 3 0 2 0;
#X connect 4 0 2 0;
#X connect 6 0 3 0;
#X connect 6 1 4 0;
#X connect 6 1 7 0;
#X connect 6 2 5 0;
#X connect 6 3 7 0;
#X restore 465 64 pd seqControls;
#X obj 468 40 inlet;
#X text 472 18 synthMessages;
#X obj 675 115 tgl 15 0 empty empty empty 17 7 0 10 -262144 -1 -1 127
127;
#X obj 654 633 r seqToggle;
#X obj 654 679 outlet;
#X obj 749 634 r seqWrite;
#X obj 749 680 outlet;
#X obj 829 677 outlet;
#X obj 829 634 r metroSpeed;
#X msg 344 142 26 127;
#X msg 344 110 16 127;
#X msg 688 30 list 68 127;
#X obj 936 257 print bad stepp;
#X text 744 609 sends 127 or 0;
#X obj 917 634 r seqLen;
#X obj 917 676 outlet;
#X obj 104 160 select 0;
#X text 915 611 length of sequence;
#X obj 318 68 s midiThroughs;
#X obj 459 533 t f;
#X obj 459 514 unpack f f;
#X obj 459 493 r midiThroughs;
#X text 530 510 Midi out When Writing;
#X msg 1569 664 150;
#N canvas 229 165 450 300 buttControls 0;
#X obj 22 85 select skipNote_m speedUp_m speedDown_m rootUp_m rootDown_m
;
#X obj 25 29 r buttToSequen;
#X obj 94 108 s \$0su;
#X obj 162 111 s \$0sd;
#X obj 230 110 s \$0ru;
#X obj 302 109 s \$0rd;
#X obj 22 261 s skipNote;
#X msg 22 230 list 0 0;
#X text 82 224 send a midi note 0 at 0 velocity;
#X text 27 198 write a blank note;
#X connect 0 0 7 0;
#X connect 0 1 2 0;
#X connect 0 2 3 0;
#X connect 0 3 4 0;
#X connect 0 4 5 0;
#X connect 1 0 0 0;
#X connect 7 0 6 0;
#X restore 1346 69 pd buttControls;
#X text 1333 38 Interpert Button Messages;
#X obj 1164 230 r \$0ru;
#X obj 1217 230 r \$0rd;
#X msg 1345 667 3;
#X obj 1429 234 r \$0su;
#X obj 1476 235 r \$0sd;
#X obj 608 51 r skipNote;
#X text 696 11 test Note;
#X text 1492 386 Speed up/down shift;
#X obj 114 552 select 0;
#X text 109 570 rests dont get played;
#X obj 566 48 bng 15 250 50 0 empty empty empty 17 7 0 10 -262144 -1
-1;
#X connect 0 0 1 0;
#X connect 0 0 183 0;
#X connect 1 0 3 0;
#X connect 1 0 2 0;
#X connect 2 0 4 0;
#X connect 2 0 5 0;
#X connect 4 0 6 0;
#X connect 4 0 109 0;
#X connect 4 0 164 0;
#X connect 6 0 8 0;
#X connect 6 1 7 0;
#X connect 6 2 9 0;
#X connect 6 3 10 0;
#X connect 6 4 11 0;
#X connect 6 5 12 0;
#X connect 6 6 13 0;
#X connect 6 7 14 0;
#X connect 6 8 15 0;
#X connect 6 9 16 0;
#X connect 6 10 20 0;
#X connect 6 11 17 0;
#X connect 6 12 18 0;
#X connect 6 13 19 0;
#X connect 6 14 21 0;
#X connect 6 15 22 0;
#X connect 7 0 23 0;
#X connect 8 0 23 0;
#X connect 9 0 23 0;
#X connect 10 0 23 0;
#X connect 11 0 23 0;
#X connect 12 0 23 0;
#X connect 13 0 23 0;
#X connect 14 0 23 0;
#X connect 15 0 23 0;
#X connect 16 0 23 0;
#X connect 17 0 23 0;
#X connect 18 0 23 0;
#X connect 19 0 23 0;
#X connect 20 0 23 0;
#X connect 21 0 23 0;
#X connect 22 0 23 0;
#X connect 23 0 36 0;
#X connect 23 0 201 0;
#X connect 24 0 23 1;
#X connect 26 0 25 0;
#X connect 27 0 28 0;
#X connect 28 0 30 0;
#X connect 28 0 120 0;
#X connect 30 0 29 0;
#X connect 30 0 26 0;
#X connect 32 0 49 0;
#X connect 32 1 49 1;
#X connect 33 0 32 0;
#X connect 34 0 33 2;
#X connect 37 0 23 1;
#X connect 38 0 44 0;
#X connect 39 0 40 0;
#X connect 40 0 42 0;
#X connect 40 0 124 0;
#X connect 41 0 45 0;
#X connect 42 0 41 0;
#X connect 45 0 48 0;
#X connect 45 0 38 0;
#X connect 49 0 50 0;
#X connect 51 0 1 1;
#X connect 54 0 0 0;
#X connect 55 0 4 1;
#X connect 56 0 58 1;
#X connect 57 0 56 0;
#X connect 58 0 60 0;
#X connect 59 0 62 0;
#X connect 61 0 55 0;
#X connect 62 0 63 0;
#X connect 63 0 58 0;
#X connect 64 0 107 0;
#X connect 64 0 66 0;
#X connect 64 0 185 0;
#X connect 66 0 108 0;
#X connect 66 0 165 0;
#X connect 83 0 22 1;
#X connect 84 0 21 1;
#X connect 85 0 19 1;
#X connect 86 0 18 1;
#X connect 87 0 17 1;
#X connect 88 0 20 1;
#X connect 89 0 16 1;
#X connect 90 0 15 1;
#X connect 91 0 14 1;
#X connect 92 0 13 1;
#X connect 93 0 12 1;
#X connect 94 0 11 1;
#X connect 95 0 10 1;
#X connect 96 0 9 1;
#X connect 97 0 7 1;
#X connect 98 0 8 1;
#X connect 100 0 101 0;
#X connect 100 1 53 0;
#X connect 101 0 102 0;
#X connect 101 1 105 0;
#X connect 101 1 159 0;
#X connect 101 2 116 0;
#X connect 102 0 103 0;
#X connect 106 0 66 1;
#X connect 106 0 169 0;
#X connect 108 0 67 0;
#X connect 108 1 68 0;
#X connect 108 2 69 0;
#X connect 108 3 70 0;
#X connect 108 4 71 0;
#X connect 108 5 82 0;
#X connect 108 6 72 0;
#X connect 108 7 73 0;
#X connect 108 8 74 0;
#X connect 108 9 75 0;
#X connect 108 10 76 0;
#X connect 108 11 77 0;
#X connect 108 12 78 0;
#X connect 108 13 79 0;
#X connect 108 14 80 0;
#X connect 108 15 81 0;
#X connect 108 16 179 0;
#X connect 110 0 111 0;
#X connect 112 0 2 2;
#X connect 117 0 118 0;
#X connect 118 0 128 0;
#X connect 118 1 129 0;
#X connect 118 2 141 0;
#X connect 119 0 28 0;
#X connect 120 0 119 1;
#X connect 121 0 119 0;
#X connect 122 0 119 0;
#X connect 123 0 40 0;
#X connect 124 0 123 1;
#X connect 125 0 123 0;
#X connect 126 0 123 0;
#X connect 128 0 121 0;
#X connect 128 1 122 0;
#X connect 129 0 125 0;
#X connect 129 1 126 0;
#X connect 130 0 153 0;
#X connect 132 0 133 0;
#X connect 133 0 135 0;
#X connect 133 0 131 0;
#X connect 133 0 138 0;
#X connect 135 0 134 0;
#X connect 135 0 130 0;
#X connect 137 0 133 0;
#X connect 138 0 137 1;
#X connect 139 0 137 0;
#X connect 140 0 137 0;
#X connect 141 0 139 0;
#X connect 141 1 140 0;
#X connect 142 0 157 0;
#X connect 143 0 157 0;
#X connect 144 0 154 0;
#X connect 145 0 157 0;
#X connect 146 0 157 0;
#X connect 147 0 157 0;
#X connect 148 0 157 0;
#X connect 149 0 157 0;
#X connect 150 0 157 0;
#X connect 151 0 157 0;
#X connect 152 0 157 0;
#X connect 153 0 195 0;
#X connect 153 1 150 0;
#X connect 153 2 149 0;
#X connect 153 3 148 0;
#X connect 153 4 147 0;
#X connect 153 5 146 0;
#X connect 153 6 190 0;
#X connect 153 7 145 0;
#X connect 153 8 142 0;
#X connect 153 9 151 0;
#X connect 153 10 152 0;
#X connect 153 11 143 0;
#X connect 154 0 137 0;
#X connect 156 0 1 1;
#X connect 161 0 160 0;
#X connect 165 0 162 0;
#X connect 167 0 166 0;
#X connect 167 0 203 0;
#X connect 170 0 171 0;
#X connect 172 0 173 0;
#X connect 175 0 174 0;
#X connect 176 0 101 0;
#X connect 177 0 101 0;
#X connect 178 0 66 0;
#X connect 181 0 182 0;
#X connect 183 0 112 0;
#X connect 186 0 33 0;
#X connect 187 0 186 0;
#X connect 188 0 187 0;
#X connect 190 0 157 0;
#X connect 193 0 121 0;
#X connect 194 0 122 0;
#X connect 195 0 157 0;
#X connect 196 0 139 0;
#X connect 197 0 140 0;
#X connect 198 0 66 0;
#X connect 201 1 33 0;
