#N canvas 300 150 1556 828 10;
#X obj 48 126 tgl 15 0 empty empty empty 17 7 0 10 -262144 -1 -1 0
1;
#X obj 47 156 metro 500;
#X obj 45 195 counter;
#X obj 15 192 bng 15 250 50 0 empty empty empty 17 7 0 10 -262144 -1
-1;
#X obj 46 229 % 16;
#X floatatom 83 229 5 0 0 0 - - -;
#X obj 44 275 select 0 1 2 3 4 5 6 7 8 9 10 11 12 13 14 15;
#X obj -74 394 f 62;
#X obj -113 394 f 60;
#X obj -35 394 f 64;
#X obj 6 394 f 65;
#X obj 46 394 f 67;
#X obj 84 393 f 69;
#X obj 122 393 f 71;
#X obj 162 393 f 73;
#X obj 203 392 f 75;
#X obj 245 392 f 77;
#X obj 326 392 f 80;
#X obj 369 392 f 82;
#X obj 407 392 f 84;
#X obj 286 392 f 78;
#X obj 448 392 f 85;
#X obj 489 391 f 87;
#X obj 45 471 + 0;
#X obj 87 471 r rootNote;
#X obj 1022 304 s rootNote;
#X obj 1022 266 f 0;
#X obj 1020 232 bng 15 250 50 0 empty empty empty 17 7 0 10 -262144
-1 -1;
#X msg 1047 152 0;
#X obj 1096 176 vsl 15 64 0 11 0 0 empty empty empty 0 -9 0 10 -262144
-1 -1 0 0;
#X floatatom 1070 272 5 0 0 0 - - -;
#X obj 1082 247 int;
#X text 1043 175 reset;
#X obj 43 580 makenote;
#X obj 43 545 pack f 100 250;
#X msg 124 510 500;
#X text 46 525 pitch vel dur;
#X floatatom 59 498 5 0 0 0 - - -;
#X floatatom 5 249 5 0 0 0 - - -;
#X msg 100 118 250;
#X obj 172 471 r octShift;
#X obj 1156 322 f 0;
#X obj 1154 288 bng 15 250 50 0 empty empty empty 17 7 0 10 -262144
-1 -1;
#X msg 1178 145 0;
#X obj 1223 169 vsl 15 64 -4 4 0 0 empty empty empty 0 -9 0 10 -203904
-1 -1 1400 0;
#X floatatom 1201 271 5 0 0 0 - - -;
#X obj 1213 246 int;
#X text 1174 174 reset;
#X obj 1156 360 s octShift;
#X obj 1192 292 * 12;
#X text 1042 131 rootnote shift;
#X text 1181 125 octive shift;
#X floatatom 1195 322 5 0 0 0 - - -;
#X obj 43 616 pack;
#X obj 43 656 outlet;
#X obj 216 33 inlet;
#X msg 135 117 500;
#X msg 134 143 1000;
#X msg 99 95 50;
#X msg 140 92 100;
#X msg 63 95 25;
#X msg 70 121 10;
#X obj 278 35 inlet;
#X obj 278 56 s seqToggle;
#X obj -16 94 r seqToggle;
#X floatatom 110 199 5 0 0 0 - - -;
#X floatatom 846 89 5 0 0 0 - - -;
#X obj 845 62 r seqLen;
#X obj 832 115 f 0;
#X obj 757 61 r seqToggle;
#X obj 834 144 s seqLen;
#X obj 111 178 r seqLen;
#X obj 759 89 tgl 15 0 empty empty empty 17 7 0 10 -262144 -1 -1 0
1;
#X obj 783 88 select 1;
#X obj 150 34 inlet;
#X text 149 13 Midi In;
#N canvas 1065 137 913 659 midiInWriter 1;
#X obj 209 40 inlet;
#X text 207 13 midi in;
#X obj 311 126 counter;
#X obj 259 203 list prepend;
#X floatatom 351 156 5 0 0 0 - - -;
#X floatatom 291 175 5 0 0 0 - - -;
#X obj 259 332 route 0 1 2 3;
#X obj 292 449 f 62;
#X obj 257 450 f 60;
#X obj 324 450 f 64;
#X obj 359 450 f 65;
#X obj 264 301 route list;
#X obj 314 156 % 4;
#X obj 265 97 t f b;
#X obj 215 73 unpack f f;
#X msg 110 41 list 1 100;
#X msg 29 42 list 2 100;
#X msg 29 16 list 3 100;
#X msg 113 14 list 4 100;
#X obj 329 99 bng 15 250 50 0 empty empty empty 17 7 0 10 -262144 -1
-1;
#X obj 242 358 bng 15 250 50 0 empty empty empty 17 7 0 10 -262144
-1 -1;
#X obj 348 363 bng 15 250 50 0 empty empty empty 17 7 0 10 -262144
-1 -1;
#X obj 274 372 bng 15 250 50 0 empty empty empty 17 7 0 10 -262144
-1 -1;
#X obj 304 371 bng 15 250 50 0 empty empty empty 17 7 0 10 -262144
-1 -1;
#X obj 306 251 print;
#X floatatom 257 492 5 0 0 0 - - -;
#X obj 146 378 outlet;
#X connect 0 0 14 0;
#X connect 2 0 12 0;
#X connect 3 0 24 0;
#X connect 3 0 11 0;
#X connect 5 0 3 1;
#X connect 6 0 8 0;
#X connect 6 0 20 0;
#X connect 6 1 7 0;
#X connect 6 1 22 0;
#X connect 6 2 9 0;
#X connect 6 2 23 0;
#X connect 6 3 10 0;
#X connect 6 3 21 0;
#X connect 7 0 25 0;
#X connect 8 0 25 0;
#X connect 9 0 25 0;
#X connect 10 0 25 0;
#X connect 11 0 6 0;
#X connect 11 0 26 0;
#X connect 12 0 5 0;
#X connect 13 0 3 0;
#X connect 13 1 2 0;
#X connect 14 0 13 0;
#X connect 15 0 14 0;
#X connect 16 0 14 0;
#X connect 17 0 14 0;
#X connect 18 0 14 0;
#X connect 19 0 2 2;
#X restore 380 103 pd midiInWriter;
#X obj 377 142 select 0 1 2 3 4 5 6 7 8 9 10 11 12 13 14 15;
#X obj 379 175 s \$0-w0;
#X obj 393 201 s \$0-w1;
#X obj 411 226 s \$0-w2;
#X obj 430 175 s \$0-w3;
#X obj 450 201 s \$0-w4;
#X obj 487 175 s \$0-w6;
#X obj 502 200 s \$0-w7;
#X obj 518 228 s \$0-w8;
#X obj 541 174 s \$0-w9;
#X obj 556 201 s \$0-w10;
#X obj 570 229 s \$0-w11;
#X obj 597 174 s \$0-w12;
#X obj 615 200 s \$0-w13;
#X obj 628 229 s \$0-w14;
#X obj 655 175 s \$0-w15;
#X obj 465 228 s \$0-w5;
#X obj 510 366 r \$0-w15;
#X obj 466 343 r \$0-w14;
#X obj 429 364 r \$0-w13;
#X obj 389 341 r \$0-w12;
#X obj 347 364 r \$0-w11;
#X obj 306 340 r \$0-w10;
#X obj 267 364 r \$0-w9;
#X obj 230 341 r \$0-w8;
#X obj 187 366 r \$0-w7;
#X obj 145 343 r \$0-w6;
#X obj 107 367 r \$0-w5;
#X obj 70 343 r \$0-w4;
#X obj 25 367 r \$0-w3;
#X obj -11 345 r \$0-w2;
#X obj -53 368 r \$0-w1;
#X obj -89 348 r \$0-w0;
#X text 215 12 BPM;
#X text 275 12 Start/Stop;
#X connect 0 0 1 0;
#X connect 1 0 3 0;
#X connect 1 0 2 0;
#X connect 2 0 4 0;
#X connect 2 0 5 0;
#X connect 4 0 6 0;
#X connect 4 0 38 0;
#X connect 6 0 8 0;
#X connect 6 1 7 0;
#X connect 6 2 9 0;
#X connect 6 3 10 0;
#X connect 6 4 11 0;
#X connect 6 5 12 0;
#X connect 6 6 13 0;
#X connect 6 7 14 0;
#X connect 6 8 15 0;
#X connect 6 9 16 0;
#X connect 6 10 20 0;
#X connect 6 11 17 0;
#X connect 6 12 18 0;
#X connect 6 13 19 0;
#X connect 6 14 21 0;
#X connect 6 15 22 0;
#X connect 7 0 23 0;
#X connect 8 0 23 0;
#X connect 9 0 23 0;
#X connect 10 0 23 0;
#X connect 11 0 23 0;
#X connect 12 0 23 0;
#X connect 13 0 23 0;
#X connect 14 0 23 0;
#X connect 15 0 23 0;
#X connect 16 0 23 0;
#X connect 17 0 23 0;
#X connect 18 0 23 0;
#X connect 19 0 23 0;
#X connect 20 0 23 0;
#X connect 21 0 23 0;
#X connect 22 0 23 0;
#X connect 23 0 37 0;
#X connect 23 0 34 0;
#X connect 24 0 23 1;
#X connect 26 0 25 0;
#X connect 27 0 26 0;
#X connect 28 0 29 0;
#X connect 29 0 31 0;
#X connect 29 0 27 0;
#X connect 31 0 30 0;
#X connect 31 0 26 1;
#X connect 33 0 53 0;
#X connect 33 1 53 1;
#X connect 34 0 33 0;
#X connect 35 0 34 2;
#X connect 39 0 1 1;
#X connect 40 0 23 1;
#X connect 41 0 48 0;
#X connect 42 0 41 0;
#X connect 43 0 44 0;
#X connect 44 0 46 0;
#X connect 44 0 42 0;
#X connect 45 0 49 0;
#X connect 46 0 45 0;
#X connect 49 0 41 1;
#X connect 49 0 52 0;
#X connect 53 0 54 0;
#X connect 55 0 1 1;
#X connect 56 0 1 1;
#X connect 57 0 1 1;
#X connect 58 0 1 1;
#X connect 59 0 1 1;
#X connect 60 0 1 1;
#X connect 61 0 1 1;
#X connect 62 0 63 0;
#X connect 64 0 0 0;
#X connect 65 0 4 1;
#X connect 66 0 68 1;
#X connect 67 0 66 0;
#X connect 68 0 70 0;
#X connect 69 0 72 0;
#X connect 71 0 65 0;
#X connect 72 0 73 0;
#X connect 73 0 68 0;
#X connect 74 0 76 0;
#X connect 76 0 77 0;
#X connect 77 0 78 0;
#X connect 77 1 79 0;
#X connect 77 2 80 0;
#X connect 77 3 81 0;
#X connect 77 4 82 0;
#X connect 77 5 93 0;
#X connect 77 6 83 0;
#X connect 77 7 84 0;
#X connect 77 8 85 0;
#X connect 77 9 86 0;
#X connect 77 10 87 0;
#X connect 77 11 88 0;
#X connect 77 12 89 0;
#X connect 77 13 90 0;
#X connect 77 14 91 0;
#X connect 77 15 92 0;
#X connect 94 0 22 1;
#X connect 95 0 21 1;
#X connect 96 0 19 1;
#X connect 97 0 18 1;
#X connect 98 0 17 1;
#X connect 99 0 20 1;
#X connect 100 0 16 1;
#X connect 101 0 15 1;
#X connect 102 0 14 1;
#X connect 103 0 13 1;
#X connect 104 0 12 1;
#X connect 105 0 11 1;
#X connect 106 0 10 1;
#X connect 107 0 9 1;
#X connect 108 0 7 1;
#X connect 109 0 8 1;
