#N canvas -44 70 1796 787 12;
#X obj 27 23 loadbang;
#X msg 27 92 read -resize \$1 kickSample;
#X msg 27 58 symbol /home/ccrma/dsamples/Kick_808_4.wav;
#X obj 27 127 soundfiler;
#X floatatom 44 157 5 0 0 0 - - -;
#N canvas 0 0 450 300 (subpatch) 0;
#X array kickSample 26754 float 2;
#X coords 0 1 26754 -1 200 140 1;
#X restore 22 202 graph;
#X obj 31 464 tabplay~ kickSample;
#X obj 32 433 bng 15 250 50 0 empty empty empty 17 7 0 10 -262144 -1
-1;
#X obj 402 662 dac~;
#X obj 350 21 loadbang;
#X obj 350 125 soundfiler;
#X floatatom 367 155 5 0 0 0 - - -;
#N canvas 0 0 450 300 (subpatch) 0;
#X array snareSample 4294 float 2;
#X coords 0 1 4294 -1 200 140 1;
#X restore 345 200 graph;
#X obj 355 431 bng 15 250 50 0 empty empty empty 17 7 0 10 -262144
-1 -1;
#X msg 350 56 symbol /home/ccrma/dsamples/Snare_808_1.wav;
#X msg 350 90 read -resize \$1 snareSample;
#X obj 354 462 tabplay~ snareSample;
#X obj 685 18 loadbang;
#X obj 685 122 soundfiler;
#X floatatom 702 152 5 0 0 0 - - -;
#N canvas 0 0 450 300 (subpatch) 0;
#X array closedHHSample 9587 float 2;
#X coords 0 1 9587 -1 200 140 1;
#X restore 680 197 graph;
#X obj 690 428 bng 15 250 50 0 empty empty empty 17 7 0 10 -262144
-1 -1;
#X obj 1024 15 loadbang;
#X obj 1024 119 soundfiler;
#X floatatom 1041 149 5 0 0 0 - - -;
#N canvas 0 0 450 300 (subpatch) 0;
#X array openHHSample 12541 float 2;
#X coords 0 1 12541 -1 200 140 1;
#X restore 1019 194 graph;
#X obj 1029 425 bng 15 250 50 0 empty empty empty 17 7 0 10 -262144
-1 -1;
#X msg 685 53 symbol /home/ccrma/dsamples/ClosedHH_808X.wav;
#X msg 685 87 read -resize \$1 closedHHSample;
#X obj 689 459 tabplay~ closedHHSample;
#X msg 1024 50 symbol /home/ccrma/dsamples/OpenHH_808_2.wav;
#X msg 1024 84 read -resize \$1 openHHSample;
#X obj 1028 456 tabplay~ openHHSample;
#X obj 522 378 select 53 55 61 63;
#X obj 1390 59 inlet;
#X obj 1606 159 r shutDownSound;
#X obj 1477 159 r startUpSound;
#X msg 1481 216 float 53;
#X msg 1614 213 float 63;
#X obj 1262 358 loadbang;
#X obj 1262 462 soundfiler;
#X floatatom 1279 492 5 0 0 0 - - -;
#N canvas 0 0 450 300 (subpatch) 0;
#X array startSample 37351 float 2;
#X coords 0 1 37351 -1 200 140 1;
#X restore 1257 537 graph;
#X msg 1262 393 symbol /home/ccrma/dsamples/System_Sounds/jpn_start.aiff
;
#X msg 1262 427 read -resize \$1 startSample;
#X obj 1505 359 loadbang;
#X obj 1505 463 soundfiler;
#X floatatom 1522 493 5 0 0 0 - - -;
#N canvas 0 0 450 300 (subpatch) 0;
#X array shutdownSample 46078 float 2;
#X coords 0 1 46078 -1 200 140 1;
#X restore 1500 538 graph;
#X msg 1505 428 read -resize \$1 shutdownSample;
#X msg 1505 394 symbol /home/ccrma/dsamples/System_Sounds/jpn_shutdown.aiff
;
#X obj 1268 736 tabplay~ startSample;
#X obj 1516 737 tabplay~ shutdownSample;
#X obj 401 604 *~ 0.5;
#X obj 1483 263 s playStartSample;
#X obj 1637 269 s playShutdownSample;
#X obj 1263 686 r playStartSample;
#X obj 1513 684 r playShutdownSample;
#X obj 1262 712 bng 15 250 50 0 empty empty empty 17 7 0 10 -262144
-1 -1;
#X obj 1514 714 bng 15 250 50 0 empty empty empty 17 7 0 10 -262144
-1 -1;
#X obj 1355 110 stripnote;
#X obj 784 393 print drum-missed-beat;
#X obj 714 380 spigot;
#X obj 752 353 tgl 15 0 empty empty empty 17 7 0 10 -262144 -1 -1 0
1;
#X obj 1290 203 select 53 55 61 63;
#X msg 1326 243 1;
#X msg 1369 245 2;
#X msg 1411 243 3;
#X msg 1288 242 0;
#X obj 1286 297 outlet;
#X msg 1364 154 63;
#X msg 1242 240 -1;
#X text 1227 220 Init Drums;
#X connect 0 0 2 0;
#X connect 1 0 3 0;
#X connect 2 0 1 0;
#X connect 3 0 4 0;
#X connect 6 0 53 0;
#X connect 7 0 6 0;
#X connect 9 0 14 0;
#X connect 10 0 11 0;
#X connect 13 0 16 0;
#X connect 14 0 15 0;
#X connect 15 0 10 0;
#X connect 16 0 53 0;
#X connect 17 0 27 0;
#X connect 18 0 19 0;
#X connect 21 0 29 0;
#X connect 22 0 30 0;
#X connect 23 0 24 0;
#X connect 26 0 32 0;
#X connect 27 0 28 0;
#X connect 28 0 18 0;
#X connect 29 0 53 0;
#X connect 30 0 31 0;
#X connect 31 0 23 0;
#X connect 32 0 53 0;
#X connect 33 0 7 0;
#X connect 33 1 13 0;
#X connect 33 2 21 0;
#X connect 33 3 26 0;
#X connect 33 4 62 0;
#X connect 34 0 60 0;
#X connect 35 0 38 0;
#X connect 36 0 37 0;
#X connect 37 0 54 0;
#X connect 38 0 55 0;
#X connect 39 0 43 0;
#X connect 40 0 41 0;
#X connect 43 0 44 0;
#X connect 44 0 40 0;
#X connect 45 0 50 0;
#X connect 46 0 47 0;
#X connect 49 0 46 0;
#X connect 50 0 49 0;
#X connect 51 0 53 0;
#X connect 52 0 53 0;
#X connect 53 0 8 0;
#X connect 53 0 8 1;
#X connect 56 0 58 0;
#X connect 57 0 59 0;
#X connect 58 0 51 0;
#X connect 59 0 52 0;
#X connect 60 0 33 0;
#X connect 60 0 64 0;
#X connect 62 0 61 0;
#X connect 63 0 62 1;
#X connect 64 0 68 0;
#X connect 64 1 65 0;
#X connect 64 2 66 0;
#X connect 64 3 67 0;
#X connect 65 0 69 0;
#X connect 66 0 69 0;
#X connect 67 0 69 0;
#X connect 68 0 69 0;
#X connect 70 0 64 0;
#X connect 71 0 69 0;
