#N canvas 36 113 1731 787 12;
#X obj 27 23 loadbang;
#X msg 27 92 read -resize \$1 kickSample;
#X msg 27 58 symbol /home/ccrma/dsamples/Kick_808_4.wav;
#X obj 27 127 soundfiler;
#X floatatom 44 157 5 0 0 0 - - -;
#N canvas 0 0 450 300 (subpatch) 0;
#X array kickSample 26754 float 2;
#X coords 0 1 26754 -1 200 140 1;
#X restore 22 202 graph;
#X obj 31 464 tabplay~ kickSample;
#X obj 32 433 bng 15 250 50 0 empty empty empty 17 7 0 10 -262144 -1
-1;
#X obj 402 662 dac~;
#X obj 1611 19 loadbang;
#X obj 350 21 loadbang;
#X obj 350 125 soundfiler;
#X floatatom 367 155 5 0 0 0 - - -;
#N canvas 0 0 450 300 (subpatch) 0;
#X array snareSample 4294 float 2;
#X coords 0 1 4294 -1 200 140 1;
#X restore 345 200 graph;
#X obj 355 431 bng 15 250 50 0 empty empty empty 17 7 0 10 -262144
-1 -1;
#X msg 350 56 symbol /home/ccrma/dsamples/Snare_808_1.wav;
#X msg 350 90 read -resize \$1 snareSample;
#X obj 354 462 tabplay~ snareSample;
#X obj 685 18 loadbang;
#X obj 685 122 soundfiler;
#X floatatom 702 152 5 0 0 0 - - -;
#N canvas 0 0 450 300 (subpatch) 0;
#X array closedHHSample 9587 float 2;
#X coords 0 1 9587 -1 200 140 1;
#X restore 680 197 graph;
#X obj 690 428 bng 15 250 50 0 empty empty empty 17 7 0 10 -262144
-1 -1;
#X obj 1024 15 loadbang;
#X obj 1024 119 soundfiler;
#X floatatom 1041 149 5 0 0 0 - - -;
#N canvas 0 0 450 300 (subpatch) 0;
#X array openHHSample 12541 float 2;
#X coords 0 1 12541 -1 200 140 1;
#X restore 1019 194 graph;
#X obj 1029 425 bng 15 250 50 0 empty empty empty 17 7 0 10 -262144
-1 -1;
#X msg 685 53 symbol /home/ccrma/dsamples/ClosedHH_808X.wav;
#X msg 685 87 read -resize \$1 closedHHSample;
#X obj 689 459 tabplay~ closedHHSample;
#X msg 1024 50 symbol /home/ccrma/dsamples/OpenHH_808_2.wav;
#X msg 1024 84 read -resize \$1 openHHSample;
#X obj 1028 456 tabplay~ openHHSample;
#X obj 1402 23 notein;
#X floatatom 1367 53 5 0 0 0 - - -;
#X obj 1406 148 stripnote;
#X floatatom 1385 82 5 0 0 0 - - -;
#X obj 1441 105 pack;
#X obj 522 378 select 53 55 61 63;
#X obj 1370 336 unpack;
#X obj 401 604 *~ 0.25;
#X connect 0 0 2 0;
#X connect 1 0 3 0;
#X connect 2 0 1 0;
#X connect 3 0 4 0;
#X connect 6 0 41 0;
#X connect 7 0 6 0;
#X connect 10 0 15 0;
#X connect 11 0 12 0;
#X connect 14 0 17 0;
#X connect 15 0 16 0;
#X connect 16 0 11 0;
#X connect 17 0 41 0;
#X connect 18 0 28 0;
#X connect 19 0 20 0;
#X connect 22 0 30 0;
#X connect 23 0 31 0;
#X connect 24 0 25 0;
#X connect 27 0 33 0;
#X connect 28 0 29 0;
#X connect 29 0 19 0;
#X connect 30 0 41 0;
#X connect 31 0 32 0;
#X connect 32 0 24 0;
#X connect 33 0 41 0;
#X connect 34 0 35 0;
#X connect 34 0 38 0;
#X connect 34 1 37 0;
#X connect 34 1 38 1;
#X connect 36 0 40 0;
#X connect 38 0 36 0;
#X connect 39 0 7 0;
#X connect 39 1 14 0;
#X connect 39 2 22 0;
#X connect 39 3 27 0;
#X connect 40 0 39 0;
#X connect 41 0 8 0;
#X connect 41 0 8 1;
