#N canvas 559 123 450 300 10;
#X obj 27 16 inlet;
#N canvas 854 258 450 300 midiTranslator 0;
#X obj 9 9 inlet;
#X obj 21 249 outlet;
#X text 71 12 strip notes;
#X text 71 37 transpose notes out of range;
#X obj 18 63 stripnote;
#X floatatom 67 164 5 0 0 0 - - -;
#X obj 36 119 % 24;
#X connect 0 0 4 0;
#X connect 4 0 6 0;
#X connect 6 0 5 0;
#X connect 6 0 1 0;
#X restore 27 68 pd midiTranslator;
#N canvas 882 197 450 571 ezDrumSoundEngine 0;
#X obj 29 27 inlet;
#N canvas 1073 97 520 324 soundArrays 0;
#X obj 54 59 table sampleSizeArray;
#X obj 54 88 table darray0;
#X obj 153 89 table darray1;
#X obj 252 89 table darray2;
#X obj 350 89 table darray3;
#X obj 55 114 table darray4;
#X obj 154 115 table darray5;
#X obj 253 115 table darray6;
#X obj 351 115 table darray7;
#X obj 54 140 table darray8;
#X obj 156 141 table darray9;
#X obj 254 141 table darray10;
#X obj 352 141 table darray11;
#X obj 54 166 table darray12;
#X obj 155 167 table darray13;
#X obj 254 167 table darray14;
#X obj 352 167 table darray15;
#X obj 54 191 table darray16;
#X obj 155 192 table darray17;
#X obj 254 192 table darray18;
#X obj 352 192 table darray19;
#X obj 53 216 table darray20;
#X obj 155 217 table darray21;
#X obj 254 217 table darray22;
#X obj 352 217 table darray23;
#X obj 53 240 table darray24;
#X text 248 56 the Drum Samples;
#X restore 330 168 pd soundArrays;
#N canvas 653 151 612 639 loadSounds 0;
#X obj -467 112 folder_list;
#X msg -467 86 symbol ./drum-kit-ez/*;
#X obj -298 190 counter;
#X floatatom -298 215 5 0 0 0 - - -;
#X obj -298 164 bng 15 250 50 0 empty empty empty 17 7 0 10 -262144
-1 -1;
#X text -384 111 hcs/folder_list;
#X obj -469 337 soundfiler;
#X msg -468 310 read -resize \$1 \$2;
#X obj -467 284 pack s s;
#X msg -422 260 symbol darray\$1;
#X obj -272 -21 loadbang;
#X obj -272 2 delay 100;
#X obj -272 25 t b b;
#X connect 0 0 4 0;
#X connect 0 0 8 0;
#X connect 1 0 0 0;
#X connect 2 0 3 0;
#X connect 3 0 9 0;
#X connect 4 0 2 0;
#X connect 7 0 6 0;
#X connect 8 0 7 0;
#X connect 9 0 8 1;
#X connect 10 0 11 0;
#X connect 11 0 12 0;
#X connect 12 0 1 0;
#X connect 12 1 2 2;
#X restore 332 132 pd loadSounds;
#X obj 52 284 bng 15 250 50 0 empty empty empty 17 7 0 10 -262144 -1
-1;
#X msg 93 294 stop;
#X obj 59 191 t b s;
#X msg 79 245 set \$1;
#X obj 53 328 tabplay~ darray0;
#X obj 65 143 makefilename darray%d;
#N canvas 545 478 450 300 noteTestGuy 0;
#X obj 28 194 outlet;
#X obj 34 36 inlet;
#X obj 36 129 counter;
#X floatatom 70 156 5 0 0 0 - - -;
#X obj 34 66 tgl 15 0 empty empty empty 17 7 0 10 -262144 -1 -1 0 1
;
#X obj 90 59 bng 15 250 50 0 empty empty empty 17 7 0 10 -262144 -1
-1;
#X text 109 56 reset;
#X obj 96 36 loadbang;
#X obj 180 35 inlet;
#X text 172 57 num of drums;
#X obj 36 109 metro 250;
#X obj 32 154 % 25;
#X connect 1 0 4 0;
#X connect 2 0 11 0;
#X connect 3 0 0 0;
#X connect 4 0 10 0;
#X connect 5 0 2 2;
#X connect 7 0 5 0;
#X connect 8 0 11 1;
#X connect 10 0 2 0;
#X connect 11 0 3 0;
#X restore 319 50 pd noteTestGuy;
#X obj 306 26 tgl 15 0 empty empty empty 17 7 0 10 -262144 -1 -1 0
1;
#X msg 350 27 15;
#X msg 392 27 4;
#X text 96 25 monophonic Drum Engine;
#X text 341 101 Sound Files;
#X obj 48 433 outlet~;
#X obj 70 397 dac~;
#X obj 52 355 *~ 1;
#X connect 0 0 8 0;
#X connect 3 0 7 0;
#X connect 4 0 7 0;
#X connect 5 0 3 0;
#X connect 5 1 6 0;
#X connect 6 0 7 0;
#X connect 7 0 17 0;
#X connect 8 0 5 0;
#X connect 9 0 8 0;
#X connect 10 0 9 0;
#X connect 11 0 9 1;
#X connect 12 0 9 1;
#X connect 17 0 15 0;
#X restore 27 142 pd ezDrumSoundEngine;
#X obj 26 266 outlet~;
#X obj 221 265 outlet;
#X text 41 241 Audio out;
#X text 235 238 drum state out;
#X obj 221 85 t f;
#X connect 0 0 1 0;
#X connect 1 0 2 0;
#X connect 1 0 7 0;
#X connect 2 0 3 0;
#X connect 7 0 4 0;
