#N canvas 559 123 450 300 10;
#X obj 27 16 inlet;
#N canvas 854 258 450 300 midiTranslator 0;
#X obj 9 9 inlet;
#X obj 21 249 outlet;
#X text 71 12 strip notes;
#X text 71 37 transpose notes out of range;
#X obj 18 63 stripnote;
#X floatatom 67 164 5 0 0 0 - - -;
#X obj 36 119 % 24;
#X connect 0 0 4 0;
#X connect 4 0 6 0;
#X connect 6 0 5 0;
#X connect 6 0 1 0;
#X restore 27 68 pd midiTranslator;
#N canvas 508 73 450 571 ezDrumSoundEngine 1;
#X obj 29 27 inlet;
#N canvas 1073 97 520 324 soundArrays 1;
#X obj 54 59 table sampleSizeArray;
#X obj 54 88 table darray0;
#X obj 153 89 table darray1;
#X obj 252 89 table darray2;
#X obj 350 89 table darray3;
#X obj 55 114 table darray4;
#X obj 154 115 table darray5;
#X obj 253 115 table darray6;
#X obj 351 115 table darray7;
#X obj 54 140 table darray8;
#X obj 156 141 table darray9;
#X obj 254 141 table darray10;
#X obj 352 141 table darray11;
#X obj 54 166 table darray12;
#X obj 155 167 table darray13;
#X obj 254 167 table darray14;
#X obj 352 167 table darray15;
#X obj 54 191 table darray16;
#X obj 155 192 table darray17;
#X obj 254 192 table darray18;
#X obj 352 192 table darray19;
#X obj 53 216 table darray20;
#X obj 155 217 table darray21;
#X obj 254 217 table darray22;
#X obj 352 217 table darray23;
#X obj 53 240 table darray24;
#X text 248 56 the Drum Samples;
#X restore 330 168 pd soundArrays;
#N canvas 653 151 873 607 loadSounds 0;
#X obj 793 35 loadbang;
#X obj 794 67 delay 100;
#X msg 794 115 read -resize \$1 array0;
#X obj 793 151 soundfiler;
#X floatatom 797 182 5 0 0 0 - - -;
#X obj 462 210 folder_list;
#X msg 461 170 symbol ./drum-kit-ez/*;
#X obj 630 274 counter;
#X floatatom 606 313 5 0 0 0 - - -;
#X obj 561 255 bng 15 250 50 0 empty empty empty 17 7 0 10 -262144
-1 -1;
#X text 545 209 hcs/folder_list;
#X msg 119 253 4;
#X obj 117 280 t f b;
#X msg 161 320 0;
#X obj 112 349 f;
#X obj 159 354 + 1;
#X floatatom 111 377 5 0 0 0 - - -;
#X obj 176 437 makefilename array%d;
#X obj 104 477 pack s s;
#X obj 104 535 soundfiler;
#X obj 118 214 bng 15 250 50 0 empty empty empty 17 7 0 10 -262144
-1 -1;
#X obj 105 318 until;
#X obj 747 66 bng 15 250 50 0 empty empty empty 17 7 0 10 -262144 -1
-1;
#X msg 795 92 symbol ./dsamples/danceclub.wav;
#X obj 42 418 makefilename ./numkit/%d.wav;
#X msg 103 504 read -resize \$1 \$2;
#X obj 105 563 tabwrite sampleSizeArray;
#X obj 429 514 soundfiler;
#X msg 389 462 read -resize \$1 \$2;
#X obj 650 122 bng 15 250 50 0 empty empty empty 17 7 0 10 -262144
-1 -1;
#X obj 438 400 pack s s;
#X obj 375 406 print;
#X msg 505 368 symbol darray\$1;
#X obj 678 216 bng 15 250 50 0 empty empty empty 17 7 0 10 -262144
-1 -1;
#X obj 681 185 loadbang;
#X obj 615 67 loadbang;
#X obj 622 92 delay 100;
#X connect 1 0 23 0;
#X connect 2 0 3 0;
#X connect 3 0 4 0;
#X connect 5 0 9 0;
#X connect 5 0 30 0;
#X connect 6 0 5 0;
#X connect 7 0 8 0;
#X connect 8 0 32 0;
#X connect 9 0 7 0;
#X connect 11 0 12 0;
#X connect 12 0 21 0;
#X connect 12 1 13 0;
#X connect 13 0 14 1;
#X connect 14 0 15 0;
#X connect 14 0 16 0;
#X connect 15 0 14 1;
#X connect 16 0 17 0;
#X connect 16 0 24 0;
#X connect 16 0 26 1;
#X connect 17 0 18 1;
#X connect 18 0 25 0;
#X connect 19 0 26 0;
#X connect 20 0 11 0;
#X connect 21 0 14 0;
#X connect 22 0 23 0;
#X connect 23 0 2 0;
#X connect 24 0 18 0;
#X connect 25 0 19 0;
#X connect 28 0 27 0;
#X connect 29 0 6 0;
#X connect 29 0 7 2;
#X connect 30 0 31 0;
#X connect 30 0 28 0;
#X connect 32 0 30 1;
#X connect 33 0 7 2;
#X connect 34 0 33 0;
#X connect 35 0 36 0;
#X connect 36 0 29 0;
#X restore 332 132 pd loadSounds;
#X obj 52 355 *~ 0.5;
#X obj 70 397 dac~;
#X obj 52 284 bng 15 250 50 0 empty empty empty 17 7 0 10 -262144 -1
-1;
#X msg 93 294 stop;
#X obj 59 191 t b s;
#X msg 79 245 set \$1;
#X obj 53 328 tabplay~ darray0;
#X obj 65 143 makefilename darray%d;
#N canvas 565 253 450 300 noteTestGuy 0;
#X obj 28 194 outlet;
#X obj 34 36 inlet;
#X obj 36 109 metro 500;
#X obj 36 129 counter;
#X obj 32 154 % 15;
#X floatatom 70 156 5 0 0 0 - - -;
#X obj 34 66 tgl 15 0 empty empty empty 17 7 0 10 -262144 -1 -1 0 1
;
#X obj 90 59 bng 15 250 50 0 empty empty empty 17 7 0 10 -262144 -1
-1;
#X text 109 56 reset;
#X obj 96 36 loadbang;
#X obj 180 35 inlet;
#X text 172 57 num of drums;
#X connect 1 0 6 0;
#X connect 2 0 3 0;
#X connect 3 0 4 0;
#X connect 4 0 5 0;
#X connect 5 0 0 0;
#X connect 6 0 2 0;
#X connect 7 0 3 2;
#X connect 9 0 7 0;
#X connect 10 0 4 1;
#X restore 319 50 pd noteTestGuy;
#X obj 306 26 tgl 15 0 empty empty empty 17 7 0 10 -262144 -1 -1 0
1;
#X msg 350 27 15;
#X msg 392 27 4;
#X text 53 21 comment;
#X text 96 25 monophonic Drum Engine;
#X text 341 101 Sound Files;
#X obj 48 433 outlet~;
#X connect 0 0 10 0;
#X connect 3 0 4 0;
#X connect 3 0 4 1;
#X connect 3 0 18 0;
#X connect 5 0 9 0;
#X connect 6 0 9 0;
#X connect 7 0 5 0;
#X connect 7 1 8 0;
#X connect 8 0 9 0;
#X connect 9 0 3 0;
#X connect 10 0 7 0;
#X connect 11 0 10 0;
#X connect 12 0 11 0;
#X connect 13 0 11 1;
#X connect 14 0 11 1;
#X restore 27 142 pd ezDrumSoundEngine;
#X msg 104 105 53;
#X msg 149 107 55;
#X text 102 18 comment;
#X obj 27 213 outlet~;
#X obj 205 30 notein;
#X obj 206 67 pack f f;
#X connect 0 0 1 0;
#X connect 1 0 2 0;
#X connect 2 0 6 0;
#X connect 3 0 2 0;
#X connect 4 0 2 0;
#X connect 7 0 8 0;
#X connect 7 1 8 1;
#X connect 8 0 1 0;
