#N canvas 202 176 779 650 10;
#X text 38 18 audio in;
#X obj 42 61 inlet~;
#X obj 133 62 inlet;
#X text 134 27 buttons/Signals;
#X msg 181 110 play;
#X msg 223 110 stop;
#X obj 22 408 writesf~ 1;
#X obj 349 339 readsf~ 1;
#X obj 36 602 outlet~;
#X text 35 37 after Mixer;
#X msg 128 309 start;
#X msg 176 367 stop;
#X msg 405 263 start;
#X msg 349 265 stop;
#X text 327 27 record a max of 2 minutes;
#X obj 405 241 delay 50;
#X obj 128 284 delay 50;
#X msg 122 370 bang;
#X obj 121 406 delay 120000;
#X text 421 580 output playing stopped whichDiskOpen;
#X obj 85 170 sel record play stop switch;
#X obj 85 191 bng 15 250 50 0 empty empty empty 17 7 0 10 -262144 -1
-1;
#X obj 127 190 bng 15 250 50 0 empty empty empty 17 7 0 10 -262144
-1 -1;
#X obj 170 190 bng 15 250 50 0 empty empty empty 17 7 0 10 -262144
-1 -1;
#X text 132 257 Record;
#X text 416 212 Play;
#X msg 49 343 open /home/ccrma/audio_recs/diskA.wav;
#X msg 348 291 open /home/ccrma/audio_recs/diskA.wav;
#N canvas 1018 477 450 418 runTimeCounter 0;
#X obj 58 49 inlet;
#X obj 77 368 outlet;
#X obj 66 90 route start stop;
#X msg 122 56 start;
#X msg 173 61 stop;
#X obj 69 130 bng 15 250 50 0 empty empty empty 17 7 0 10 -262144 -1
-1;
#X obj 112 125 bng 15 250 50 0 empty empty empty 17 7 0 10 -262144
-1 -1;
#X msg 113 157 stop;
#X obj 145 218 counter;
#X obj 44 194 t b;
#X floatatom 131 248 5 0 0 0 - - -;
#X obj 76 225 bng 15 250 50 0 empty empty empty 17 7 0 10 -262144 -1
-1;
#X obj 145 187 bng 15 250 50 0 empty empty empty 17 7 0 10 -262144
-1 -1;
#X text 93 18 counts runTime in millis updates value every 100ms;
#X obj 74 193 delay 100;
#X obj 75 286 * 100;
#X connect 0 0 2 0;
#X connect 2 0 5 0;
#X connect 2 1 6 0;
#X connect 3 0 2 0;
#X connect 4 0 2 0;
#X connect 5 0 14 0;
#X connect 6 0 7 0;
#X connect 7 0 12 0;
#X connect 7 0 14 0;
#X connect 8 0 10 0;
#X connect 9 0 14 0;
#X connect 10 0 15 0;
#X connect 12 0 8 2;
#X connect 14 0 8 0;
#X connect 14 0 9 0;
#X connect 15 0 1 0;
#X restore 208 530 pd runTimeCounter;
#X obj 127 606 outlet;
#X obj 127 552 r \$0StateOut;
#X obj 209 601 outlet;
#X obj 311 170 allow record play stop switch;
#X obj 311 196 s \$0StateOut;
#X obj 282 194 bng 15 250 50 0 empty empty empty 17 7 0 10 -262144
-1 -1;
#X msg 264 110 switch;
#X msg 129 110 record;
#X msg 353 125 list 1 2 3;
#X obj 260 137 symbol;
#X obj 205 409 s \$0controlRunTime;
#X obj 474 341 s \$0controlRunTime;
#X obj 219 492 r \$0controlRunTime;
#X msg 181 491 stop;
#X msg 493 368 stop;
#X connect 1 0 6 0;
#X connect 2 0 20 0;
#X connect 2 0 32 0;
#X connect 4 0 38 0;
#X connect 5 0 38 0;
#X connect 7 0 8 0;
#X connect 7 1 43 0;
#X connect 10 0 6 0;
#X connect 10 0 17 0;
#X connect 10 0 39 0;
#X connect 11 0 6 0;
#X connect 11 0 18 0;
#X connect 11 0 28 0;
#X connect 11 0 39 0;
#X connect 12 0 7 0;
#X connect 12 0 40 0;
#X connect 13 0 7 0;
#X connect 13 0 40 0;
#X connect 15 0 12 0;
#X connect 16 0 10 0;
#X connect 17 0 18 0;
#X connect 18 0 11 0;
#X connect 18 0 42 0;
#X connect 20 0 26 0;
#X connect 20 0 16 0;
#X connect 20 0 21 0;
#X connect 20 1 15 0;
#X connect 20 1 27 0;
#X connect 20 1 22 0;
#X connect 20 2 11 0;
#X connect 20 2 13 0;
#X connect 20 2 23 0;
#X connect 26 0 6 0;
#X connect 27 0 7 0;
#X connect 28 0 31 0;
#X connect 30 0 29 0;
#X connect 32 0 33 0;
#X connect 32 0 34 0;
#X connect 35 0 38 0;
#X connect 36 0 38 0;
#X connect 38 0 32 0;
#X connect 41 0 28 0;
#X connect 42 0 28 0;
#X connect 43 0 40 0;
