#N canvas 279 211 627 650 10;
#X text 38 18 audio in;
#X obj 42 61 inlet~;
#X obj 133 62 inlet;
#X text 134 27 buttons/Signals;
#X msg 180 119 play;
#X msg 222 119 stop;
#X msg 263 119 switchDisk;
#X msg 143 119 rec;
#X obj 42 338 writesf~ 1;
#X obj 232 337 readsf~ 1;
#X obj 44 543 outlet~;
#X text 35 37 after Mixer;
#X msg 132 262 start;
#X msg 182 258 stop;
#X msg 278 268 start;
#X msg 326 268 stop;
#X text 334 32 record a max of 2 minutes;
#X text 286 542 output playing stopped witchDiskOpen;
#X obj 84 189 sel openRec record stopRec openPlay play stopPlay;
#X obj 86 208 bng 15 250 50 0 empty empty empty 17 7 0 10 -262144 -1
-1;
#X obj 137 208 bng 15 250 50 0 empty empty empty 17 7 0 10 -262144
-1 -1;
#X obj 187 208 bng 15 250 50 0 empty empty empty 17 7 0 10 -262144
-1 -1;
#X obj 278 246 delay 50;
#X obj 132 237 delay 50;
#X obj 263 468 line~;
#X obj 232 489 *~;
#X obj 231 443 osc~ 3000;
#X obj 415 471 line~;
#X obj 384 492 *~;
#X obj 383 446 osc~ 2000;
#X msg 132 319 bang;
#X obj 132 342 delay 120000;
#X text 318 400 Audio Pings;
#X text 300 411 Delete to Optimize;
#X msg 310 443 1 \, 0 100;
#X msg 462 446 1 \, 0 100;
#X text 414 212 Dont need to openRec or OpenPlay. File gets opened
automatically. then recording or playing starts 50ms later;
#X msg 232 292 open ../audioRecs/diskA.wav;
#X msg 59 292 open ../audioRecs/diskA.wav;
#X connect 1 0 8 0;
#X connect 2 0 18 0;
#X connect 9 0 10 0;
#X connect 9 1 35 0;
#X connect 12 0 8 0;
#X connect 12 0 34 0;
#X connect 12 0 30 0;
#X connect 13 0 8 0;
#X connect 13 0 35 0;
#X connect 13 0 31 0;
#X connect 14 0 9 0;
#X connect 14 0 34 0;
#X connect 15 0 9 0;
#X connect 15 0 35 0;
#X connect 18 0 38 0;
#X connect 18 0 19 0;
#X connect 18 1 20 0;
#X connect 18 1 23 0;
#X connect 18 1 38 0;
#X connect 18 2 13 0;
#X connect 18 2 21 0;
#X connect 18 3 37 0;
#X connect 18 4 22 0;
#X connect 18 4 37 0;
#X connect 18 5 15 0;
#X connect 22 0 14 0;
#X connect 23 0 12 0;
#X connect 24 0 25 1;
#X connect 25 0 10 0;
#X connect 26 0 25 0;
#X connect 27 0 28 1;
#X connect 28 0 10 0;
#X connect 29 0 28 0;
#X connect 30 0 31 0;
#X connect 31 0 13 0;
#X connect 34 0 24 0;
#X connect 35 0 27 0;
#X connect 37 0 9 0;
#X connect 38 0 8 0;
