#N canvas 220 297 779 650 10;
#X text 38 18 audio in;
#X obj 42 61 inlet~;
#X obj 133 62 inlet;
#X text 134 27 buttons/Signals;
#X msg 180 119 play;
#X msg 222 119 stop;
#X msg 263 119 switchDisk;
#X msg 143 119 rec;
#X obj 22 408 writesf~ 1;
#X obj 349 339 readsf~ 1;
#X obj 36 602 outlet~;
#X text 35 37 after Mixer;
#X msg 128 309 start;
#X msg 176 367 stop;
#X msg 405 263 start;
#X msg 349 265 stop;
#X text 327 27 record a max of 2 minutes;
#X obj 405 241 delay 50;
#X obj 128 284 delay 50;
#X obj 398 506 line~;
#X obj 367 527 *~;
#X obj 366 481 osc~ 3000;
#X obj 550 509 line~;
#X obj 519 530 *~;
#X obj 518 484 osc~ 2000;
#X msg 122 370 bang;
#X obj 121 406 delay 120000;
#X text 453 435 Audio Pings;
#X text 432 454 Delete to Optimize;
#X msg 445 481 1 \, 0 100;
#X msg 597 484 1 \, 0 100;
#X text 421 580 output playing stopped whichDiskOpen;
#X obj 198 85 print longrecreeeee;
#X obj 85 170 sel record play stop switch;
#X obj 85 191 bng 15 250 50 0 empty empty empty 17 7 0 10 -262144 -1
-1;
#X obj 127 190 bng 15 250 50 0 empty empty empty 17 7 0 10 -262144
-1 -1;
#X obj 170 190 bng 15 250 50 0 empty empty empty 17 7 0 10 -262144
-1 -1;
#X text 132 257 Record;
#X text 416 212 Play;
#X msg 49 343 open /home/ccrma/audio_recs/diskA.wav;
#X msg 348 291 open /home/ccrma/audio_recs/diskA.wav;
#X connect 1 0 8 0;
#X connect 2 0 32 0;
#X connect 2 0 33 0;
#X connect 9 0 10 0;
#X connect 9 1 30 0;
#X connect 12 0 8 0;
#X connect 12 0 29 0;
#X connect 12 0 25 0;
#X connect 13 0 8 0;
#X connect 13 0 30 0;
#X connect 13 0 26 0;
#X connect 14 0 9 0;
#X connect 14 0 29 0;
#X connect 15 0 9 0;
#X connect 15 0 30 0;
#X connect 17 0 14 0;
#X connect 18 0 12 0;
#X connect 19 0 20 1;
#X connect 20 0 10 0;
#X connect 21 0 20 0;
#X connect 22 0 23 1;
#X connect 23 0 10 0;
#X connect 24 0 23 0;
#X connect 25 0 26 0;
#X connect 26 0 13 0;
#X connect 29 0 19 0;
#X connect 30 0 22 0;
#X connect 33 0 39 0;
#X connect 33 0 18 0;
#X connect 33 0 34 0;
#X connect 33 1 17 0;
#X connect 33 1 40 0;
#X connect 33 1 35 0;
#X connect 33 2 13 0;
#X connect 33 2 15 0;
#X connect 33 2 36 0;
#X connect 39 0 8 0;
#X connect 40 0 9 0;
