#N canvas 927 166 782 753 10;
#X obj 29 32 inlet;
#X obj 34 291 mtof;
#X obj 38 348 osc~;
#X obj 56 223 bng 15 250 50 0 empty empty empty 17 7 0 10 -262144 -1
-1;
#X text 28 5 Midi Note In;
#X obj 179 22 inlet;
#X obj 269 21 inlet;
#X obj 187 206 vsl 15 128 0 127 0 0 empty empty empty 0 -9 0 10 -262144
-1 -1 100 1;
#X obj 187 352 * 10;
#X obj 144 429 pack 1 0;
#X floatatom 216 401 5 0 0 0 - - -;
#X obj 203 429 delay;
#X obj 210 467 pack 0 25;
#X obj 266 207 vsl 15 128 0 127 0 0 empty empty empty 0 -9 0 10 -262144
-1 -1 6300 1;
#X obj 266 353 * 10;
#X text 174 0 Attack;
#X text 269 0 Decay;
#X obj 144 503 line~;
#X obj 379 27 inlet;
#X obj 384 204 vsl 15 128 0 127 0 0 empty empty empty 0 -9 0 10 -262144
-1 -1 10000 1;
#X text 376 0 Amplification;
#X obj 380 349 / 127;
#X obj 380 402 pack 0.5 50;
#X obj 380 501 line~;
#X obj 38 523 *~;
#X obj 78 466 *~;
#N canvas 949 253 450 300 initESet 0;
#X obj 71 54 loadbang;
#X obj 56 122 outlet;
#X obj 121 119 outlet;
#X msg 69 81 1;
#X msg 103 80 63;
#X connect 0 0 3 0;
#X connect 0 0 4 0;
#X connect 3 0 1 0;
#X connect 4 0 2 0;
#X restore 198 176 pd initESet;
#N canvas 530 442 450 300 initASet 0;
#X obj 52 55 loadbang;
#X obj 50 157 outlet;
#X msg 52 93 100;
#X connect 0 0 2 0;
#X connect 2 0 1 0;
#X restore 473 92 pd initASet;
#X obj 37 566 *~;
#X obj 148 151 +;
#X obj 185 153 float;
#X msg 144 78 -3;
#X msg 186 81 3;
#X msg 262 83 -3;
#X msg 304 81 3;
#X obj 267 146 +;
#X obj 305 147 float;
#X msg 378 87 -3;
#X msg 422 88 3;
#X obj 381 117 +;
#X obj 421 118 float;
#X obj 376 57 select 127 1;
#X obj 265 53 select 127 1;
#X obj 156 50 select 127 1;
#X obj 34 183 stripnote;
#X text 48 147 ! ! !;
#X obj 82 211 s noteOut;
#X obj 148 618 r noteOut;
#X obj 146 653 outlet;
#X obj 57 695 outlet~;
#X connect 0 0 44 0;
#X connect 1 0 2 0;
#X connect 2 0 24 0;
#X connect 3 0 9 0;
#X connect 3 0 11 0;
#X connect 5 0 43 0;
#X connect 6 0 42 0;
#X connect 7 0 8 0;
#X connect 7 0 30 0;
#X connect 8 0 9 1;
#X connect 8 0 10 0;
#X connect 9 0 17 0;
#X connect 10 0 11 1;
#X connect 11 0 12 0;
#X connect 12 0 17 0;
#X connect 13 0 14 0;
#X connect 13 0 36 0;
#X connect 14 0 12 1;
#X connect 17 0 24 1;
#X connect 18 0 41 0;
#X connect 19 0 21 0;
#X connect 19 0 40 0;
#X connect 21 0 22 0;
#X connect 22 0 23 0;
#X connect 23 0 28 1;
#X connect 24 0 28 0;
#X connect 26 0 7 0;
#X connect 26 0 30 0;
#X connect 26 1 13 0;
#X connect 26 1 36 0;
#X connect 27 0 19 0;
#X connect 27 0 40 0;
#X connect 28 0 49 0;
#X connect 29 0 7 0;
#X connect 30 0 29 1;
#X connect 31 0 29 0;
#X connect 32 0 29 0;
#X connect 33 0 35 0;
#X connect 34 0 35 0;
#X connect 35 0 13 0;
#X connect 36 0 35 1;
#X connect 37 0 39 0;
#X connect 38 0 39 0;
#X connect 39 0 19 0;
#X connect 40 0 39 1;
#X connect 41 0 37 0;
#X connect 41 1 38 0;
#X connect 42 0 33 0;
#X connect 42 1 34 0;
#X connect 43 0 31 0;
#X connect 43 1 32 0;
#X connect 44 0 3 0;
#X connect 44 0 1 0;
#X connect 44 0 46 0;
#X connect 47 0 48 0;
