#N canvas 514 68 964 803 10;
#X obj 29 32 inlet;
#X obj 34 291 mtof;
#X obj 38 348 osc~;
#X obj 56 223 bng 15 250 50 0 empty empty empty 17 7 0 10 -262144 -1
-1;
#X text 28 5 Midi Note In;
#X obj 179 22 inlet;
#X obj 269 21 inlet;
#X obj 188 232 vsl 15 128 0 127 0 0 empty empty empty 0 -9 0 10 -262144
-1 -1 1100 1;
#X obj 188 370 * 10;
#X obj 144 429 pack 1 0;
#X floatatom 214 409 5 0 0 0 - - -;
#X obj 203 429 delay;
#X obj 210 467 pack 0 25;
#X obj 267 233 vsl 15 128 0 127 0 0 empty empty empty 0 -9 0 10 -262144
-1 -1 1500 1;
#X obj 268 371 * 10;
#X text 174 0 Attack;
#X text 269 0 Decay;
#X obj 144 503 line~;
#X obj 379 27 inlet;
#X obj 385 230 vsl 15 128 0 127 0 0 empty empty empty 0 -9 0 10 -262144
-1 -1 12100 1;
#X text 376 0 Amplification;
#X obj 380 379 / 127;
#X obj 380 402 pack 0.5 50;
#X obj 380 501 line~;
#X obj 38 523 *~;
#N canvas 949 253 450 300 initESet 0;
#X obj 71 54 loadbang;
#X obj 56 122 outlet;
#X obj 121 119 outlet;
#X msg 69 81 1;
#X msg 103 80 63;
#X connect 0 0 3 0;
#X connect 0 0 4 0;
#X connect 3 0 1 0;
#X connect 4 0 2 0;
#X restore 198 207 pd initESet;
#N canvas 530 442 450 300 initASet 0;
#X obj 52 55 loadbang;
#X obj 50 157 outlet;
#X msg 52 93 100;
#X connect 0 0 2 0;
#X connect 2 0 1 0;
#X restore 473 123 pd initASet;
#X obj 37 566 *~;
#X obj 148 182 +;
#X obj 185 184 float;
#X msg 144 109 -3;
#X msg 186 112 3;
#X msg 262 114 -3;
#X msg 304 112 3;
#X obj 267 177 +;
#X obj 305 178 float;
#X msg 378 118 -3;
#X msg 422 119 3;
#X obj 381 148 +;
#X obj 421 149 float;
#X obj 376 88 select 127 1;
#X obj 265 84 select 127 1;
#X obj 156 81 select 127 1;
#X obj 34 183 stripnote;
#X text 48 147 ! ! !;
#X obj 82 211 s noteOut;
#X obj 134 656 r noteOut;
#X obj 132 691 outlet;
#X obj 57 695 outlet~;
#X obj 603 40 inlet;
#X text 595 6 recieve parameter;
#X msg 627 74 knob1 127;
#X msg 695 74 knob1 1;
#X obj 660 294 s decay\$0;
#X obj 585 294 s attack\$0;
#X obj 182 47 r attack\$0;
#X obj 285 46 r decay\$0;
#X floatatom 210 138 5 0 0 0 - - -;
#X obj 598 245 route knob1 knob2 knob3 knob4;
#X msg 667 47 knob2 127;
#X msg 735 47 knob2 1;
#X obj 560 88 print reciving-in-synth;
#X obj 593 145 list trim;
#X obj 732 295 s amplitude\$0;
#X obj 403 51 r amplitude\$0;
#X obj 79 349 osc~;
#X obj 46 399 *~;
#X obj 89 292 r multOsc\$0;
#X obj 526 517 vsl 15 128 0 127 0 0 empty empty empty 0 -9 0 10 -262144
-1 -1 900 1;
#X obj 522 435 +;
#X obj 562 436 float;
#X obj 517 375 select 127 1;
#X text 510 330 Fm Modulation Fun;
#X obj 523 671 / 127;
#X obj 525 720 * 2000;
#X obj 507 757 s multOsc\$0;
#X obj 520 351 r fmOscFreq\$0;
#X obj 776 325 s fmOscFreq\$0;
#X msg 519 405 -1;
#X msg 561 405 1;
#X obj 268 393 + 1;
#X obj 187 391 + 1;
#X obj 187 565 list prepend /attack;
#X obj 267 600 list prepend /decay;
#X obj 380 627 list prepend /volume;
#X obj 376 665 list prepend /modfreq;
#X obj 269 717 outlet;
#X msg 309 655 test;
#X msg 144 460 0 \, \$1 \$2;
#X connect 0 0 43 0;
#X connect 1 0 2 0;
#X connect 2 0 66 0;
#X connect 3 0 9 0;
#X connect 3 0 11 0;
#X connect 5 0 42 0;
#X connect 6 0 41 0;
#X connect 7 0 8 0;
#X connect 7 0 29 0;
#X connect 8 0 81 0;
#X connect 9 0 88 0;
#X connect 10 0 11 1;
#X connect 11 0 12 0;
#X connect 12 0 17 0;
#X connect 13 0 14 0;
#X connect 13 0 35 0;
#X connect 14 0 80 0;
#X connect 17 0 24 1;
#X connect 18 0 40 0;
#X connect 19 0 21 0;
#X connect 19 0 39 0;
#X connect 21 0 22 0;
#X connect 21 0 84 0;
#X connect 22 0 23 0;
#X connect 23 0 27 1;
#X connect 24 0 27 0;
#X connect 25 0 7 0;
#X connect 25 0 29 0;
#X connect 25 1 13 0;
#X connect 25 1 35 0;
#X connect 26 0 19 0;
#X connect 26 0 39 0;
#X connect 27 0 48 0;
#X connect 28 0 7 0;
#X connect 29 0 28 1;
#X connect 30 0 28 0;
#X connect 31 0 28 0;
#X connect 32 0 34 0;
#X connect 33 0 34 0;
#X connect 34 0 13 0;
#X connect 35 0 34 1;
#X connect 36 0 38 0;
#X connect 37 0 38 0;
#X connect 38 0 19 0;
#X connect 39 0 38 1;
#X connect 40 0 36 0;
#X connect 40 1 37 0;
#X connect 41 0 32 0;
#X connect 41 1 33 0;
#X connect 42 0 30 0;
#X connect 42 1 31 0;
#X connect 43 0 3 0;
#X connect 43 0 1 0;
#X connect 43 0 45 0;
#X connect 46 0 47 0;
#X connect 49 0 61 0;
#X connect 49 0 62 0;
#X connect 51 0 58 0;
#X connect 52 0 58 0;
#X connect 55 0 42 0;
#X connect 55 0 57 0;
#X connect 56 0 41 0;
#X connect 58 0 54 0;
#X connect 58 1 53 0;
#X connect 58 2 63 0;
#X connect 58 3 77 0;
#X connect 59 0 58 0;
#X connect 60 0 58 0;
#X connect 62 0 58 0;
#X connect 64 0 40 0;
#X connect 65 0 66 1;
#X connect 66 0 24 0;
#X connect 67 0 65 0;
#X connect 68 0 70 0;
#X connect 68 0 73 0;
#X connect 69 0 68 0;
#X connect 70 0 69 1;
#X connect 71 0 78 0;
#X connect 71 1 79 0;
#X connect 73 0 74 0;
#X connect 74 0 75 0;
#X connect 74 0 85 0;
#X connect 76 0 71 0;
#X connect 78 0 69 0;
#X connect 79 0 69 0;
#X connect 80 0 12 1;
#X connect 80 0 83 0;
#X connect 81 0 10 0;
#X connect 81 0 9 1;
#X connect 81 0 82 0;
#X connect 82 0 86 0;
#X connect 83 0 86 0;
#X connect 84 0 86 0;
#X connect 85 0 86 0;
#X connect 87 0 86 0;
#X connect 88 0 17 0;
