#N canvas 247 90 897 643 10;
#X obj 34 94 readsf~ 2;
#X obj 36 150 *~ 0.7;
#X obj 34 195 dac~;
#X obj 81 149 *~ 0.7;
#X msg 210 56 start;
#X msg 209 77 stop;
#X text 64 26 opensa file;
#X obj 424 125 soundfiler;
#X obj 422 67 table audioArrayF;
#X msg 24 43 open vox.wav;
#X msg 28 65 open side_b.aifvox.wave 441000;
#X obj 148 122 bng 15 250 50 0 empty empty empty 17 7 0 10 -262144
-1 -1;
#N canvas 656 375 803 466 miniSequencer 0;
#N canvas 0 0 450 300 (subpatch) 0;
#X array seqArray 16 float 3;
#A 0 0 0.428565 0 0 0.214282 0.414279 0.428565 0.485707 0.557135 0.614277
0.671419 0.714275 0.728561 0 0.199997 0.299995;
#X coords 0 1 16 -1 200 140 1;
#X restore 57 -9062 graph;
#N canvas 1133 520 450 300 arraySetups 0;
#X msg -2363 -1383 \; seqArray xticks 0 1 4;
#X msg -2196 -1384 \; seqArray const 0;
#X restore 170 -9087 pd arraySetups;
#X obj 277 -9175 counter;
#X obj 277 -9144 % 16;
#X obj 276 -9202 metro 250;
#X obj 305 -9227 tgl 15 0 empty empty empty 17 7 0 10 -262144 -1 -1
0 1;
#X obj 274 -9103 tabread seqArray;
#X floatatom 275 -9077 5 0 0 0 - - -;
#X obj 278 -9003 osc~;
#X obj 276 -9053 * 127;
#X obj 278 -9028 mtof;
#X obj 281 -8894 dac~;
#X obj 279 -8976 spigot~;
#X obj 320 -9001 tgl 15 0 empty empty empty 17 7 0 10 -262144 -1 -1
0 1;
#X obj 375 -8981 osc~ 233;
#X obj 365 -8932 *~;
#X connect 2 0 3 0;
#X connect 3 0 6 0;
#X connect 4 0 2 0;
#X connect 5 0 4 0;
#X connect 6 0 7 0;
#X connect 7 0 9 0;
#X connect 8 0 12 0;
#X connect 9 0 10 0;
#X connect 9 0 14 0;
#X connect 10 0 8 0;
#X connect 12 0 11 0;
#X connect 13 0 12 1;
#X connect 14 0 15 1;
#X restore 31 566 pd miniSequencer;
#X text 30 541 wow;
#X floatatom 424 150 5 0 0 0 - - -;
#X msg 425 100 read -resize vox.wav audioArrayF;
#X obj 428 230 line~;
#X obj 426 270 tabread~ audioArrayF;
#X obj 422 308 *~ 0.7;
#X obj 429 352 dac~;
#X obj 487 324 snapshot~;
#X floatatom 490 348 5 0 0 0 - - -;
#X obj 562 302 metro 50;
#X obj 601 282 tgl 15 0 empty empty empty 17 7 0 10 -262144 -1 -1 0
1;
#X obj 211 234 line~;
#X obj 205 312 *~ 0.7;
#X obj 212 356 dac~;
#X obj 270 328 snapshot~;
#X floatatom 273 352 5 0 0 0 - - -;
#X obj 345 306 metro 50;
#X obj 384 286 tgl 15 0 empty empty empty 17 7 0 10 -262144 -1 -1 0
1;
#X obj 209 274 tabread4~ audioArrayF;
#X msg 427 202 0 \, 66100 9000;
#X msg 210 206 1 \, 66148 9000;
#X text 164 385 tabread4 has 4point interperlation;
#X obj 234 466 line~;
#X obj 234 496 tabread4~ audioArrayF;
#X obj 35 452 *~ 0.7;
#X obj 42 496 dac~;
#X obj 34 421 r~ toDac;
#X obj 235 527 s~ toDac;
#X msg 235 441 66100 \, 0 1500;
#N canvas 903 203 704 541 simpRec 0;
#X obj 35 23 inlet~;
#X text 34 44 audio in;
#X obj 116 21 inlet;
#X text 114 43 messages in;
#X obj 35 422 outlet~;
#X text 39 447 audio out;
#X obj 472 40 table \$0Aarray;
#X text 564 38 10secs;
#X text 123 123 record;
#X text 346 92 playback;
#X obj 238 38 select play stop rec recstop;
#X obj 35 304 tabwrite~ \$0Aarray;
#X text 125 235;
#X msg 121 255 stop;
#X msg 66 199 start;
#X obj 80 166 bng 15 250 50 0 empty empty empty 17 7 0 10 -262144 -1
-1;
#X obj 169 275 bng 15 250 50 0 empty empty empty 17 7 0 10 -262144
-1 -1;
#X obj 42 66 osc~ 440;
#X text 463 98;
#X obj 341 281 line~;
#X obj 121 227 delay 2400;
#X text 114 192 record for 2.4 secs 4 beats @ 100bpm;
#X obj 340 209 pack f f;
#X obj 437 267 print;
#X text 341 121 sec * samples/sec;
#X msg 340 145 2.4;
#X obj 340 176 * 44100;
#X obj 397 176 * 1000;
#X text 441 175 mSecs;
#X msg 339 245 0 \, \$1 \$2;
#X obj 343 345 s~ \$0audioOut;
#X obj 52 392 r~ \$0audioOut;
#X obj 341 309 tabread4~ \$0Aarray;
#X connect 0 0 11 0;
#X connect 0 0 4 0;
#X connect 2 0 10 0;
#X connect 13 0 11 0;
#X connect 13 0 16 0;
#X connect 14 0 11 0;
#X connect 15 0 14 0;
#X connect 15 0 20 0;
#X connect 19 0 32 0;
#X connect 20 0 13 0;
#X connect 22 0 29 0;
#X connect 25 0 26 0;
#X connect 25 0 27 0;
#X connect 26 0 22 0;
#X connect 27 0 22 1;
#X connect 29 0 23 0;
#X connect 29 0 19 0;
#X connect 31 0 4 0;
#X connect 32 0 30 0;
#X restore 643 474 pd simpRec;
#X connect 0 0 1 0;
#X connect 0 1 3 0;
#X connect 0 2 11 0;
#X connect 1 0 2 0;
#X connect 3 0 2 1;
#X connect 4 0 0 0;
#X connect 5 0 0 0;
#X connect 7 0 14 0;
#X connect 9 0 0 0;
#X connect 10 0 0 0;
#X connect 15 0 7 0;
#X connect 16 0 17 0;
#X connect 17 0 18 0;
#X connect 17 0 20 0;
#X connect 18 0 19 0;
#X connect 18 0 19 1;
#X connect 20 0 21 0;
#X connect 22 0 20 0;
#X connect 23 0 22 0;
#X connect 24 0 31 0;
#X connect 25 0 26 0;
#X connect 25 0 26 1;
#X connect 27 0 28 0;
#X connect 29 0 27 0;
#X connect 30 0 29 0;
#X connect 31 0 25 0;
#X connect 31 0 27 0;
#X connect 32 0 16 0;
#X connect 33 0 24 0;
#X connect 35 0 36 0;
#X connect 36 0 40 0;
#X connect 37 0 38 0;
#X connect 37 0 38 1;
#X connect 39 0 37 0;
#X connect 41 0 35 0;
