#N canvas 26 360 852 573 10;
#X obj 8 -193 phasor~ 220;
#X obj 11 -283 hsl 128 15 0 127 0 0 empty empty empty -2 -8 0 10 -262144
-1 -1 4000 1;
#X obj 8 -250 mtof;
#X obj 223 182 metro 100;
#X obj 266 160 tgl 15 0 empty empty empty 17 7 0 10 -203904 -1 -1 1
1;
#N canvas 0 0 450 300 (subpatch) 0;
#X array array2 100 float 1;
#A 0 0 0 0 0 0 0 0 0 0 0 0 0 0 0 0 0 0 0 0 0 0 0 0 0 0 0 0 0 0 0 0
0 0 0 0 0 0 0 0 0 0 0 0 0 0 0 0 0 0 0 0 0 0 0 0 0 0 0 0 0 0 0 0 0 0
0 0 0 0 0 0 0 0 0 0 0 0 0 0 0 0 0 0 0 0 0 0 0 0 0 0 0 0 0 0 0 0 0 0
0;
#X coords 0 1 99 -1 200 140 1 0 0;
#X restore 606 91 graph;
#X obj 574 -287 dsp;
#X obj 575 -320 tgl 15 0 empty empty empty 17 7 0 10 -203904 -1 -1
0 1;
#X obj 181 205 tabwrite~ array2;
#X obj 51 -243 tgl 15 0 empty empty empty 17 7 0 10 -203904 -1 -1 0
1;
#X obj 360 203 dac~;
#X text 576 148 0;
#X text 579 86 1;
#X text 572 204 -1;
#X obj 8 -160 *~ 2;
#X obj 8 -134 +~ -1;
#X text 54 -158 DC-Offset Correction;
#X obj 184 -285 phasor~ 1000;
#X obj 185 -258 expr~ ($v1 > 0.5 ) * 2 - 1;
#X text 185 -233 DC-Offset Correction Done within expression;
#X text 184 -317 Square Wave;
#X text 7 -313 Saw Wave;
#X text 31 -61 Triangle Wave;
#X obj 69 -3 *~ -1;
#X obj 34 -29 phasor~ 200;
#X obj 70 24 +~ 1;
#X obj 34 47 min~;
#X obj 33 73 -~ 0.25;
#X obj 33 106 *~ 4;
#X obj 9 -99 hsl 128 15 0 127 0 0 empty empty empty -2 -8 0 10 -262144
-1 -1 5800 1;
#X obj -3 -74 mtof;
#X obj 183 -126 phasor~ 200;
#X obj 183 -92 expr~ (min($v1 \, 1 - $v1) - 0.25) * 4;
#X obj 186 -189 hsl 128 15 0 127 0 0 empty empty empty -2 -8 0 10 -262144
-1 -1 6400 1;
#X obj 174 -164 mtof;
#X obj 187 79 hip~ 1;
#X text 208 -151 Triangle Wave 2;
#X obj 186 -17 phasor~ 60;
#X obj 271 -15 phasor~ 440;
#X obj 188 27 +~;
#X obj 242 35 hsl 128 15 0 127 0 0 empty empty empty -2 -8 0 10 -262144
-1 -1 200 1;
#X text 237 66 A Highpass Filter can eliminate The DC-Offset Because
It has a Constatns so it has a frequency of 1;
#X obj 638 -192 noise~;
#X obj 639 -157 *~ 2;
#X obj 697 -124 limiter~;
#X obj 639 -83 z~ 64;
#X obj 639 -34 *~;
#X obj 252 -49 tgl 15 0 empty empty empty 17 7 0 10 -203904 -1 -1 0
1;
#X obj 120 -58 tgl 15 0 empty empty empty 17 7 0 10 -203904 -1 -1 0
1;
#X obj 266 -311 tgl 15 0 empty empty empty 17 7 0 10 -203904 -1 -1
0 1;
#X connect 0 0 14 0;
#X connect 1 0 2 0;
#X connect 2 0 0 0;
#X connect 3 0 8 0;
#X connect 4 0 3 0;
#X connect 7 0 6 0;
#X connect 9 0 0 0;
#X connect 14 0 15 0;
#X connect 17 0 18 0;
#X connect 23 0 25 0;
#X connect 24 0 23 0;
#X connect 24 0 26 0;
#X connect 25 0 26 1;
#X connect 26 0 27 0;
#X connect 27 0 28 0;
#X connect 29 0 30 0;
#X connect 30 0 24 0;
#X connect 31 0 32 0;
#X connect 33 0 34 0;
#X connect 34 0 31 0;
#X connect 37 0 39 0;
#X connect 38 0 39 1;
#X connect 39 0 35 0;
#X connect 40 0 35 1;
#X connect 42 0 43 0;
#X connect 43 0 44 0;
#X connect 43 0 45 0;
#X connect 44 0 46 1;
#X connect 45 0 46 0;
#X connect 47 0 37 0;
#X connect 47 0 38 0;
#X connect 48 0 24 0;
#X connect 49 0 17 0;
