#N canvas 636 209 982 642 10;
#X obj 57 42 tgl 15 0 empty empty empty 17 7 0 10 -262144 -1 -1 1 1
;
#X obj 56 72 metro 500;
#X obj 54 111 counter;
#X obj 24 108 bng 15 250 50 0 empty empty empty 17 7 0 10 -262144 -1
-1;
#X obj 55 145 % 16;
#X floatatom 92 145 5 0 0 0 - - -;
#X obj 52 177 select 0 1 2 3 4 5 6 7 8 9 10 11 12 13 14 15;
#X obj -64 231 f 62;
#X obj -103 231 f 60;
#X obj -25 231 f 64;
#X obj 16 231 f 65;
#X obj 56 231 f 67;
#X obj 94 230 f 69;
#X obj 132 230 f 71;
#X obj 172 230 f 73;
#X obj 213 229 f 75;
#X obj 255 229 f 77;
#X obj 336 229 f 80;
#X obj 379 229 f 82;
#X obj 417 229 f 84;
#X obj 296 229 f 78;
#X obj 458 229 f 85;
#X obj 499 228 f 87;
#X obj 55 308 + 0;
#X obj 97 308 r rootNote;
#X obj 564 183 s rootNote;
#X obj 564 145 f 0;
#X obj 562 111 bng 15 250 50 0 empty empty empty 17 7 0 10 -262144
-1 -1;
#X msg 589 31 0;
#X obj 638 55 vsl 15 64 0 11 0 0 empty empty empty 0 -9 0 10 -262144
-1 -1 0 0;
#X floatatom 612 151 5 0 0 0 - - -;
#X obj 624 126 int;
#X text 585 54 reset;
#X obj 53 417 makenote;
#X obj 53 382 pack f 100 250;
#X msg 134 347 500;
#X text 56 362 pitch vel dur;
#X obj 53 491 sineEngine;
#X floatatom 69 335 5 0 0 0 - - -;
#X floatatom 14 165 5 0 0 0 - - -;
#X text 298 253 comment;
#X text 199 244 comment;
#X text 182 251 comment;
#X text 62 252 comment;
#X text 62 249 comment;
#X msg 109 34 250;
#X obj 182 308 r octShift;
#X obj 698 201 f 0;
#X obj 696 167 bng 15 250 50 0 empty empty empty 17 7 0 10 -262144
-1 -1;
#X msg 720 24 0;
#X obj 765 48 vsl 15 64 -4 4 0 0 empty empty empty 0 -9 0 10 -203904
-1 -1 0 0;
#X floatatom 743 150 5 0 0 0 - - -;
#X obj 755 125 int;
#X text 716 53 reset;
#X obj 698 239 s octShift;
#X obj 734 171 * 12;
#X text 584 10 rootnote shift;
#X text 723 4 octive shift;
#X floatatom 737 201 5 0 0 0 - - -;
#X obj 53 453 pack;
#X obj -38 7 loadbang;
#X obj -34 27 delay 100;
#X obj -48 87 dsp;
#X obj -51 54 tgl 15 0 empty empty empty 17 7 0 10 -262144 -1 -1 0
1;
#X connect 0 0 1 0;
#X connect 1 0 3 0;
#X connect 1 0 2 0;
#X connect 2 0 4 0;
#X connect 2 0 5 0;
#X connect 4 0 6 0;
#X connect 4 0 39 0;
#X connect 6 0 8 0;
#X connect 6 1 7 0;
#X connect 6 2 9 0;
#X connect 6 3 10 0;
#X connect 6 4 11 0;
#X connect 6 5 12 0;
#X connect 6 6 13 0;
#X connect 6 7 14 0;
#X connect 6 8 15 0;
#X connect 6 9 16 0;
#X connect 6 10 20 0;
#X connect 6 11 17 0;
#X connect 6 12 18 0;
#X connect 6 13 19 0;
#X connect 6 14 21 0;
#X connect 6 15 22 0;
#X connect 7 0 23 0;
#X connect 8 0 23 0;
#X connect 9 0 23 0;
#X connect 10 0 23 0;
#X connect 11 0 23 0;
#X connect 12 0 23 0;
#X connect 13 0 23 0;
#X connect 14 0 23 0;
#X connect 15 0 23 0;
#X connect 16 0 23 0;
#X connect 17 0 23 0;
#X connect 18 0 23 0;
#X connect 19 0 23 0;
#X connect 20 0 23 0;
#X connect 21 0 23 0;
#X connect 22 0 23 0;
#X connect 23 0 38 0;
#X connect 23 0 34 0;
#X connect 24 0 23 1;
#X connect 26 0 25 0;
#X connect 27 0 26 0;
#X connect 28 0 29 0;
#X connect 29 0 31 0;
#X connect 29 0 27 0;
#X connect 31 0 30 0;
#X connect 31 0 26 1;
#X connect 33 0 59 0;
#X connect 33 1 59 1;
#X connect 34 0 33 0;
#X connect 35 0 34 2;
#X connect 45 0 1 1;
#X connect 46 0 23 1;
#X connect 47 0 54 0;
#X connect 48 0 47 0;
#X connect 49 0 50 0;
#X connect 50 0 52 0;
#X connect 50 0 48 0;
#X connect 51 0 55 0;
#X connect 52 0 51 0;
#X connect 55 0 47 1;
#X connect 55 0 58 0;
#X connect 59 0 37 0;
#X connect 60 0 61 0;
#X connect 61 0 0 0;
#X connect 61 0 63 0;
#X connect 63 0 62 0;
