#N canvas 984 137 656 588 10;
#X obj 48 48 bng 15 250 50 0 empty empty empty 17 7 0 10 -262144 -1
-1;
#X obj 49 76 openpanel;
#N canvas 0 0 450 300 (subpatch) 0;
#X array sample1 9587 float 2;
#X coords 0 1 9587 -1 200 140 1;
#X restore 31 227 graph;
#X msg 49 130 read -resize \$1 sample1;
#X obj 45 166 soundfiler;
#X msg 392 56 bang;
#X obj 390 222 tabplay~ sample1;
#X obj 373 329 dac~;
#X msg 437 135 0 44100;
#X obj 375 285 *~;
#X floatatom 429 281 5 0 0 0 - - -;
#X msg 442 253 0.25;
#X obj 359 444 tgl 15 0 empty empty empty 17 7 0 10 -262144 -1 -1 0
1;
#X msg 370 489 \; pd dsp \$1;
#X obj 175 424 vu 15 120 empty empty -1 -8 0 10 -66577 -1 1 0;
#X obj 488 381 select 60;
#X floatatom 84 202 5 0 0 0 - - -;
#X msg 418 98 1000;
#X msg 457 164 0 1000;
#X obj 305 378 env~;
#X obj 256 402 - 100;
#X obj 69 99 print;
#X connect 0 0 1 0;
#X connect 1 0 3 0;
#X connect 1 0 21 0;
#X connect 3 0 4 0;
#X connect 4 0 16 0;
#X connect 5 0 6 0;
#X connect 6 0 9 0;
#X connect 8 0 6 0;
#X connect 9 0 7 0;
#X connect 9 0 7 1;
#X connect 9 0 19 0;
#X connect 10 0 9 1;
#X connect 11 0 10 0;
#X connect 12 0 13 0;
#X connect 17 0 6 0;
#X connect 18 0 6 0;
#X connect 19 0 20 0;
#X connect 20 0 14 0;
