#N canvas 607 110 833 670 10;
#X obj 486 349 writesf~ 2;
#X msg 556 190 open recA.wav;
#X msg 666 189 open recB.wav;
#X msg 568 222 start;
#X msg 625 225 stop;
#X obj 51 218 osc~ 899;
#X obj 121 548 dac~;
#X obj 120 457 +~;
#X obj 89 124 hsl 128 15 0 127 0 0 empty empty empty -2 -8 0 10 -262144
-1 -1 0 1;
#X obj 55 190 mtof;
#X msg 599 117 bang;
#X obj 628 262 print done;
#X obj 342 140 dsp;
#X obj 339 16 tgl 15 0 empty empty empty 17 7 0 10 -262144 -1 -1 0
1;
#X obj 143 59 metro 200;
#X obj 143 32 tgl 15 0 empty empty empty 17 7 0 10 -262144 -1 -1 0
1;
#X floatatom 213 85 5 0 0 0 - - -;
#X msg 237 26 bang;
#X obj 106 149 hsl 128 15 0 127 0 0 empty empty empty -2 -8 0 10 -262144
-1 -1 700 1;
#X obj 113 172 mtof;
#X text 728 142 2Min rec;
#X obj 601 303 print started;
#X obj 106 393 *~;
#X obj 206 248 hsl 128 15 0 4 0 0 empty empty empty -2 -8 0 10 -262144
-1 -1 0 1;
#X obj 125 361 osc~ 2;
#X obj 114 222 osc~ 100;
#X obj 12 253 osc~ 899;
#X obj 12 217 mtof;
#X obj 190 180 noise~;
#X obj 73 90 random 80;
#X obj 24 309 *~ 0.4;
#X obj 236 54 random 120;
#X obj 260 81 + 100;
#X obj 253 113 moses 5;
#X obj 657 141 del 360000;
#X msg 778 198 open recC.wav;
#X obj 261 145 moses 3;
#X obj 283 200 random 100;
#X msg 275 168 bang;
#X obj 188 211 *~ 0.3;
#X obj 81 428 spigot~;
#X obj 147 413 tgl 15 0 empty empty empty 17 7 0 10 -262144 -1 -1 0
1;
#X obj 209 473 longRecMod;
#X msg 221 372 symbol openRec;
#X msg 222 397 symbol record;
#X msg 224 422 symbol stopRec;
#X msg 368 374 symbol openPlay;
#X msg 368 397 symbol play;
#X msg 368 422 symbol stopPlay;
#X obj 119 196 + 20;
#X obj 234 276 hsl 128 15 0 127 0 0 empty empty empty -2 -8 0 10 -262144
-1 -1 10500 1;
#X obj 270 301 mtof;
#X obj 188 306 bp~ 500 1;
#X connect 1 0 0 0;
#X connect 2 0 0 0;
#X connect 3 0 0 0;
#X connect 3 0 21 0;
#X connect 4 0 0 0;
#X connect 4 0 11 0;
#X connect 7 0 6 1;
#X connect 7 0 6 0;
#X connect 7 0 42 0;
#X connect 8 0 27 0;
#X connect 9 0 5 0;
#X connect 10 0 3 0;
#X connect 10 0 34 0;
#X connect 13 0 12 0;
#X connect 14 0 29 0;
#X connect 15 0 14 0;
#X connect 17 0 31 0;
#X connect 18 0 19 0;
#X connect 19 0 49 0;
#X connect 22 0 40 0;
#X connect 23 0 24 0;
#X connect 24 0 22 1;
#X connect 25 0 22 0;
#X connect 26 0 30 0;
#X connect 27 0 26 0;
#X connect 28 0 39 0;
#X connect 29 0 8 0;
#X connect 29 0 33 0;
#X connect 29 0 36 0;
#X connect 30 0 22 0;
#X connect 31 0 32 0;
#X connect 32 0 16 0;
#X connect 32 0 14 1;
#X connect 33 0 17 0;
#X connect 34 0 4 0;
#X connect 35 0 0 0;
#X connect 36 0 38 0;
#X connect 37 0 18 0;
#X connect 38 0 37 0;
#X connect 39 0 52 0;
#X connect 40 1 7 0;
#X connect 41 0 40 1;
#X connect 42 0 6 0;
#X connect 42 0 6 1;
#X connect 43 0 42 1;
#X connect 44 0 42 1;
#X connect 45 0 42 1;
#X connect 46 0 42 1;
#X connect 47 0 42 1;
#X connect 48 0 42 1;
#X connect 49 0 25 0;
#X connect 50 0 51 0;
#X connect 51 0 52 1;
#X connect 52 0 22 0;
