#N canvas 277 274 450 300 10;
#X declare -lib mrpeach;
#X obj 56 20 import mrpeach;
#X obj 61 250 udpsend;
#X msg 125 96 disconnect;
#X msg 148 138 send /d;
#X msg 202 137 send /s;
#X msg 258 137 send /q;
#X msg 322 138 send /t;
#X obj 144 173 packOSC;
#X obj 274 73 metro 250;
#X obj 276 36 tgl 15 0 empty empty empty 17 7 0 10 -262144 -1 -1 0
1;
#X obj 286 106 bng 15 250 50 0 empty empty empty 17 7 0 10 -262144
-1 -1;
#X msg 59 60 connect 127.0.0.1 57121;
#X msg 326 167 send /close;
#X obj 305 46 hsl 128 15 15 1000 0 0 empty empty empty -2 -8 0 10 -262144
-1 -1 4100 1;
#X floatatom 370 74 5 0 0 0 - - -;
#X connect 2 0 1 0;
#X connect 3 0 7 0;
#X connect 4 0 7 0;
#X connect 5 0 7 0;
#X connect 6 0 7 0;
#X connect 7 0 1 0;
#X connect 8 0 10 0;
#X connect 8 0 4 0;
#X connect 9 0 8 0;
#X connect 11 0 1 0;
#X connect 12 0 7 0;
#X connect 13 0 14 0;
#X connect 13 0 8 1;
