#N canvas 331 117 682 479 10;
#X obj 126 380 dac~;
#N canvas 650 0 949 952 simpRec2 0;
#X obj 39 31 inlet~;
#X text 46 51 audio in;
#X obj 210 30 inlet;
#X text 208 52 messages in;
#X obj 39 610 outlet~;
#X text 43 635 audio out;
#X obj 711 99 table \$0Aarray;
#X text 774 129 10secs;
#X text 114 189 record;
#X text 422 150 playback;
#X obj 38 381 tabwrite~ \$0Aarray;
#X msg 50 288 start;
#X obj 90 246 bng 15 250 50 0 empty empty empty 17 7 0 10 -262144 -1
-1;
#X obj 69 124 osc~ 440;
#X obj 168 288 delay 2400;
#X obj 394 556 tabread4~ \$0Aarray;
#X obj 72 85 hsl 128 15 0 127 0 0 empty empty empty -2 -8 0 10 -262144
-1 -1 0 1;
#X obj 69 105 mtof;
#X obj 647 551 hsl 128 15 0 1 0 0 empty empty empty -2 -8 0 10 -262144
-1 -1 3964 1;
#X obj 644 450 unsig~ 50;
#X obj 394 469 *~ 44100;
#X msg 386 292 0;
#X obj 394 433 phasor~ 0.4;
#X obj 393 623 spigot~;
#X obj 433 604 tgl 15 0 empty empty empty 17 7 0 10 -262144 -1 -1 0
1;
#X msg 394 215 105840;
#X text 410 317 freq = samplesPerSec / totalSamples;
#X obj 439 294 t f;
#X text 454 469 total samples;
#X text 786 547 loop Progress;
#X obj 394 173 bng 15 250 50 0 empty empty empty 17 7 0 10 -262144
-1 -1;
#X obj 394 261 expr 44100 / $f1;
#X msg 524 262 0;
#X text 551 260 reset phase;
#X obj 340 267 t b;
#X obj 340 316 s aTog;
#X msg 341 292 0;
#X obj 434 581 r aTog;
#X msg 478 188 1;
#X obj 478 208 s aTog;
#X obj 419 63 s recStopSig;
#X obj 166 218 r recStopSig;
#X msg 105 287 stop;
#X obj 709 127 loadbang;
#X msg 707 171 \; \$1Aarray resize 441000;
#X obj 709 148 pack \$0;
#X msg 272 -52 symbol playBut_m;
#X obj 274 30 select playBut_m stopBut_m recBut_m recStop_m;
#X msg 289 -25 symbol stopBut_m;
#X msg 304 -1 symbol recBut_m;
#X text 67 144 Connect to Test;
#X obj 210 716 metro;
#X text 266 736 60secs / bpm * 1000ms / 1s = lenghtOfBeat in ms;
#X obj 236 693 expr 60 / $f1 * 1000;
#X text 298 656 bpm;
#X obj 208 692 tgl 15 0 empty empty empty 17 7 0 10 -262144 -1 -1 0
1;
#X obj 137 799 *~;
#X obj 174 766 line~ 1 50;
#X obj 223 822 hsl 128 15 0 1 0 0 empty empty empty -2 -8 0 10 -262144
-1 -1 0 1;
#X obj 220 800 unsig~ 50;
#X msg 203 742 1 \, 0 50;
#X obj 168 326 s recStopSig;
#X obj 220 613 r recStopSig;
#X msg 220 642 0;
#X obj 158 614 r recSig;
#X obj 90 219 r recSig;
#X obj 356 63 s recSig;
#X msg 169 649 1;
#X obj 308 614 loadbang;
#X floatatom 166 806 5 0 0 0 - - -;
#X obj 56 580 catch~ \$0audioOut;
#X obj 390 655 throw~ \$0audioOut;
#X obj 137 864 throw~ \$0audioOut;
#X obj 65 182 *~ 0.5;
#X msg 263 658 100;
#X obj 134 722 osc~ 2000;
#X obj 137 832 *~ 0.3;
#X obj 647 486 hsl 128 15 0 1 0 0 empty empty empty -2 -8 0 10 -262144
-1 -1 0 1;
#X obj 647 515 hsl 128 15 0 1 0 0 empty empty empty -2 -8 0 10 -262144
-1 -1 0 1;
#X text 790 481 Start;
#X text 794 511 Finish;
#X obj 508 359 hsl 128 15 -2 2 0 0 empty empty empty -2 -8 0 10 -262144
-1 -1 9800 1;
#X text 525 336 Playback Speed;
#X obj 505 391 t b f;
#X obj 394 413 * 1;
#X floatatom 394 392 5 0 0 0 - - -;
#X text 637 370 2;
#X text 490 370 -2;
#N canvas 1002 262 450 478 buttonDub 0;
#X obj 20 25 inlet;
#X obj 21 282 outlet;
#X obj 67 281 outlet;
#X obj 23 125 t b b;
#X obj 21 199 f 0;
#X msg 63 157 0;
#X msg 23 157 1;
#X text 108 87 other Signals Clear the Counters;
#X obj 22 227 moses 1;
#X msg 332 49 symbol OtherSig;
#X text 302 28 Test;
#X obj 63 255 bng 15 250 50 0 empty empty empty 17 7 0 10 -262144 -1
-1;
#X obj 21 254 bng 15 250 50 0 empty empty empty 17 7 0 10 -262144 -1
-1;
#X msg 207 49 symbol TestName;
#X obj 21 66 select TestName;
#X connect 0 0 14 0;
#X connect 3 0 6 0;
#X connect 3 1 4 0;
#X connect 4 0 8 0;
#X connect 5 0 4 1;
#X connect 6 0 4 1;
#X connect 8 0 12 0;
#X connect 8 1 11 0;
#X connect 9 0 14 0;
#X connect 11 0 2 0;
#X connect 12 0 1 0;
#X connect 13 0 14 0;
#X connect 14 0 3 0;
#X connect 14 1 5 0;
#X restore 573 148 pd buttonDub;
#X connect 0 0 10 0;
#X connect 0 0 4 0;
#X connect 2 0 47 0;
#X connect 11 0 10 0;
#X connect 12 0 11 0;
#X connect 12 0 14 0;
#X connect 13 0 73 0;
#X connect 14 0 61 0;
#X connect 15 0 23 0;
#X connect 16 0 17 0;
#X connect 17 0 13 0;
#X connect 19 0 18 0;
#X connect 20 0 15 0;
#X connect 21 0 85 0;
#X connect 22 0 19 0;
#X connect 22 0 20 0;
#X connect 23 1 71 0;
#X connect 24 0 23 1;
#X connect 25 0 27 0;
#X connect 25 0 31 0;
#X connect 27 0 20 1;
#X connect 30 0 25 0;
#X connect 30 0 32 0;
#X connect 30 0 38 0;
#X connect 31 0 85 0;
#X connect 32 0 22 1;
#X connect 34 0 21 0;
#X connect 34 0 36 0;
#X connect 36 0 35 0;
#X connect 37 0 24 0;
#X connect 38 0 39 0;
#X connect 41 0 42 0;
#X connect 42 0 10 0;
#X connect 43 0 45 0;
#X connect 45 0 44 0;
#X connect 46 0 47 0;
#X connect 47 0 30 0;
#X connect 47 1 34 0;
#X connect 47 2 66 0;
#X connect 47 3 40 0;
#X connect 48 0 47 0;
#X connect 49 0 47 0;
#X connect 51 0 60 0;
#X connect 53 0 51 1;
#X connect 55 0 51 0;
#X connect 56 0 76 0;
#X connect 57 0 56 1;
#X connect 57 0 59 0;
#X connect 59 0 58 0;
#X connect 60 0 57 0;
#X connect 62 0 63 0;
#X connect 63 0 55 0;
#X connect 64 0 67 0;
#X connect 65 0 12 0;
#X connect 67 0 55 0;
#X connect 68 0 74 0;
#X connect 69 0 76 1;
#X connect 70 0 4 0;
#X connect 74 0 53 0;
#X connect 75 0 56 0;
#X connect 76 0 72 0;
#X connect 81 0 83 0;
#X connect 83 0 85 0;
#X connect 83 1 84 1;
#X connect 84 0 22 0;
#X connect 85 0 84 0;
#X restore 124 270 pd simpRec2;
#X obj 117 118 osc~ 440;
#X obj 120 79 hsl 128 15 0 127 0 0 empty empty empty -2 -8 0 10 -262144
-1 -1 6600 1;
#X obj 117 99 mtof;
#X text 115 138 Connect to Test;
#X obj 113 176 *~ 0.3;
#X obj 118 228 spigot~;
#X obj 166 205 tgl 15 0 empty empty empty 17 7 0 10 -262144 -1 -1 1
1;
#X text 187 204 off/on;
#X connect 1 0 0 0;
#X connect 2 0 6 0;
#X connect 3 0 4 0;
#X connect 4 0 2 0;
#X connect 6 0 7 0;
#X connect 7 0 1 0;
#X connect 8 0 7 1;
