#N canvas 331 117 682 479 10;
#N canvas 650 24 949 909 simpRec 1;
#X obj 39 31 inlet~;
#X text 46 51 audio in;
#X obj 210 30 inlet;
#X text 208 52 messages in;
#X obj 38 538 outlet~;
#X text 42 563 audio out;
#X obj 711 99 table \$0Aarray;
#X text 774 129 10secs;
#X text 114 189 record;
#X text 440 150 playback;
#X obj 38 381 tabwrite~ \$0Aarray;
#X msg 50 288 start;
#X obj 90 246 bng 15 250 50 0 empty empty empty 17 7 0 10 -262144 -1
-1;
#X obj 69 124 osc~ 440;
#X obj 168 288 delay 2400;
#X obj 393 484 tabread4~ \$0Aarray;
#X obj 72 85 hsl 128 15 0 127 0 0 empty empty empty -2 -8 0 10 -262144
-1 -1 7700 1;
#X obj 69 105 mtof;
#X obj 525 376 hsl 128 15 0 1 0 0 empty empty empty -2 -8 0 10 -262144
-1 -1 1538 1;
#X obj 522 354 unsig~ 50;
#X obj 394 421 *~ 44100;
#X msg 404 292 0;
#X obj 394 336 phasor~ 0.4;
#X obj 392 551 spigot~;
#X obj 432 532 tgl 15 0 empty empty empty 17 7 0 10 -262144 -1 -1 0
1;
#X msg 394 215 105840;
#X text 410 317 freq = samplesPerSec / totalSamples;
#X obj 439 294 t f;
#X text 454 421 total samples;
#X text 545 391 loop Progress;
#X obj 394 173 bng 15 250 50 0 empty empty empty 17 7 0 10 -262144
-1 -1;
#X obj 394 261 expr 44100 / $f1;
#X msg 524 262 0;
#X text 551 260 reset phase;
#X obj 340 267 t b;
#X obj 340 316 s aTog;
#X msg 341 292 0;
#X obj 433 509 r aTog;
#X msg 478 188 1;
#X obj 478 208 s aTog;
#X obj 419 63 s recStopSig;
#X obj 166 218 r recStopSig;
#X msg 105 287 stop;
#X obj 709 127 loadbang;
#X msg 707 171 \; \$1Aarray resize 441000;
#X obj 709 148 pack \$0;
#X msg 272 -52 symbol playBut_m;
#X obj 274 30 select playBut_m stopBut_m recBut_m recStop_m;
#X msg 289 -25 symbol stopBut_m;
#X msg 304 -1 symbol recBut_m;
#X text 67 144 Connect to Test;
#X text 501 157 comment;
#X obj 209 644 metro;
#X text 265 664 60secs / bpm * 1000ms / 1s = lenghtOfBeat in ms;
#X obj 235 621 expr 60 / $f1 * 1000;
#X text 297 584 bpm;
#X obj 207 620 tgl 15 0 empty empty empty 17 7 0 10 -262144 -1 -1 0
1;
#X obj 136 727 *~;
#X obj 173 694 line~ 1 50;
#X obj 135 761 *~ 0.3;
#X obj 222 750 hsl 128 15 0 1 0 0 empty empty empty -2 -8 0 10 -262144
-1 -1 0 1;
#X obj 219 728 unsig~ 50;
#X msg 202 670 1 \, 0 50;
#X obj 168 326 s recStopSig;
#X obj 219 541 r recStopSig;
#X msg 219 570 0;
#X obj 157 542 r recSig;
#X obj 90 219 r recSig;
#X obj 356 63 s recSig;
#X msg 168 577 1;
#X obj 307 542 loadbang;
#X floatatom 165 734 5 0 0 0 - - -;
#X obj 55 508 catch~ \$0audioOut;
#X obj 389 583 throw~ \$0audioOut;
#X obj 136 792 throw~ \$0audioOut;
#X obj 65 182 *~ 0.5;
#X msg 262 586 100;
#X obj 133 650 osc~ 2000;
#X connect 0 0 10 0;
#X connect 0 0 4 0;
#X connect 2 0 47 0;
#X connect 11 0 10 0;
#X connect 12 0 11 0;
#X connect 12 0 14 0;
#X connect 13 0 75 0;
#X connect 14 0 63 0;
#X connect 15 0 23 0;
#X connect 16 0 17 0;
#X connect 17 0 13 0;
#X connect 19 0 18 0;
#X connect 20 0 15 0;
#X connect 21 0 22 0;
#X connect 22 0 19 0;
#X connect 22 0 20 0;
#X connect 23 1 73 0;
#X connect 24 0 23 1;
#X connect 25 0 27 0;
#X connect 25 0 31 0;
#X connect 27 0 20 1;
#X connect 30 0 25 0;
#X connect 30 0 32 0;
#X connect 30 0 38 0;
#X connect 31 0 22 0;
#X connect 32 0 22 1;
#X connect 34 0 21 0;
#X connect 34 0 36 0;
#X connect 36 0 35 0;
#X connect 37 0 24 0;
#X connect 38 0 39 0;
#X connect 41 0 42 0;
#X connect 42 0 10 0;
#X connect 43 0 45 0;
#X connect 45 0 44 0;
#X connect 46 0 47 0;
#X connect 47 0 30 0;
#X connect 47 1 34 0;
#X connect 47 2 68 0;
#X connect 47 3 40 0;
#X connect 48 0 47 0;
#X connect 49 0 47 0;
#X connect 52 0 62 0;
#X connect 54 0 52 1;
#X connect 56 0 52 0;
#X connect 57 0 59 0;
#X connect 58 0 57 1;
#X connect 58 0 61 0;
#X connect 59 0 74 0;
#X connect 61 0 60 0;
#X connect 62 0 58 0;
#X connect 64 0 65 0;
#X connect 65 0 56 0;
#X connect 66 0 69 0;
#X connect 67 0 12 0;
#X connect 69 0 56 0;
#X connect 70 0 76 0;
#X connect 71 0 59 1;
#X connect 72 0 4 0;
#X connect 76 0 54 0;
#X connect 77 0 57 0;
#X restore 125 270 pd simpRec;
#X obj 126 380 dac~;
#X connect 0 0 1 0;
