#N canvas 511 194 678 556 10;
#X obj 146 23 keyup;
#X floatatom 95 49 5 0 0 0 - - -;
#X floatatom 170 43 5 0 0 0 - - -;
#X obj 51 88 mtof;
#X obj 36 175 osc~;
#X obj 89 71 bng 15 250 50 0 empty empty empty 17 7 0 10 -262144 -1
-1;
#X obj 175 71 bng 15 250 50 0 empty empty empty 17 7 0 10 -262144 -1
-1;
#X obj 91 161 pack 0 50;
#X obj 91 187 line~;
#X obj 36 204 *~;
#X obj 32 267 dac~;
#X msg 95 97 1;
#X msg 171 93 0;
#X obj 76 -6 key;
#X obj 43 65 line;
#X obj 10 31 pack 0 300;
#X obj 380 177 makenote;
#X obj 559 -12 tgl 15 0 empty empty empty 17 7 0 10 -262144 -1 -1 0
1;
#X obj 559 15 dsp;
#X obj 374 50 key;
#X msg 412 122 127;
#X obj 380 268 noteout;
#X floatatom 377 221 5 0 0 0 - - -;
#X floatatom 422 221 5 0 0 0 - - -;
#X msg 448 245 1;
#X obj 424 89 bng 15 250 50 0 empty empty empty 17 7 0 10 -262144 -1
-1;
#X obj 463 121 bng 15 250 50 0 empty empty empty 17 7 0 10 -262144
-1 -1;
#X obj 354 320 notein;
#X floatatom 353 355 5 0 0 0 - - -;
#X floatatom 394 355 5 0 0 0 - - -;
#X floatatom 439 356 5 0 0 0 - - -;
#X msg 452 148 50;
#X obj 514 84 bng 15 250 50 0 empty empty empty 17 7 0 10 -262144 -1
-1;
#X obj 597 88 bng 15 250 50 0 empty empty empty 17 7 0 10 -262144 -1
-1;
#X msg 513 113 xset r off;
#X msg 595 113 xset r on;
#X obj 514 137 shell;
#X text 517 58 Turn Key Repat Off/On;
#X text 522 189 Can maybe be fixed;
#X connect 0 0 2 0;
#X connect 2 0 6 0;
#X connect 3 0 4 0;
#X connect 4 0 9 0;
#X connect 5 0 11 0;
#X connect 6 0 12 0;
#X connect 7 0 8 0;
#X connect 8 0 9 1;
#X connect 9 0 10 0;
#X connect 9 0 10 1;
#X connect 11 0 7 0;
#X connect 12 0 7 0;
#X connect 13 0 1 0;
#X connect 13 0 5 0;
#X connect 13 0 15 0;
#X connect 14 0 3 0;
#X connect 15 0 14 0;
#X connect 16 0 22 0;
#X connect 16 1 23 0;
#X connect 17 0 18 0;
#X connect 19 0 16 0;
#X connect 19 0 25 0;
#X connect 19 0 26 0;
#X connect 20 0 16 1;
#X connect 22 0 21 0;
#X connect 23 0 21 1;
#X connect 24 0 21 2;
#X connect 25 0 20 0;
#X connect 26 0 31 0;
#X connect 27 0 28 0;
#X connect 27 1 29 0;
#X connect 27 2 30 0;
#X connect 31 0 16 2;
#X connect 32 0 34 0;
#X connect 33 0 35 0;
#X connect 34 0 36 0;
#X connect 35 0 36 0;
